<svg width="42" height="35" viewBox="0 0 42 35" fill="none" xmlns="http://www.w3.org/2000/svg">
<g clip-path="url(#clip0_319_88)">
<path d="M19.0832 18.25H12.2498C10.4375 18.25 8.69944 18.847 7.41794 19.9097C6.13644 20.9724 5.4165 22.4138 5.4165 23.9167V26.75" stroke="white" stroke-width="2" stroke-linecap="round" stroke-linejoin="round"/>
<path d="M26.4375 20.4175L28.0143 19.8763" stroke="#EDBE0C" stroke-width="2" stroke-linecap="round" stroke-linejoin="round"/>
<path d="M28.0143 16.6236L26.4375 16.0811" stroke="#EDBE0C" stroke-width="2" stroke-linecap="round" stroke-linejoin="round"/>
<path d="M30.7891 14.323L30.1348 13.0154" stroke="#EDBE0C" stroke-width="2" stroke-linecap="round" stroke-linejoin="round"/>
<path d="M30.7891 22.177L30.1348 23.486" stroke="#EDBE0C" stroke-width="2" stroke-linecap="round" stroke-linejoin="round"/>
<path d="M34.7109 14.323L35.3652 13.0154" stroke="#EDBE0C" stroke-width="2" stroke-linecap="round" stroke-linejoin="round"/>
<path d="M35.3635 23.486L34.7109 22.177" stroke="#EDBE0C" stroke-width="2" stroke-linecap="round" stroke-linejoin="round"/>
<path d="M37.4854 16.6236L39.0639 16.0811" stroke="#EDBE0C" stroke-width="2" stroke-linecap="round" stroke-linejoin="round"/>
<path d="M37.4854 19.8763L39.0639 20.4189" stroke="#EDBE0C" stroke-width="2" stroke-linecap="round" stroke-linejoin="round"/>
<path d="M32.75 22.5C35.5805 22.5 37.875 20.5972 37.875 18.25C37.875 15.9028 35.5805 14 32.75 14C29.9195 14 27.625 15.9028 27.625 18.25C27.625 20.5972 29.9195 22.5 32.75 22.5Z" stroke="#EABB12" stroke-width="2" stroke-linecap="round" stroke-linejoin="round"/>
<path d="M17.3748 12.5833C21.1488 12.5833 24.2082 10.0463 24.2082 6.91667C24.2082 3.78705 21.1488 1.25 17.3748 1.25C13.6009 1.25 10.5415 3.78705 10.5415 6.91667C10.5415 10.0463 13.6009 12.5833 17.3748 12.5833Z" stroke="white" stroke-width="2" stroke-linecap="round" stroke-linejoin="round"/>
</g>
<defs>
<clipPath id="clip0_319_88">
<rect width="42" height="35" fill="white"/>
</clipPath>
</defs>
</svg>
