<svg width="25" height="24" viewBox="0 0 25 24" fill="none" xmlns="http://www.w3.org/2000/svg">
<path d="M12.3491 3H5.34912C4.81869 3 4.30998 3.21071 3.93491 3.58579C3.55983 3.96086 3.34912 4.46957 3.34912 5V19C3.34912 19.5304 3.55983 20.0391 3.93491 20.4142C4.30998 20.7893 4.81869 21 5.34912 21H19.3491C19.8796 21 20.3883 20.7893 20.7633 20.4142C21.1384 20.0391 21.3491 19.5304 21.3491 19V12" stroke="white" stroke-width="2" stroke-linecap="round" stroke-linejoin="round"/>
<path d="M18.7242 2.62498C19.122 2.22716 19.6616 2.00366 20.2242 2.00366C20.7868 2.00366 21.3264 2.22716 21.7242 2.62498C22.122 3.02281 22.3455 3.56237 22.3455 4.12498C22.3455 4.68759 22.122 5.22716 21.7242 5.62498L12.7112 14.639C12.4738 14.8762 12.1804 15.0499 11.8582 15.144L8.98521 15.984C8.89917 16.0091 8.80795 16.0106 8.72112 15.9883C8.63429 15.9661 8.55504 15.9209 8.49166 15.8575C8.42828 15.7942 8.3831 15.7149 8.36086 15.6281C8.33861 15.5412 8.34012 15.45 8.36521 15.364L9.20521 12.491C9.29974 12.169 9.47375 11.876 9.71122 11.639L18.7242 2.62498Z" stroke="white" stroke-width="2" stroke-linecap="round" stroke-linejoin="round"/>
</svg>
