<svg width="70" height="70" viewBox="0 0 70 70" fill="none" xmlns="http://www.w3.org/2000/svg">
<rect width="70" height="70" rx="20" fill="#EAEA0E" fill-opacity="0.2"/>
<path d="M39 33C39 34.0609 38.5786 35.0783 37.8284 35.8284C37.0783 36.5786 36.0609 37 35 37C33.9391 37 32.9217 36.5786 32.1716 35.8284C31.4214 35.0783 31 34.0609 31 33" stroke="#E7BB12" stroke-width="2" stroke-linecap="round" stroke-linejoin="round"/>
<path d="M26.103 29.034H43.897" stroke="#E7BB12" stroke-width="2" stroke-linecap="round" stroke-linejoin="round"/>
<path d="M26.4 28.467C26.1404 28.8132 26 29.2343 26 29.667V43C26 43.5304 26.2107 44.0391 26.5858 44.4142C26.9609 44.7893 27.4696 45 28 45H42C42.5304 45 43.0391 44.7893 43.4142 44.4142C43.7893 44.0391 44 43.5304 44 43V29.667C44 29.2343 43.8596 28.8132 43.6 28.467L41.6 25.8C41.4137 25.5516 41.1721 25.35 40.8944 25.2111C40.6167 25.0723 40.3105 25 40 25H30C29.6895 25 29.3833 25.0723 29.1056 25.2111C28.8279 25.35 28.5863 25.5516 28.4 25.8L26.4 28.467Z" stroke="#E7BB12" stroke-width="2" stroke-linecap="round" stroke-linejoin="round"/>
</svg>
