<svg width="55" height="56" viewBox="0 0 55 56" fill="none" xmlns="http://www.w3.org/2000/svg">
<path d="M4.58325 48.9998C4.58293 45.9809 5.30173 43.007 6.67801 40.333C8.0543 37.6591 10.047 35.3649 12.4853 33.6472C14.9235 31.9295 17.7346 30.8395 20.6774 30.4708C23.6201 30.1021 26.6069 30.4656 29.3814 31.5301" stroke="#EDBE0C" stroke-width="2" stroke-linecap="round" stroke-linejoin="round"/>
<path d="M48.9912 38.794C49.9041 37.8645 50.417 36.6039 50.417 35.2894C50.417 33.9748 49.9041 32.7142 48.9912 31.7847C48.0783 30.8552 46.8402 30.333 45.5492 30.333C44.2581 30.333 43.02 30.8552 42.1071 31.7847L32.9175 41.146C32.3726 41.7005 31.9738 42.3858 31.7579 43.1387L29.8398 49.8354C29.7823 50.0361 29.7788 50.249 29.8298 50.4516C29.8808 50.6542 29.9843 50.8391 30.1296 50.987C30.2748 51.1349 30.4564 51.2403 30.6554 51.2922C30.8544 51.3441 31.0634 51.3406 31.2606 51.282L37.8377 49.329C38.5771 49.1092 39.2502 48.7031 39.7948 48.1484L48.9912 38.794Z" stroke="#EDBE0C" stroke-width="2" stroke-linecap="round" stroke-linejoin="round"/>
<path d="M22.9166 30.3333C29.2448 30.3333 34.3749 25.11 34.3749 18.6667C34.3749 12.2233 29.2448 7 22.9166 7C16.5883 7 11.4583 12.2233 11.4583 18.6667C11.4583 25.11 16.5883 30.3333 22.9166 30.3333Z" stroke="#EDBE0C" stroke-width="2" stroke-linecap="round" stroke-linejoin="round"/>
</svg>
