<svg width="64" height="61" viewBox="0 0 64 61" fill="none" xmlns="http://www.w3.org/2000/svg">
<path d="M51.8134 32.8764C52.7654 30.4186 53.3334 27.9074 53.3334 25.4166C53.3334 20.0238 51.0858 14.852 47.085 11.0387C43.0842 7.22551 37.658 5.08325 32.0001 5.08325C26.3421 5.08325 20.9159 7.22551 16.9151 11.0387C12.9144 14.852 10.6667 20.0238 10.6667 25.4166C10.6667 38.1071 25.4374 51.3238 30.3974 55.4057C30.8595 55.7369 31.422 55.9159 32.0001 55.9159C32.5782 55.9159 33.1407 55.7369 33.6027 55.4057C34.3363 54.8006 35.0591 54.1838 35.7707 53.5554" stroke="#EDBE0C" stroke-width="2" stroke-linecap="round" stroke-linejoin="round"/>
<path d="M32 33.0417C36.4183 33.0417 40 29.6279 40 25.4167C40 21.2056 36.4183 17.7917 32 17.7917C27.5817 17.7917 24 21.2056 24 25.4167C24 29.6279 27.5817 33.0417 32 33.0417Z" stroke="#EDBE0C" stroke-width="2" stroke-linecap="round" stroke-linejoin="round"/>
<path d="M42.6667 45.7501L48.0001 50.8334L58.6667 40.6667" stroke="#EDBE0C" stroke-width="2" stroke-linecap="round" stroke-linejoin="round"/>
</svg>
