<svg width="512" height="512" viewBox="0 0 512 512" fill="none" xmlns="http://www.w3.org/2000/svg">
<circle cx="256" cy="256" r="254.5" fill="#F10F10" stroke="white" stroke-width="3"/>
<path d="M80 237.638V239.638L79 240.638C78.3333 241.138 76.8 242.138 76 242.138H73L69.5 241.638L67 240.638L64.5 238.138L62 230.138V225.638C62 225.238 63.6667 221.804 64.5 220.138C66.6667 218.471 71.1 215.038 71.5 214.638C71.9 214.238 74.3333 214.471 75.5 214.638L80.5 216.638C81.1667 217.804 82.6 220.238 83 220.638C83.4 221.038 83.1667 224.804 83 226.638L80.5 231.638C80.1667 232.638 79.5 234.738 79.5 235.138C79.5 235.538 79.8333 236.971 80 237.638Z" stroke="white" stroke-width="3"/>
<path d="M152 226.138C151.5 226.638 152 227.138 152 227.638V230.638L154.5 231.138C155.5 230.638 157.6 229.638 158 229.638C158.4 229.638 161.5 227.971 163 227.138L164 220.138L162 219.138L158 217.638L154.5 220.638C154.167 221.304 153.5 222.738 153.5 223.138C153.5 223.638 153 223.638 153 224.138C153 224.638 152.5 225.638 152 226.138Z" stroke="white" stroke-width="3"/>
<path d="M167.5 138.138C166 138.638 162.5 139.138 162 139.138C162.167 137.138 162.5 133.038 162.5 132.638C162.5 132.238 161.833 129.804 161.5 128.638L160 126.138L163 120.138L167.5 121.138L171 120.638L175.5 122.138C175.833 123.138 176.4 125.538 176 127.138C175.6 128.738 173.833 132.804 173 134.638C171.667 135.638 168.7 137.738 167.5 138.138Z" stroke="white" stroke-width="3"/>
<path d="M110.5 185.138C110.1 185.138 110 186.804 110 187.638L105.5 188.638L98.5 186.138L87 166.638L90 150.638L95 140.638V132.138L115.5 118.138L127 114.638C129 114.471 133.1 114.138 133.5 114.138C133.9 114.138 137 116.138 138.5 117.138L142.5 132.638L143.5 134.638L141 140.638C140.833 143.304 140.5 148.838 140.5 149.638C140.5 150.438 141.167 151.304 141.5 151.638L135.5 163.638C130.667 168.804 120.9 179.238 120.5 179.638C120 180.138 111 185.138 110.5 185.138Z" stroke="white" stroke-width="3"/>
<path d="M98 214.638H95.5V225.138L98.5 228.138L99 233.638L96 239.638L95.5 248.638L102.5 254.138L106.5 253.138C112.5 251.304 124.6 247.638 125 247.638C125.4 247.638 133.167 242.971 137 240.638L142 231.138L145 220.138L146 213.138L141 206.638L137.5 196.138L134 194.138L130 196.138C129.167 196.138 126.6 196.038 123 195.638C119.4 195.238 116.833 196.138 116 196.638L110.5 199.138L108 201.138C106.5 201.638 103.4 202.638 103 202.638C102.5 202.638 102 205.138 101.5 206.138C101 207.138 102 209.138 101.5 211.138C101 213.138 99 214.638 98 214.638Z" stroke="white" stroke-width="3"/>
<path d="M195.5 130.138C195.1 128.538 194 127.804 193.5 127.638C195.167 125.804 198.5 121.938 198.5 121.138V115.138C199.833 113.971 202.7 111.538 203.5 111.138C204.3 110.738 207.5 111.304 209 111.638H215C215.4 111.638 220.5 114.638 223 116.138L227.5 123.138C228.333 128.804 230.1 140.438 230.5 141.638C231 143.138 226 152.638 225.5 153.638C225 154.638 222 156.138 221.5 156.638C221 157.138 219 156.138 217.5 155.138C216 154.138 213 148.138 212.5 146.638C212 145.138 205 141.638 204.5 141.638C204.1 141.638 199.667 139.304 197.5 138.138L195.5 130.138Z" stroke="white" stroke-width="3"/>
<path d="M163 205.138C162 204.638 159.5 203.638 158 201.638L161 197.138L160.5 193.638L159.5 188.638L162 181.138L164.5 172.138L174 165.138L177 161.138L182.5 163.638L184 166.638L191 163.638L195.5 161.138L199.5 163.638L201 168.638L203.5 171.638L208 175.638C206 180.638 202 190.738 202 191.138C202 191.638 199 193.638 198 193.638H194C191 194.471 185.8 196.138 189 196.138C192.2 196.138 186 201.471 182.5 204.138C180.333 204.971 175.4 206.338 173 205.138C171.5 205.138 164 205.638 163 205.138Z" stroke="white" stroke-width="3"/>
<path d="M225.5 186.138C225 185.138 225.5 183.638 226 183.138C228.333 181.638 233.1 178.638 233.5 178.638C233.9 178.638 236 180.971 237 182.138L239 183.638H244L247.5 185.138V188.638C247.5 189.138 246.5 191.138 246 191.638C245.6 192.038 244.167 194.471 243.5 195.638C240.333 197.138 234 200.238 234 200.638C234 201.038 232 200.471 231 200.138C230.667 199.304 229.9 197.538 229.5 197.138C229.1 196.738 228.667 194.304 228.5 193.138L228 189.638C227.333 188.804 225.9 186.938 225.5 186.138Z" stroke="white" stroke-width="3"/>
<path d="M150 413.638L148 408.638L133.5 374.638L122.5 347.638L108 311.138L102.5 300.138L101.5 295.638L99 292.138C98.6667 290.971 98 288.538 98 288.138C98 287.738 100.333 284.638 101.5 283.138L112 273.638L139 260.138L153.5 254.638L159 243.138L168.5 238.138L177.5 233.638L182.5 235.138L187.5 232.138C191.667 232.138 200.1 232.238 200.5 232.638C200.9 233.038 206.333 230.138 209 228.638C210.5 226.471 213.6 221.938 214 221.138C214.4 220.338 217.5 218.804 219 218.138L224 214.638H229.5C229.9 214.638 236 217.638 239 219.138L241 224.138C241.5 223.304 242.5 221.538 242.5 221.138C242.5 220.738 249.5 219.971 253 219.638L265.5 228.638C265.833 229.804 266.5 232.538 266.5 234.138C266.5 235.738 265.167 239.804 264.5 241.638L268.5 244.638L271 249.138L270.5 252.638C271.167 253.638 272.4 255.738 272 256.138C271.5 256.638 271 260.638 270.5 261.138C270.1 261.538 273 283.638 274.5 294.638L281 353.138L284 376.638V379.638L276 387.638L264 394.138L222.5 408.638L193.5 413.638C185.167 414.638 168.1 416.638 166.5 416.638C164.9 416.638 157.5 415.638 154 415.138L150 413.638Z" stroke="white" stroke-width="3"/>
<path d="M213.499 382.914C231.995 378.276 249.06 375.65 261.673 375.129C268 374.867 273.073 375.142 276.604 375.894C278.375 376.271 279.619 376.741 280.412 377.223C281.194 377.698 281.331 378.05 281.36 378.165C281.388 378.279 281.435 378.655 280.969 379.444C280.497 380.243 279.622 381.244 278.238 382.412C275.48 384.742 271.137 387.377 265.435 390.132C254.068 395.623 237.783 401.359 219.287 405.997C200.792 410.634 183.726 413.261 171.113 413.782C164.786 414.044 159.713 413.769 156.182 413.017C154.411 412.639 153.168 412.169 152.375 411.688C151.592 411.211 151.455 410.859 151.427 410.744C151.398 410.63 151.353 410.255 151.818 409.466C152.29 408.667 153.164 407.667 154.547 406.499C157.306 404.169 161.649 401.533 167.351 398.779C178.718 393.287 195.004 387.551 213.499 382.914Z" fill="#CF3847" stroke="#551923" stroke-width="5"/>
<path d="M268 255.637L282 376.137L150 410.137L103.5 296.137H107.5C109 296.137 123 301.637 134 301.137C145 300.637 165.5 297.637 173.5 296.137C179.9 294.937 211.167 285.304 226 280.637L268 255.637Z" stroke="#551923" stroke-width="3"/>
<path d="M112 312.637L108 303.637L117.5 306.637L125.5 307.637L131 308.137L156.5 306.137L182 301.637L214 293.137L243 281.137L251 277.137L267.5 264.637L269 279.137L271 296.137L273 314.137L274 322.137L275 331.137L276.5 343.137L277.5 353.137L279 365.137L279.5 370.137L280 375.137V377.137L278.5 378.137L277 379.137L253.5 385.137L220.5 393.637L195 400.137L164 408.137L157.5 409.637H155.5L150.5 407.137L112 312.637Z" fill="#CF3847" stroke="#CF3847"/>
<path d="M121 306.638C119.4 306.638 111 304.304 107 303.138V303.638L149.5 405.138L150.5 407.138L153.5 408.638L154.5 409.138L155.5 409.638L158 410.138L162.5 410.638H169L131.5 306.638H129.5H125.5H121Z" fill="#D77A83" stroke="#D77A83"/>
<path d="M265.5 380.638C271.5 374.238 258.333 308.304 251 276.138L268 263.138L280.5 377.138L276.5 380.638L270.5 384.138L268.5 385.138L265 387.138L254.5 391.638C255.667 390.638 259.5 387.038 265.5 380.638Z" fill="#902A37" stroke="#902A37"/>
<path d="M181.33 254.558C204.552 248.632 226.181 245.855 242.357 246.13C250.455 246.268 257.099 247.17 261.869 248.772C266.714 250.398 269.203 252.593 269.82 255.011C270.437 257.43 269.304 260.548 265.831 264.297C262.412 267.989 257.012 271.964 249.97 275.965C235.904 283.958 215.589 291.885 192.367 297.81C169.145 303.736 147.516 306.513 131.341 306.237C123.242 306.1 116.598 305.198 111.828 303.596C106.983 301.97 104.494 299.775 103.877 297.357C103.26 294.938 104.393 291.82 107.866 288.07C111.285 284.379 116.685 280.404 123.727 276.403C137.793 268.41 158.108 260.484 181.33 254.558Z" fill="#D9D9D9" stroke="#551923" stroke-width="3"/>
<path d="M179.823 250.055C203.348 244.156 225.184 241.316 241.438 241.453C249.585 241.522 256.183 242.339 260.852 243.809C265.679 245.329 267.653 247.277 268.087 249.01C268.522 250.743 267.7 253.391 264.162 257.009C260.739 260.508 255.306 264.342 248.156 268.246C233.89 276.036 213.297 283.835 189.772 289.733C166.247 295.632 144.411 298.472 128.156 298.335C120.01 298.266 113.411 297.449 108.743 295.979C103.916 294.459 101.942 292.511 101.508 290.779C101.073 289.046 101.894 286.397 105.433 282.779C108.856 279.28 114.288 275.446 121.438 271.542C135.705 263.752 156.298 255.953 179.823 250.055Z" fill="#FFFBFB" stroke="#551923" stroke-width="5"/>
<ellipse cx="185.951" cy="272.194" rx="74.6045" ry="15.8994" transform="rotate(-14.279 185.951 272.194)" fill="#D9D9D9"/>
<ellipse cx="165.5" cy="328.174" rx="7.12007" ry="13.4806" transform="rotate(-18.3392 165.5 328.174)" fill="#D77A83"/>
<mask id="path-12-outside-1_527_87" maskUnits="userSpaceOnUse" x="134.966" y="323.996" width="127.165" height="66.5137" fill="black">
<rect fill="white" x="134.966" y="323.996" width="127.165" height="66.5137"/>
<path d="M141.287 361.678L158.452 355.89L157.152 367.542L154.082 367.342L154.93 359.79L144.894 363.257L150.115 379.183L163.514 373.317L164.5 375.869L148.039 382.792L141.287 361.678ZM161.621 353.213L164.284 352.396L171.426 376.553L168.763 377.371L161.621 353.213ZM173.433 361.496L169.07 363.633L167.79 361.095L174.799 357.714L181.677 373.392L179.044 374.566L173.433 361.496ZM179.047 350.14L182.631 349.173L183.597 352.757L180.013 353.724L179.047 350.14ZM181.204 356.419L183.892 355.694L188.314 372.1L185.626 372.825L181.204 356.419ZM188.828 354.728L201.294 350.439L200.276 359.695L197.456 359.561L198.041 354.233L192.234 356.295L195.805 367.33L204.86 363.298L205.79 365.765L193.968 370.841L188.828 354.728ZM212.885 365.377L210.222 366.194L203.08 342.037L205.743 341.219L210.362 356.877L215.101 346.916L217.578 348.237L213.637 355.994L222.59 360.806L221.154 363.347L210.476 357.178L212.885 365.377ZM221.397 346.379L233.462 341.834L235.305 351.744L228.693 353.526L228.035 351.085L232.051 350.003L231.212 345.291L224.814 347.745L228.589 358.426L238.059 354.216L238.928 356.7L226.875 361.904L221.397 346.379ZM247.602 341.635L243.232 343.741L241.959 341.234L248.969 337.853L255.847 353.531L253.213 354.705L247.602 341.635ZM237.848 340.983L240.511 340.166L245.588 356.661L242.925 357.478L237.848 340.983Z"/>
</mask>
<path d="M141.287 361.678L158.452 355.89L157.152 367.542L154.082 367.342L154.93 359.79L144.894 363.257L150.115 379.183L163.514 373.317L164.5 375.869L148.039 382.792L141.287 361.678ZM161.621 353.213L164.284 352.396L171.426 376.553L168.763 377.371L161.621 353.213ZM173.433 361.496L169.07 363.633L167.79 361.095L174.799 357.714L181.677 373.392L179.044 374.566L173.433 361.496ZM179.047 350.14L182.631 349.173L183.597 352.757L180.013 353.724L179.047 350.14ZM181.204 356.419L183.892 355.694L188.314 372.1L185.626 372.825L181.204 356.419ZM188.828 354.728L201.294 350.439L200.276 359.695L197.456 359.561L198.041 354.233L192.234 356.295L195.805 367.33L204.86 363.298L205.79 365.765L193.968 370.841L188.828 354.728ZM212.885 365.377L210.222 366.194L203.08 342.037L205.743 341.219L210.362 356.877L215.101 346.916L217.578 348.237L213.637 355.994L222.59 360.806L221.154 363.347L210.476 357.178L212.885 365.377ZM221.397 346.379L233.462 341.834L235.305 351.744L228.693 353.526L228.035 351.085L232.051 350.003L231.212 345.291L224.814 347.745L228.589 358.426L238.059 354.216L238.928 356.7L226.875 361.904L221.397 346.379ZM247.602 341.635L243.232 343.741L241.959 341.234L248.969 337.853L255.847 353.531L253.213 354.705L247.602 341.635ZM237.848 340.983L240.511 340.166L245.588 356.661L242.925 357.478L237.848 340.983Z" fill="white"/>
<path d="M141.287 361.678L140.009 357.887L136.277 359.145L137.477 362.896L141.287 361.678ZM158.452 355.89L162.427 356.334L163.123 350.094L157.174 352.1L158.452 355.89ZM157.152 367.542L156.892 371.534L160.704 371.782L161.127 367.986L157.152 367.542ZM154.082 367.342L150.107 366.896L149.64 371.062L153.822 371.334L154.082 367.342ZM154.93 359.79L158.905 360.235L159.611 353.94L153.623 356.009L154.93 359.79ZM144.894 363.257L143.588 359.476L139.867 360.762L141.093 364.503L144.894 363.257ZM150.115 379.183L146.314 380.429L147.686 384.613L151.719 382.847L150.115 379.183ZM163.514 373.317L167.245 371.875L165.739 367.977L161.91 369.653L163.514 373.317ZM164.5 375.869L166.051 379.556L169.632 378.05L168.232 374.427L164.5 375.869ZM148.039 382.792L144.229 384.01L145.561 388.174L149.59 386.479L148.039 382.792ZM141.287 361.678L142.565 365.468L159.73 359.681L158.452 355.89L157.174 352.1L140.009 357.887L141.287 361.678ZM158.452 355.89L154.477 355.447L153.177 367.099L157.152 367.542L161.127 367.986L162.427 356.334L158.452 355.89ZM157.152 367.542L157.412 363.551L154.342 363.351L154.082 367.342L153.822 371.334L156.892 371.534L157.152 367.542ZM154.082 367.342L158.057 367.788L158.905 360.235L154.93 359.79L150.954 359.344L150.107 366.896L154.082 367.342ZM154.93 359.79L153.623 356.009L143.588 359.476L144.894 363.257L146.2 367.038L156.236 363.57L154.93 359.79ZM144.894 363.257L141.093 364.503L146.314 380.429L150.115 379.183L153.916 377.937L148.695 362.011L144.894 363.257ZM150.115 379.183L151.719 382.847L165.119 376.982L163.514 373.317L161.91 369.653L148.511 375.519L150.115 379.183ZM163.514 373.317L159.783 374.759L160.769 377.311L164.5 375.869L168.232 374.427L167.245 371.875L163.514 373.317ZM164.5 375.869L162.95 372.181L146.488 379.105L148.039 382.792L149.59 386.479L166.051 379.556L164.5 375.869ZM148.039 382.792L151.849 381.573L145.097 360.459L141.287 361.678L137.477 362.896L144.229 384.01L148.039 382.792ZM161.621 353.213L160.448 349.389L156.663 350.551L157.786 354.347L161.621 353.213ZM164.284 352.396L168.12 351.262L166.975 347.386L163.111 348.572L164.284 352.396ZM171.426 376.553L172.6 380.377L176.385 379.216L175.262 375.419L171.426 376.553ZM168.763 377.371L164.928 378.505L166.073 382.381L169.937 381.195L168.763 377.371ZM173.433 361.496L177.108 359.918L175.449 356.054L171.673 357.904L173.433 361.496ZM169.07 363.633L165.499 365.435L167.28 368.965L170.83 367.225L169.07 363.633ZM167.79 361.095L166.052 357.492L162.384 359.262L164.219 362.897L167.79 361.095ZM174.799 357.714L178.462 356.107L176.796 352.31L173.061 354.111L174.799 357.714ZM181.677 373.392L183.306 377.046L186.937 375.427L185.34 371.786L181.677 373.392ZM179.044 374.566L175.368 376.144L176.968 379.871L180.672 378.22L179.044 374.566ZM161.621 353.213L162.795 357.037L165.458 356.22L164.284 352.396L163.111 348.572L160.448 349.389L161.621 353.213ZM164.284 352.396L160.449 353.53L167.591 377.687L171.426 376.553L175.262 375.419L168.12 351.262L164.284 352.396ZM171.426 376.553L170.253 372.729L167.59 373.547L168.763 377.371L169.937 381.195L172.6 380.377L171.426 376.553ZM168.763 377.371L172.599 376.237L165.457 352.079L161.621 353.213L157.786 354.347L164.928 378.505L168.763 377.371ZM173.433 361.496L171.673 357.904L167.311 360.041L169.07 363.633L170.83 367.225L175.192 365.088L173.433 361.496ZM169.07 363.633L172.641 361.831L171.361 359.293L167.79 361.095L164.219 362.897L165.499 365.435L169.07 363.633ZM167.79 361.095L169.527 364.698L176.537 361.317L174.799 357.714L173.061 354.111L166.052 357.492L167.79 361.095ZM174.799 357.714L171.136 359.321L178.014 374.999L181.677 373.392L185.34 371.786L178.462 356.107L174.799 357.714ZM181.677 373.392L180.048 369.739L177.415 370.913L179.044 374.566L180.672 378.22L183.306 377.046L181.677 373.392ZM179.044 374.566L182.719 372.988L177.108 359.918L173.433 361.496L169.757 363.074L175.368 376.144L179.044 374.566ZM179.047 350.14L178.006 346.277L174.144 347.319L175.185 351.181L179.047 350.14ZM182.631 349.173L186.493 348.132L185.452 344.27L181.59 345.311L182.631 349.173ZM183.597 352.757L184.638 356.62L188.501 355.578L187.459 351.716L183.597 352.757ZM180.013 353.724L176.151 354.765L177.192 358.627L181.054 357.586L180.013 353.724ZM181.204 356.419L180.163 352.556L176.3 353.598L177.342 357.46L181.204 356.419ZM183.892 355.694L187.754 354.653L186.713 350.791L182.851 351.832L183.892 355.694ZM188.314 372.1L189.356 375.962L193.218 374.921L192.177 371.059L188.314 372.1ZM185.626 372.825L181.764 373.866L182.805 377.728L186.668 376.687L185.626 372.825ZM179.047 350.14L180.088 354.002L183.672 353.035L182.631 349.173L181.59 345.311L178.006 346.277L179.047 350.14ZM182.631 349.173L178.769 350.214L179.735 353.799L183.597 352.757L187.459 351.716L186.493 348.132L182.631 349.173ZM183.597 352.757L182.556 348.895L178.972 349.861L180.013 353.724L181.054 357.586L184.638 356.62L183.597 352.757ZM180.013 353.724L183.875 352.682L182.909 349.098L179.047 350.14L175.185 351.181L176.151 354.765L180.013 353.724ZM181.204 356.419L182.245 360.281L184.933 359.556L183.892 355.694L182.851 351.832L180.163 352.556L181.204 356.419ZM183.892 355.694L180.03 356.735L184.452 373.141L188.314 372.1L192.177 371.059L187.754 354.653L183.892 355.694ZM188.314 372.1L187.273 368.238L184.585 368.963L185.626 372.825L186.668 376.687L189.356 375.962L188.314 372.1ZM185.626 372.825L189.489 371.784L185.066 355.377L181.204 356.419L177.342 357.46L181.764 373.866L185.626 372.825ZM188.828 354.728L187.527 350.945L183.829 352.217L185.018 355.943L188.828 354.728ZM201.294 350.439L205.27 350.877L205.96 344.604L199.993 346.657L201.294 350.439ZM200.276 359.695L200.085 363.691L203.841 363.87L204.252 360.133L200.276 359.695ZM197.456 359.561L193.48 359.124L193.015 363.353L197.265 363.556L197.456 359.561ZM198.041 354.233L202.017 354.67L202.714 348.328L196.702 350.463L198.041 354.233ZM192.234 356.295L190.895 352.526L187.231 353.828L188.428 357.527L192.234 356.295ZM195.805 367.33L191.999 368.562L193.369 372.794L197.432 370.984L195.805 367.33ZM204.86 363.298L208.603 361.887L207.107 357.919L203.233 359.644L204.86 363.298ZM205.79 365.765L207.368 369.441L210.882 367.932L209.533 364.354L205.79 365.765ZM193.968 370.841L190.157 372.057L191.496 376.256L195.546 374.517L193.968 370.841ZM188.828 354.728L190.13 358.51L202.595 354.222L201.294 350.439L199.993 346.657L187.527 350.945L188.828 354.728ZM201.294 350.439L197.318 350.002L196.3 359.258L200.276 359.695L204.252 360.133L205.27 350.877L201.294 350.439ZM200.276 359.695L200.467 355.7L197.646 355.565L197.456 359.561L197.265 363.556L200.085 363.691L200.276 359.695ZM197.456 359.561L201.432 359.998L202.017 354.67L198.041 354.233L194.065 353.796L193.48 359.124L197.456 359.561ZM198.041 354.233L196.702 350.463L190.895 352.526L192.234 356.295L193.573 360.065L199.38 358.002L198.041 354.233ZM192.234 356.295L188.428 357.527L191.999 368.562L195.805 367.33L199.611 366.099L196.039 355.064L192.234 356.295ZM195.805 367.33L197.432 370.984L206.487 366.953L204.86 363.298L203.233 359.644L194.178 363.676L195.805 367.33ZM204.86 363.298L201.117 364.71L202.047 367.177L205.79 365.765L209.533 364.354L208.603 361.887L204.86 363.298ZM205.79 365.765L204.212 362.09L192.39 367.166L193.968 370.841L195.546 374.517L207.368 369.441L205.79 365.765ZM193.968 370.841L197.779 369.626L192.639 353.512L188.828 354.728L185.018 355.943L190.157 372.057L193.968 370.841ZM212.885 365.377L214.059 369.201L217.837 368.041L216.723 364.25L212.885 365.377ZM210.222 366.194L206.387 367.329L207.532 371.204L211.396 370.018L210.222 366.194ZM203.08 342.037L201.907 338.213L198.122 339.374L199.245 343.171L203.08 342.037ZM205.743 341.219L209.58 340.088L208.436 336.209L204.57 337.395L205.743 341.219ZM210.362 356.877L206.525 358.009L209.483 368.035L213.974 358.595L210.362 356.877ZM215.101 346.916L216.983 343.387L213.288 341.416L211.489 345.198L215.101 346.916ZM217.578 348.237L221.144 350.049L222.92 346.552L219.46 344.707L217.578 348.237ZM213.637 355.994L210.071 354.182L208.301 357.667L211.744 359.517L213.637 355.994ZM222.59 360.806L226.073 362.773L228.083 359.216L224.484 357.282L222.59 360.806ZM221.154 363.347L219.153 366.81L222.65 368.831L224.637 365.315L221.154 363.347ZM210.476 357.178L212.477 353.714L203.82 348.712L206.638 358.305L210.476 357.178ZM212.885 365.377L211.712 361.553L209.049 362.371L210.222 366.194L211.396 370.018L214.059 369.201L212.885 365.377ZM210.222 366.194L214.058 365.06L206.916 340.903L203.08 342.037L199.245 343.171L206.387 367.329L210.222 366.194ZM203.08 342.037L204.254 345.861L206.917 345.043L205.743 341.219L204.57 337.395L201.907 338.213L203.08 342.037ZM205.743 341.219L201.907 342.351L206.525 358.009L210.362 356.877L214.199 355.745L209.58 340.088L205.743 341.219ZM210.362 356.877L213.974 358.595L218.713 348.635L215.101 346.916L211.489 345.198L206.75 355.159L210.362 356.877ZM215.101 346.916L213.219 350.446L215.696 351.767L217.578 348.237L219.46 344.707L216.983 343.387L215.101 346.916ZM217.578 348.237L214.012 346.425L210.071 354.182L213.637 355.994L217.203 357.806L221.144 350.049L217.578 348.237ZM213.637 355.994L211.744 359.517L220.697 364.329L222.59 360.806L224.484 357.282L215.531 352.471L213.637 355.994ZM222.59 360.806L219.108 358.838L217.672 361.379L221.154 363.347L224.637 365.315L226.073 362.773L222.59 360.806ZM221.154 363.347L223.155 359.884L212.477 353.714L210.476 357.178L208.475 360.641L219.153 366.81L221.154 363.347ZM210.476 357.178L206.638 358.305L209.048 366.505L212.885 365.377L216.723 364.25L214.314 356.05L210.476 357.178ZM221.397 346.379L219.987 342.636L216.322 344.016L217.625 347.71L221.397 346.379ZM233.462 341.834L237.394 341.103L236.521 336.407L232.052 338.091L233.462 341.834ZM235.305 351.744L236.346 355.606L239.913 354.644L239.237 351.013L235.305 351.744ZM228.693 353.526L224.831 354.567L225.872 358.43L229.734 357.388L228.693 353.526ZM228.035 351.085L226.994 347.223L223.131 348.264L224.173 352.127L228.035 351.085ZM232.051 350.003L233.092 353.865L236.632 352.911L235.989 349.301L232.051 350.003ZM231.212 345.291L235.15 344.589L234.301 339.822L229.78 341.556L231.212 345.291ZM224.814 347.745L223.382 344.01L219.745 345.405L221.043 349.077L224.814 347.745ZM228.589 358.426L224.817 359.759L226.259 363.839L230.213 362.081L228.589 358.426ZM238.059 354.216L241.835 352.896L240.402 348.797L236.434 350.561L238.059 354.216ZM238.927 356.7L240.513 360.372L243.933 358.895L242.703 355.38L238.927 356.7ZM226.875 361.904L223.103 363.235L224.528 367.275L228.46 365.577L226.875 361.904ZM221.397 346.379L222.807 350.122L234.872 345.577L233.462 341.834L232.052 338.091L219.987 342.636L221.397 346.379ZM233.462 341.834L229.529 342.565L231.372 352.475L235.305 351.744L239.237 351.013L237.394 341.103L233.462 341.834ZM235.305 351.744L234.264 347.882L227.652 349.664L228.693 353.526L229.734 357.388L236.346 355.606L235.305 351.744ZM228.693 353.526L232.555 352.485L231.897 350.044L228.035 351.085L224.173 352.127L224.831 354.567L228.693 353.526ZM228.035 351.085L229.076 354.948L233.092 353.865L232.051 350.003L231.01 346.141L226.994 347.223L228.035 351.085ZM232.051 350.003L235.989 349.301L235.15 344.589L231.212 345.291L227.274 345.992L228.113 350.704L232.051 350.003ZM231.212 345.291L229.78 341.556L223.382 344.01L224.814 347.745L226.247 351.479L232.644 349.025L231.212 345.291ZM224.814 347.745L221.043 349.077L224.817 359.759L228.589 358.426L232.36 357.094L228.586 346.412L224.814 347.745ZM228.589 358.426L230.213 362.081L239.684 357.871L238.059 354.216L236.434 350.561L226.964 354.771L228.589 358.426ZM238.059 354.216L234.283 355.536L235.152 358.02L238.927 356.7L242.703 355.38L241.835 352.896L238.059 354.216ZM238.927 356.7L237.342 353.027L225.289 358.232L226.875 361.904L228.46 365.577L240.513 360.372L238.927 356.7ZM226.875 361.904L230.647 360.573L225.169 345.048L221.397 346.379L217.625 347.71L223.103 363.235L226.875 361.904ZM247.602 341.635L251.278 340.057L249.629 336.217L245.866 338.031L247.602 341.635ZM243.232 343.741L239.665 345.551L241.438 349.045L244.968 347.344L243.232 343.741ZM241.959 341.234L240.221 337.631L236.545 339.404L238.392 343.044L241.959 341.234ZM248.969 337.853L252.632 336.246L250.966 332.448L247.231 334.25L248.969 337.853ZM255.847 353.531L257.475 357.184L261.107 355.565L259.51 351.924L255.847 353.531ZM253.213 354.705L249.538 356.283L251.138 360.009L254.842 358.358L253.213 354.705ZM237.848 340.983L236.675 337.159L232.848 338.333L234.025 342.159L237.848 340.983ZM240.511 340.166L244.334 338.989L243.159 335.169L239.338 336.342L240.511 340.166ZM245.588 356.661L246.761 360.485L250.588 359.31L249.411 355.484L245.588 356.661ZM242.925 357.478L239.102 358.655L240.277 362.475L244.098 361.302L242.925 357.478ZM247.602 341.635L245.866 338.031L241.495 340.137L243.232 343.741L244.968 347.344L249.339 345.238L247.602 341.635ZM243.232 343.741L246.799 341.931L245.526 339.423L241.959 341.234L238.392 343.044L239.665 345.551L243.232 343.741ZM241.959 341.234L243.697 344.836L250.707 341.455L248.969 337.853L247.231 334.25L240.221 337.631L241.959 341.234ZM248.969 337.853L245.306 339.459L252.184 355.138L255.847 353.531L259.51 351.924L252.632 336.246L248.969 337.853ZM255.847 353.531L254.218 349.877L251.585 351.051L253.213 354.705L254.842 358.358L257.475 357.184L255.847 353.531ZM253.213 354.705L256.889 353.127L251.278 340.057L247.602 341.635L243.926 343.213L249.538 356.283L253.213 354.705ZM237.848 340.983L239.022 344.807L241.685 343.99L240.511 340.166L239.338 336.342L236.675 337.159L237.848 340.983ZM240.511 340.166L236.688 341.342L241.765 357.837L245.588 356.661L249.411 355.484L244.334 338.989L240.511 340.166ZM245.588 356.661L244.414 352.837L241.751 353.654L242.925 357.478L244.098 361.302L246.761 360.485L245.588 356.661ZM242.925 357.478L246.748 356.302L241.671 339.806L237.848 340.983L234.025 342.159L239.102 358.655L242.925 357.478Z" fill="black" mask="url(#path-12-outside-1_527_87)"/>
<path d="M71 217.138C69.5 216.638 68 220.638 66.5 221.638C65.6667 223.971 64 228.938 64 230.138C64 231.638 65.5 234.638 66 235.138C66.5 235.638 68 237.638 68.5 238.138C68.9 238.538 71.3333 239.304 72.5 239.638H77L77.5 238.138L77 235.638L80 227.638L80.5 225.638L79.5 220.638C78.6667 219.804 77 217.938 77 217.138C77 216.138 72.5 217.638 71 217.138Z" fill="#E1B054"/>
<path d="M112.5 124.138C111.3 125.338 102.667 129.638 98.5 131.638L98 141.638L92.5 151.138L89.5 166.638L98.5 180.638L100 184.138L108 185.638L118.5 178.138L132 165.638L138.5 152.138L138 144.638L140 135.638L137 126.638L136 119.638L133 117.638H129.5C127.5 117.638 121.333 119.304 118.5 120.138C117 120.971 113.7 122.938 112.5 124.138Z" fill="#E1B054"/>
<path d="M165 122.638C164.5 123.138 163.4 124.338 163 125.138C163.667 127.971 164.9 133.738 164.5 134.138C164 134.638 165 136.138 165.5 136.638C165.9 137.038 167.333 136.471 168 136.138L171.5 132.138C172 131.138 173 129.038 173 128.638V126.638C173 126.471 172.9 126.038 172.5 125.638C172.1 125.238 172 124.138 172 123.638C171.333 123.638 169.7 123.538 168.5 123.138C167.3 122.738 165.667 122.638 165 122.638Z" fill="#E1B054"/>
<path d="M201.5 117.138C202 116.304 203.2 114.538 204 114.138L208.5 115.138H211H213.5L217 116.638L226 124.638C226.667 129.638 228.1 139.938 228.5 141.138C229 142.638 225 149.638 224 150.638C223 151.638 223.5 153.138 223 153.638C222.5 154.138 221 154.138 220.5 154.138C220 154.138 218 149.638 216 147.138C214.4 145.138 209.667 142.304 207.5 141.138L199.5 137.638C199.167 135.804 198.5 132.038 198.5 131.638C198.5 131.238 197.5 129.138 197 128.138C197.5 127.304 198.6 125.438 199 124.638C199.5 123.638 201.5 122.138 201.5 121.138V117.138Z" fill="#E1B054"/>
<path d="M178.5 164.638C177.667 165.471 175.7 167.338 174.5 168.138L166.5 173.138L165.5 181.138L162.5 188.638C163.167 190.471 164.5 194.238 164.5 194.638C164.5 195.038 163.167 199.804 162.5 202.138H182.5L186.5 195.138L192 191.138L198 190.638L205 176.638C204 175.304 201.8 172.638 201 172.638C200.2 172.638 199.333 169.971 199 168.638L196.5 166.138L195 165.638L185.5 168.138C184.5 168.304 182.4 168.538 182 168.138C181.6 167.738 181.167 166.638 181 166.138L178.5 164.638Z" fill="#E1B054"/>
<path d="M232.5 181.638C232 181.138 228.5 183.638 228.5 184.138L231 191.138C231.167 192.304 231.5 194.838 231.5 195.638C231.5 196.438 232.5 197.638 233 198.138C235.5 197.304 240.6 195.638 241 195.638C241.5 195.638 242.5 192.638 242.5 192.138C242.5 191.638 244.5 189.138 245 188.638C245.5 188.138 245 187.138 244.5 187.138C244 187.138 242.5 186.638 241.5 186.638H238C237.5 186.638 236.5 186.138 236.5 185.638C236.5 185.138 235 184.138 234.5 183.138C234 182.138 233 182.138 232.5 181.638Z" fill="#E1B054"/>
<path d="M155.5 223.138C156 221.638 157 220.638 157.5 219.638C158.333 219.804 160.1 220.238 160.5 220.638L162 222.138C162.5 222.638 162 223.638 161.5 224.138C161 224.638 161.5 226.138 161 227.138C160.5 228.138 158 228.138 157 228.138C156 228.138 155 228.638 154.5 228.138C154 227.638 154 227.138 154 226.638C154 226.138 155 224.638 155.5 223.138Z" fill="#E1B054"/>
<path d="M103 213.138C102.5 214.638 99.5 216.138 98 217.138L98.5 224.138L99.5 225.138L102 229.138L102.5 233.638L102 235.638L98.5 240.638L98 245.138L99.5 249.138L105 250.638L126 244.138L135 238.638L138 233.138L142.5 219.638L143 214.138L138.5 206.638L136.5 199.138C135.833 198.638 134.4 197.538 134 197.138C133.5 196.638 132 198.138 130.5 198.638C129.3 199.038 125 198.804 123 198.638L116.5 199.638L112 201.638C110.5 202.304 107.1 203.738 105.5 204.138C103.5 204.638 104 207.638 104 208.638C104 209.638 103.5 211.638 103 213.138Z" fill="#E1B054"/>
<path d="M128 275.138C129.667 274.138 133.3 271.938 134.5 271.138L151 263.638L157 255.138L161.5 245.138L171 240.138L176 236.638L185 237.138L187.5 235.138H197.5L211.5 230.138L218.5 221.638L226 217.138L231.5 218.638L237 221.638L238 225.138L244.5 224.138L252.5 223.138L263.5 231.638L262 243.138L261.5 257.638C256 261.138 244.9 268.138 244.5 268.138C244.1 268.138 236.333 270.804 232.5 272.138L210 279.138L185.5 286.138L163 291.138L142.5 296.138L119.5 296.638L118 295.638L117 289.138L119.5 286.138L121 283.638L125 280.138L128 275.138Z" fill="#E1B054"/>
<path d="M71 217.138C69.5 216.638 68 220.638 66.5 221.638C65.6667 223.971 64 228.938 64 230.138C64 231.638 65.5 234.638 66 235.138C66.5 235.638 68 237.638 68.5 238.138C68.9 238.538 71.3333 239.304 72.5 239.638H77L77.5 238.138L77 235.638L80 227.638L80.5 225.638L79.5 220.638C78.6667 219.804 77 217.938 77 217.138C77 216.138 72.5 217.638 71 217.138Z" stroke="#E1B054"/>
<path d="M112.5 124.138C111.3 125.338 102.667 129.638 98.5 131.638L98 141.638L92.5 151.138L89.5 166.638L98.5 180.638L100 184.138L108 185.638L118.5 178.138L132 165.638L138.5 152.138L138 144.638L140 135.638L137 126.638L136 119.638L133 117.638H129.5C127.5 117.638 121.333 119.304 118.5 120.138C117 120.971 113.7 122.938 112.5 124.138Z" stroke="#E1B054"/>
<path d="M165 122.638C164.5 123.138 163.4 124.338 163 125.138C163.667 127.971 164.9 133.738 164.5 134.138C164 134.638 165 136.138 165.5 136.638C165.9 137.038 167.333 136.471 168 136.138L171.5 132.138C172 131.138 173 129.038 173 128.638V126.638C173 126.471 172.9 126.038 172.5 125.638C172.1 125.238 172 124.138 172 123.638C171.333 123.638 169.7 123.538 168.5 123.138C167.3 122.738 165.667 122.638 165 122.638Z" stroke="#E1B054"/>
<path d="M201.5 117.138C202 116.304 203.2 114.538 204 114.138L208.5 115.138H211H213.5L217 116.638L226 124.638C226.667 129.638 228.1 139.938 228.5 141.138C229 142.638 225 149.638 224 150.638C223 151.638 223.5 153.138 223 153.638C222.5 154.138 221 154.138 220.5 154.138C220 154.138 218 149.638 216 147.138C214.4 145.138 209.667 142.304 207.5 141.138L199.5 137.638C199.167 135.804 198.5 132.038 198.5 131.638C198.5 131.238 197.5 129.138 197 128.138C197.5 127.304 198.6 125.438 199 124.638C199.5 123.638 201.5 122.138 201.5 121.138V117.138Z" stroke="#E1B054"/>
<path d="M178.5 164.638C177.667 165.471 175.7 167.338 174.5 168.138L166.5 173.138L165.5 181.138L162.5 188.638C163.167 190.471 164.5 194.238 164.5 194.638C164.5 195.038 163.167 199.804 162.5 202.138H182.5L186.5 195.138L192 191.138L198 190.638L205 176.638C204 175.304 201.8 172.638 201 172.638C200.2 172.638 199.333 169.971 199 168.638L196.5 166.138L195 165.638L185.5 168.138C184.5 168.304 182.4 168.538 182 168.138C181.6 167.738 181.167 166.638 181 166.138L178.5 164.638Z" stroke="#E1B054"/>
<path d="M232.5 181.638C232 181.138 228.5 183.638 228.5 184.138L231 191.138C231.167 192.304 231.5 194.838 231.5 195.638C231.5 196.438 232.5 197.638 233 198.138C235.5 197.304 240.6 195.638 241 195.638C241.5 195.638 242.5 192.638 242.5 192.138C242.5 191.638 244.5 189.138 245 188.638C245.5 188.138 245 187.138 244.5 187.138C244 187.138 242.5 186.638 241.5 186.638H238C237.5 186.638 236.5 186.138 236.5 185.638C236.5 185.138 235 184.138 234.5 183.138C234 182.138 233 182.138 232.5 181.638Z" stroke="#E1B054"/>
<path d="M155.5 223.138C156 221.638 157 220.638 157.5 219.638C158.333 219.804 160.1 220.238 160.5 220.638L162 222.138C162.5 222.638 162 223.638 161.5 224.138C161 224.638 161.5 226.138 161 227.138C160.5 228.138 158 228.138 157 228.138C156 228.138 155 228.638 154.5 228.138C154 227.638 154 227.138 154 226.638C154 226.138 155 224.638 155.5 223.138Z" stroke="#E1B054"/>
<path d="M103 213.138C102.5 214.638 99.5 216.138 98 217.138L98.5 224.138L99.5 225.138L102 229.138L102.5 233.638L102 235.638L98.5 240.638L98 245.138L99.5 249.138L105 250.638L126 244.138L135 238.638L138 233.138L142.5 219.638L143 214.138L138.5 206.638L136.5 199.138C135.833 198.638 134.4 197.538 134 197.138C133.5 196.638 132 198.138 130.5 198.638C129.3 199.038 125 198.804 123 198.638L116.5 199.638L112 201.638C110.5 202.304 107.1 203.738 105.5 204.138C103.5 204.638 104 207.638 104 208.638C104 209.638 103.5 211.638 103 213.138Z" stroke="#E1B054"/>
<path d="M128 275.138C129.667 274.138 133.3 271.938 134.5 271.138L151 263.638L157 255.138L161.5 245.138L171 240.138L176 236.638L185 237.138L187.5 235.138H197.5L211.5 230.138L218.5 221.638L226 217.138L231.5 218.638L237 221.638L238 225.138L244.5 224.138L252.5 223.138L263.5 231.638L262 243.138L261.5 257.638C256 261.138 244.9 268.138 244.5 268.138C244.1 268.138 236.333 270.804 232.5 272.138L210 279.138L185.5 286.138L163 291.138L142.5 296.138L119.5 296.638L118 295.638L117 289.138L119.5 286.138L121 283.638L125 280.138L128 275.138Z" stroke="#E1B054"/>
<path d="M228.671 215.864C228.675 215.847 228.691 215.819 228.716 215.772C228.732 215.743 228.704 215.723 228.698 215.708C228.695 215.699 228.691 215.686 228.692 215.667C228.694 215.642 228.722 215.618 228.734 215.598C228.742 215.584 228.747 215.567 228.761 215.553C228.767 215.546 228.778 215.545 228.785 215.538C228.792 215.532 228.782 215.52 228.776 215.513C228.765 215.499 228.738 215.5 228.719 215.492C228.683 215.475 228.602 215.486 228.578 215.492C228.554 215.499 228.523 215.507 228.499 215.515C228.479 215.523 228.462 215.528 228.444 215.535C228.421 215.545 228.401 215.542 228.385 215.55C228.365 215.561 228.343 215.562 228.326 215.567C228.307 215.573 228.285 215.573 228.256 215.582C228.228 215.59 228.179 215.607 228.137 215.617C228.105 215.625 228.086 215.624 228.068 215.629C228.046 215.636 228.019 215.636 227.995 215.644C227.968 215.654 227.936 215.654 227.907 215.661C227.879 215.667 227.843 215.68 227.807 215.69C227.772 215.7 227.748 215.706 227.732 215.712C227.712 215.718 227.693 215.721 227.677 215.73C227.67 215.734 227.658 215.738 227.644 215.742C227.638 215.744 227.634 215.745 227.626 215.751" stroke="#551923" stroke-width="2" stroke-linecap="round"/>
<path d="M107.5 182.638C105.333 181.471 100.9 179.138 100.5 179.138H98.5L99 183.638C101.667 184.471 107.1 186.138 107.5 186.138C107.9 186.138 114.667 181.138 118 178.638L128.5 169.138L137.5 153.138L138.5 144.138L140 133.138L137.5 122.138C137 120.804 135.9 118.038 135.5 117.638C135.1 117.238 131.667 116.804 130 116.638L128 117.638L134.5 120.138C135.167 123.138 136.3 129.238 135.5 129.638C134.5 130.138 135.5 135.638 136.5 136.638C137.3 137.438 136.5 144.638 136 148.138C134.667 151.638 131.9 158.738 131.5 159.138C131.1 159.538 126.667 165.638 124.5 168.638C121.167 171.304 113.7 177.038 110.5 178.638C107.3 180.238 107.167 181.971 107.5 182.638Z" fill="#BB894A"/>
<path d="M172.5 129.638C172.5 129.138 165.5 133.138 165 133.638C164.833 134.638 164.6 136.638 165 136.638C165.5 136.638 169.5 135.138 170.5 134.638C171.5 134.138 172.5 130.138 172.5 129.638Z" fill="#BB894A"/>
<path d="M234 186.138C233.167 185.138 231.5 183.038 231.5 182.638C232 182.471 233.2 182.238 234 182.638C235 183.138 234.5 183.138 235 183.638L237 185.638C237.5 186.138 238 186.138 239.5 186.138H243.5C245.1 186.138 245.167 187.138 245 187.638C244.5 187.804 243.3 188.238 242.5 188.638C241.5 189.138 240 188.638 239.5 188.638C239 188.638 237 188.138 236.5 187.638C236.1 187.238 234.667 186.471 234 186.138Z" fill="#BB894A"/>
<path d="M205.5 124.638L205 122.138C205 121.971 205.4 121.638 207 121.638H207.5C207.667 121.971 208.4 122.938 210 124.138C212 125.638 210.5 125.138 211 125.638C211.4 126.038 212.833 126.138 213.5 126.138L215 124.138C215.333 123.638 216.1 122.538 216.5 122.138C216.9 121.738 217.333 122.638 217.5 123.138C217.333 123.804 217 125.238 217 125.638C217 126.138 216.5 126.638 216 127.138C215.5 127.638 213 128.138 213 128.638C213 129.038 211.667 128.471 211 128.138L207 126.138C206.2 125.738 205.667 124.971 205.5 124.638Z" fill="#BB894A"/>
<path d="M107.5 182.638C105.333 181.471 100.9 179.138 100.5 179.138H98.5L99 183.638C101.667 184.471 107.1 186.138 107.5 186.138C107.9 186.138 114.667 181.138 118 178.638L128.5 169.138L137.5 153.138L138.5 144.138L140 133.138L137.5 122.138C137 120.804 135.9 118.038 135.5 117.638C135.1 117.238 131.667 116.804 130 116.638L128 117.638L134.5 120.138C135.167 123.138 136.3 129.238 135.5 129.638C134.5 130.138 135.5 135.638 136.5 136.638C137.3 137.438 136.5 144.638 136 148.138C134.667 151.638 131.9 158.738 131.5 159.138C131.1 159.538 126.667 165.638 124.5 168.638C121.167 171.304 113.7 177.038 110.5 178.638C107.3 180.238 107.167 181.971 107.5 182.638Z" stroke="#BB894A"/>
<path d="M172.5 129.638C172.5 129.138 165.5 133.138 165 133.638C164.833 134.638 164.6 136.638 165 136.638C165.5 136.638 169.5 135.138 170.5 134.638C171.5 134.138 172.5 130.138 172.5 129.638Z" stroke="#BB894A"/>
<path d="M234 186.138C233.167 185.138 231.5 183.038 231.5 182.638C232 182.471 233.2 182.238 234 182.638C235 183.138 234.5 183.138 235 183.638L237 185.638C237.5 186.138 238 186.138 239.5 186.138H243.5C245.1 186.138 245.167 187.138 245 187.638C244.5 187.804 243.3 188.238 242.5 188.638C241.5 189.138 240 188.638 239.5 188.638C239 188.638 237 188.138 236.5 187.638C236.1 187.238 234.667 186.471 234 186.138Z" stroke="#BB894A"/>
<path d="M205.5 124.638L205 122.138C205 121.971 205.4 121.638 207 121.638H207.5C207.667 121.971 208.4 122.938 210 124.138C212 125.638 210.5 125.138 211 125.638C211.4 126.038 212.833 126.138 213.5 126.138L215 124.138C215.333 123.638 216.1 122.538 216.5 122.138C216.9 121.738 217.333 122.638 217.5 123.138C217.333 123.804 217 125.238 217 125.638C217 126.138 216.5 126.638 216 127.138C215.5 127.638 213 128.138 213 128.638C213 129.038 211.667 128.471 211 128.138L207 126.138C206.2 125.738 205.667 124.971 205.5 124.638Z" stroke="#BB894A"/>
<path d="M215 143.138H212C213.333 144.804 216 148.238 216 148.638C216 149.038 217.333 150.471 218 151.138C218.667 151.971 220.3 153.738 221.5 154.138C223 154.638 222.5 154.138 222.5 153.638C222.5 153.238 224.167 151.138 225 150.138C225.833 148.471 227.5 145.038 227.5 144.638C227.5 144.138 228.5 141.638 228.5 141.138C228.5 140.637 228 138.638 227.5 138.138C227 137.638 226 138.138 226 138.638C226 139.138 224.5 140.638 224 141.138C223.5 141.638 222.5 144.638 222.5 145.138C222.5 145.638 222 146.638 221.5 147.638C221.1 148.438 220 147.971 219.5 147.638L218 145.138L217 143.138H215Z" fill="#BB894A"/>
<path d="M184 199.638C177.5 199.804 164.2 200.138 163 200.138C162.5 200.804 161.5 202.238 161.5 202.638C161.5 203.138 168 203.638 169.5 203.138C170.7 202.738 178.667 202.638 182.5 202.638L184 199.638Z" fill="#BB894A"/>
<path d="M195 191.138L204.5 175.138L206 176.638C203.833 181.304 199.4 190.638 199 190.638C198.6 190.638 196.167 190.971 195 191.138Z" fill="#BB894A"/>
<path d="M188 177.138C188 176.638 184 181.638 183.5 182.638C183.667 182.971 184.1 183.638 184.5 183.638C184.9 183.638 186.667 182.304 187.5 181.638C187.667 180.304 188 177.538 188 177.138Z" fill="#BB894A"/>
<path d="M130.5 212.638C130.5 211.838 124.833 211.638 122 211.638C123.667 213.304 127.5 216.538 129.5 216.138C132 215.638 130.5 213.638 130.5 212.638Z" fill="#BB894A"/>
<path d="M137 230.638L141.5 211.638L144 214.138L140.5 226.638L137 237.638L127 244.138C124.833 244.971 120.1 246.738 118.5 247.138C116.9 247.538 109.5 248.971 106 249.638L118 243.138L125.5 241.138L134.5 236.138L137 230.638Z" fill="#BB894A"/>
<path d="M68.5 234.138C68.1 233.338 66 231.471 65 230.638L68.5 238.138C70.1667 238.638 73.7 239.638 74.5 239.638C75.5 239.638 77.5 238.638 77.5 238.138C77.5 237.638 76 237.138 74 237.138C72.4 237.138 71.3333 236.804 71 236.638C70.3333 236.138 68.9 234.938 68.5 234.138Z" fill="#BB894A"/>
<path d="M152.5 267.638L155 264.138L157.5 264.638C157.333 265.471 156.9 267.338 156.5 268.138C156 269.138 155 271.638 154.5 273.138C154 274.638 153.5 276.138 153 277.138C152.5 278.138 154 281.138 154 283.138C154 285.138 155.5 285.638 156.5 286.138C157.5 286.638 160 289.138 161 289.638C161.8 290.038 163.667 291.138 164.5 291.638L157.5 293.138L154.5 291.638C153.5 290.304 151.4 287.538 151 287.138C150.6 286.738 150.5 283.304 150.5 281.638C150.333 279.971 150.1 276.338 150.5 275.138C150.9 273.938 152 269.638 152.5 267.638Z" fill="#BB894A"/>
<path d="M215 143.138H212C213.333 144.804 216 148.238 216 148.638C216 149.038 217.333 150.471 218 151.138C218.667 151.971 220.3 153.738 221.5 154.138C223 154.638 222.5 154.138 222.5 153.638C222.5 153.238 224.167 151.138 225 150.138C225.833 148.471 227.5 145.038 227.5 144.638C227.5 144.138 228.5 141.638 228.5 141.138C228.5 140.637 228 138.638 227.5 138.138C227 137.638 226 138.138 226 138.638C226 139.138 224.5 140.638 224 141.138C223.5 141.638 222.5 144.638 222.5 145.138C222.5 145.638 222 146.638 221.5 147.638C221.1 148.438 220 147.971 219.5 147.638L218 145.138L217 143.138H215Z" stroke="#BB894A"/>
<path d="M184 199.638C177.5 199.804 164.2 200.138 163 200.138C162.5 200.804 161.5 202.238 161.5 202.638C161.5 203.138 168 203.638 169.5 203.138C170.7 202.738 178.667 202.638 182.5 202.638L184 199.638Z" stroke="#BB894A"/>
<path d="M195 191.138L204.5 175.138L206 176.638C203.833 181.304 199.4 190.638 199 190.638C198.6 190.638 196.167 190.971 195 191.138Z" stroke="#BB894A"/>
<path d="M188 177.138C188 176.638 184 181.638 183.5 182.638C183.667 182.971 184.1 183.638 184.5 183.638C184.9 183.638 186.667 182.304 187.5 181.638C187.667 180.304 188 177.538 188 177.138Z" stroke="#BB894A"/>
<path d="M130.5 212.638C130.5 211.838 124.833 211.638 122 211.638C123.667 213.304 127.5 216.538 129.5 216.138C132 215.638 130.5 213.638 130.5 212.638Z" stroke="#BB894A"/>
<path d="M137 230.638L141.5 211.638L144 214.138L140.5 226.638L137 237.638L127 244.138C124.833 244.971 120.1 246.738 118.5 247.138C116.9 247.538 109.5 248.971 106 249.638L118 243.138L125.5 241.138L134.5 236.138L137 230.638Z" stroke="#BB894A"/>
<path d="M68.5 234.138C68.1 233.338 66 231.471 65 230.638L68.5 238.138C70.1667 238.638 73.7 239.638 74.5 239.638C75.5 239.638 77.5 238.638 77.5 238.138C77.5 237.638 76 237.138 74 237.138C72.4 237.138 71.3333 236.804 71 236.638C70.3333 236.138 68.9 234.938 68.5 234.138Z" stroke="#BB894A"/>
<path d="M152.5 267.638L155 264.138L157.5 264.638C157.333 265.471 156.9 267.338 156.5 268.138C156 269.138 155 271.638 154.5 273.138C154 274.638 153.5 276.138 153 277.138C152.5 278.138 154 281.138 154 283.138C154 285.138 155.5 285.638 156.5 286.138C157.5 286.638 160 289.138 161 289.638C161.8 290.038 163.667 291.138 164.5 291.638L157.5 293.138L154.5 291.638C153.5 290.304 151.4 287.538 151 287.138C150.6 286.738 150.5 283.304 150.5 281.638C150.333 279.971 150.1 276.338 150.5 275.138C150.9 273.938 152 269.638 152.5 267.638Z" stroke="#BB894A"/>
<path d="M223.5 258.138L220 254.138L223.5 253.377C225 254.797 228 257.738 228 258.138C228 258.538 229.667 261.304 230.5 262.638C230.333 265.138 230 270.238 230 270.638C230 271.038 226.333 274.471 224.5 276.138C219.333 277.471 208.9 280.138 208.5 280.138C208 280.138 215 276.638 216 276.138C216.8 275.738 221.333 273.638 223.5 272.638L226 268.138V263.638L223.5 258.138Z" fill="#BB894A"/>
<path d="M219 245.138C219.4 243.538 216.5 245.804 215 247.138L218.5 250.138C218.5 249.138 218.6 246.738 219 245.138Z" fill="#BB894A"/>
<path d="M167.5 255.638C167 255.638 166.5 258.638 165.5 259.138H173C175.833 257.638 182 254.338 184 253.138C186 251.938 186.833 250.971 187 250.638L183.5 251.138C181.667 252.138 177.7 254.338 176.5 255.138C175 256.138 173 255.138 172 254.638C171 254.138 168 255.638 167.5 255.638Z" fill="#BB894A"/>
<path d="M200.5 246.138C199.333 246.471 196.9 247.138 196.5 247.138C196.5 247.471 196.7 248.238 197.5 248.638C198.5 249.138 199.5 248.638 200.5 248.138C201.5 247.638 202 247.638 204 247.138C206 246.638 205.5 245.638 205 245.138L205 245.138C204.5 244.638 204 244.138 202 245.638C201.2 246.038 200.667 246.138 200.5 246.138Z" fill="#BB894A"/>
<path d="M209.5 238.138C209.5 234.638 205.5 236.138 203 234.638L206 233.138L208.5 234.638C209 234.638 210 234.738 210 235.138C210 235.638 211 235.638 211.5 237.138C211.5 238.138 211.5 238.138 212 240.138C212.5 242.138 212.5 241.138 212 242.138C211.5 243.138 211 243.638 210.5 243.638H209C209.167 242.971 209.5 240.938 209.5 238.138Z" fill="#BB894A"/>
<path d="M248.5 255.138C244.5 255.638 247 254.138 246.5 253.638H246C248.667 253.551 254.654 253.377 257.271 253.377C260.543 253.377 258.5 253.638 259.5 254.138C260.3 254.538 261.5 256.304 262 257.138C260.5 258.471 257.3 261.338 256.5 262.138C255.5 263.138 243 268.638 242.5 269.138C242.1 269.538 238 270.971 236 271.638L229.5 272.638C238.167 267.971 255.8 258.438 257 257.638C258.2 256.838 257.167 255.971 256.5 255.638C255.167 255.304 251.7 254.738 248.5 255.138Z" fill="#BB894A"/>
<path d="M244.5 238.638C243.5 238.138 243.5 238.138 243 238.138V239.138C243.333 239.304 244.1 239.838 244.5 240.638C245 241.638 245 242.138 245 242.638C245 243.138 247 244.638 248 246.138C249 247.638 248 246.638 248.5 247.638C249 248.638 248.5 248.638 249.5 251.138C250 251.638 250.5 251.638 252.5 252.138C254.5 252.638 254.5 252.138 256.5 251.638C258.5 251.138 260 252.138 260.5 252.638C261 253.138 260.5 251.638 260.5 251.138C260.5 250.638 259 250.138 258.5 249.638C258 249.138 253 250.638 252.5 250.138C252 249.638 252 250.138 251.5 249.638C251 249.138 251 248.638 250.5 248.138C250 247.638 250 246.638 250 246.138C250 245.738 249 243.638 248.5 242.638C247.5 241.471 245.3 239.038 244.5 238.638Z" fill="#BB894A"/>
<path d="M261.5 231.138C261.5 229.638 259.5 229.638 259 229.138L259.5 228.638C259.667 228.471 260.1 228.138 260.5 228.138C261 228.138 261.5 228.638 262 229.138C262.5 229.638 263 229.638 263.5 230.638C264 231.638 264 231.138 264 231.638V233.138C264 234.138 264 236.638 263.5 236.638C263 236.638 263.5 238.638 263.5 239.638C263.5 240.438 262.833 239.638 262.5 239.138C262.333 238.638 262 237.538 262 237.138V234.638C262 232.638 261.5 232.638 261.5 231.138Z" fill="#BB894A"/>
<path d="M223.5 258.138L220 254.138L223.5 253.377C225 254.797 228 257.738 228 258.138C228 258.538 229.667 261.304 230.5 262.638C230.333 265.138 230 270.238 230 270.638C230 271.038 226.333 274.471 224.5 276.138C219.333 277.471 208.9 280.138 208.5 280.138C208 280.138 215 276.638 216 276.138C216.8 275.738 221.333 273.638 223.5 272.638L226 268.138V263.638L223.5 258.138Z" stroke="#BB894A"/>
<path d="M219 245.138C219.4 243.538 216.5 245.804 215 247.138L218.5 250.138C218.5 249.138 218.6 246.738 219 245.138Z" stroke="#BB894A"/>
<path d="M167.5 255.638C167 255.638 166.5 258.638 165.5 259.138H173C175.833 257.638 182 254.338 184 253.138C186 251.938 186.833 250.971 187 250.638L183.5 251.138C181.667 252.138 177.7 254.338 176.5 255.138C175 256.138 173 255.138 172 254.638C171 254.138 168 255.638 167.5 255.638Z" stroke="#BB894A"/>
<path d="M200.5 246.138C199.333 246.471 196.9 247.138 196.5 247.138C196.5 247.471 196.7 248.238 197.5 248.638C198.5 249.138 199.5 248.638 200.5 248.138C201.5 247.638 202 247.638 204 247.138C206 246.638 205.5 245.638 205 245.138L205 245.138C204.5 244.638 204 244.138 202 245.638C201.2 246.038 200.667 246.138 200.5 246.138Z" stroke="#BB894A"/>
<path d="M209.5 238.138C209.5 234.638 205.5 236.138 203 234.638L206 233.138L208.5 234.638C209 234.638 210 234.738 210 235.138C210 235.638 211 235.638 211.5 237.138C211.5 238.138 211.5 238.138 212 240.138C212.5 242.138 212.5 241.138 212 242.138C211.5 243.138 211 243.638 210.5 243.638H209C209.167 242.971 209.5 240.938 209.5 238.138Z" stroke="#BB894A"/>
<path d="M248.5 255.138C244.5 255.638 247 254.138 246.5 253.638H246C248.667 253.551 254.654 253.377 257.271 253.377C260.543 253.377 258.5 253.638 259.5 254.138C260.3 254.538 261.5 256.304 262 257.138C260.5 258.471 257.3 261.338 256.5 262.138C255.5 263.138 243 268.638 242.5 269.138C242.1 269.538 238 270.971 236 271.638L229.5 272.638C238.167 267.971 255.8 258.438 257 257.638C258.2 256.838 257.167 255.971 256.5 255.638C255.167 255.304 251.7 254.738 248.5 255.138Z" stroke="#BB894A"/>
<path d="M244.5 238.638C243.5 238.138 243.5 238.138 243 238.138V239.138C243.333 239.304 244.1 239.838 244.5 240.638C245 241.638 245 242.138 245 242.638C245 243.138 247 244.638 248 246.138C249 247.638 248 246.638 248.5 247.638C249 248.638 248.5 248.638 249.5 251.138C250 251.638 250.5 251.638 252.5 252.138C254.5 252.638 254.5 252.138 256.5 251.638C258.5 251.138 260 252.138 260.5 252.638C261 253.138 260.5 251.638 260.5 251.138C260.5 250.638 259 250.138 258.5 249.638C258 249.138 253 250.638 252.5 250.138C252 249.638 252 250.138 251.5 249.638C251 249.138 251 248.638 250.5 248.138C250 247.638 250 246.638 250 246.138C250 245.738 249 243.638 248.5 242.638C247.5 241.471 245.3 239.038 244.5 238.638Z" stroke="#BB894A"/>
<path d="M261.5 231.138C261.5 229.638 259.5 229.638 259 229.138L259.5 228.638C259.667 228.471 260.1 228.138 260.5 228.138C261 228.138 261.5 228.638 262 229.138C262.5 229.638 263 229.638 263.5 230.638C264 231.638 264 231.138 264 231.638V233.138C264 234.138 264 236.638 263.5 236.638C263 236.638 263.5 238.638 263.5 239.638C263.5 240.438 262.833 239.638 262.5 239.138C262.333 238.638 262 237.538 262 237.138V234.638C262 232.638 261.5 232.638 261.5 231.138Z" stroke="#BB894A"/>
<path d="M97.5 175.138L95.5 176.638L89.5 166.638L92 151.638L97 143.138L97.5 133.638L104.5 128.638L121 118.138L130.5 117.138L124 120.138L121 121.638L116.5 123.638L107.5 129.638L101.5 133.138L100.5 137.138L99.5 143.638L98 148.138L94.5 152.138L92.5 166.638L95 171.638L97.5 175.138Z" fill="#E7CAA8"/>
<path d="M106.5 249.638L105.5 250.638L100.5 249.638L98 246.638L99 240.138L101.5 236.138V230.138L98 226.138L97.5 217.638L103 212.638L104.5 204.138L113 199.638L133 196.638L135.5 197.638L136.5 198.638V201.638L132 199.638C129.833 199.804 125.4 200.138 125 200.138H119.5L113.5 202.638C112.667 203.304 110.9 204.738 110.5 205.138C110.1 205.538 108 205.304 107 205.138C106.667 205.471 106 206.238 106 206.638V210.138V213.638L103 216.638L100 219.138L100.5 222.638L101.5 225.138L103.5 229.138L104 233.638L103.5 236.138L102 239.638L100.5 242.138V246.638L103 248.638L106.5 249.638Z" fill="#E7CAA8"/>
<path d="M166 184.638L162.5 189.638L165 182.638L166 173.138C168.167 171.971 172.8 169.438 174 168.638C175.2 167.838 176.833 165.971 177.5 165.138H180.5L183 167.638H190.5L182.5 171.138L179.5 168.638L178.5 167.638L175.5 170.138L167.5 174.638C167.5 176.638 167.4 180.838 167 181.638C166.6 182.438 166.167 183.971 166 184.638Z" fill="#E7CAA8"/>
<path d="M210 116.638L202.5 115.638H202L213 114.638L219 117.638L225 122.638L226 127.638L217.5 119.638L214.5 117.138L210 116.638Z" fill="#E7CAA8"/>
<path d="M132.5 274.138C135 272.638 140.2 269.538 141 269.138L129.5 272.638L120.5 282.138L116 288.638C116.333 290.971 117 295.738 117 296.138C117 296.538 119.667 296.638 121 296.638C120.5 294.804 119.3 290.838 118.5 289.638C117.7 288.438 121.833 285.138 124 283.638L130 277.138L132.5 274.138Z" fill="#E7CAA8"/>
<path d="M165 265.638C165 266.038 162.333 265.138 161 264.638C162 263.971 164.1 262.338 164.5 261.138C164.9 259.938 171.333 259.638 174.5 259.638C180.667 256.138 193.1 249.038 193.5 248.638C193.9 248.238 198 249.471 200 250.138L210 245.638C210.5 246.304 211.5 247.738 211.5 248.138C211.5 248.638 202.5 252.638 201.5 253.138C200.5 253.638 194 252.638 193 251.638C192 250.638 184.5 258.138 184 259.638C183.6 260.838 176.833 262.138 173.5 262.638C170.667 263.471 165 265.238 165 265.638Z" fill="#E7CAA8"/>
<path d="M223 240.138L213 238.138L214 234.638L217.5 237.138L227.5 237.638L226.5 239.138L223 240.138Z" fill="#E7CAA8"/>
<path d="M180.5 237.138L161 246.138C166.333 242.638 177.2 235.538 178 235.138C178.8 234.738 180 236.304 180.5 237.138Z" fill="#E7CAA8"/>
<path d="M202 234.638L186 236.638L189 234.138L193.5 233.638L202 234.638Z" fill="#E7CAA8"/>
<path d="M236 248.638L235 251.138V251.638L247.5 252.138C247.333 251.138 246.9 249.238 246.5 249.638C246 250.138 241 250.638 240.5 250.638C240.1 250.638 237.333 249.304 236 248.638Z" fill="#E7CAA8"/>
<path d="M220.5 223.638C212.9 227.638 215 224.304 217 222.138C220.5 220.638 227.7 217.538 228.5 217.138C229.5 216.638 229.5 217.638 230.5 218.138C231.5 218.638 230 218.638 220.5 223.638Z" fill="#E7CAA8"/>
<path d="M251 224.638C250.6 224.638 246.167 224.971 244 225.138V224.638L249.5 223.138H253.5C254 223.138 257 225.138 257.5 226.638C258 228.138 257 227.638 256.5 228.638C256 229.638 254.5 237.138 254 238.138C253.5 239.138 252.5 234.638 252.5 233.138C252.5 231.938 253.833 228.304 254.5 226.638C253.5 225.971 251.4 224.638 251 224.638Z" fill="#E7CAA8"/>
<path d="M97.5 175.138L95.5 176.638L89.5 166.638L92 151.638L97 143.138L97.5 133.638L104.5 128.638L121 118.138L130.5 117.138L124 120.138L121 121.638L116.5 123.638L107.5 129.638L101.5 133.138L100.5 137.138L99.5 143.638L98 148.138L94.5 152.138L92.5 166.638L95 171.638L97.5 175.138Z" stroke="#E7CAA8"/>
<path d="M106.5 249.638L105.5 250.638L100.5 249.638L98 246.638L99 240.138L101.5 236.138V230.138L98 226.138L97.5 217.638L103 212.638L104.5 204.138L113 199.638L133 196.638L135.5 197.638L136.5 198.638V201.638L132 199.638C129.833 199.804 125.4 200.138 125 200.138H119.5L113.5 202.638C112.667 203.304 110.9 204.738 110.5 205.138C110.1 205.538 108 205.304 107 205.138C106.667 205.471 106 206.238 106 206.638V210.138V213.638L103 216.638L100 219.138L100.5 222.638L101.5 225.138L103.5 229.138L104 233.638L103.5 236.138L102 239.638L100.5 242.138V246.638L103 248.638L106.5 249.638Z" stroke="#E7CAA8"/>
<path d="M166 184.638L162.5 189.638L165 182.638L166 173.138C168.167 171.971 172.8 169.438 174 168.638C175.2 167.838 176.833 165.971 177.5 165.138H180.5L183 167.638H190.5L182.5 171.138L179.5 168.638L178.5 167.638L175.5 170.138L167.5 174.638C167.5 176.638 167.4 180.838 167 181.638C166.6 182.438 166.167 183.971 166 184.638Z" stroke="#E7CAA8"/>
<path d="M210 116.638L202.5 115.638H202L213 114.638L219 117.638L225 122.638L226 127.638L217.5 119.638L214.5 117.138L210 116.638Z" stroke="#E7CAA8"/>
<path d="M132.5 274.138C135 272.638 140.2 269.538 141 269.138L129.5 272.638L120.5 282.138L116 288.638C116.333 290.971 117 295.738 117 296.138C117 296.538 119.667 296.638 121 296.638C120.5 294.804 119.3 290.838 118.5 289.638C117.7 288.438 121.833 285.138 124 283.638L130 277.138L132.5 274.138Z" stroke="#E7CAA8"/>
<path d="M165 265.638C165 266.038 162.333 265.138 161 264.638C162 263.971 164.1 262.338 164.5 261.138C164.9 259.938 171.333 259.638 174.5 259.638C180.667 256.138 193.1 249.038 193.5 248.638C193.9 248.238 198 249.471 200 250.138L210 245.638C210.5 246.304 211.5 247.738 211.5 248.138C211.5 248.638 202.5 252.638 201.5 253.138C200.5 253.638 194 252.638 193 251.638C192 250.638 184.5 258.138 184 259.638C183.6 260.838 176.833 262.138 173.5 262.638C170.667 263.471 165 265.238 165 265.638Z" stroke="#E7CAA8"/>
<path d="M223 240.138L213 238.138L214 234.638L217.5 237.138L227.5 237.638L226.5 239.138L223 240.138Z" stroke="#E7CAA8"/>
<path d="M180.5 237.138L161 246.138C166.333 242.638 177.2 235.538 178 235.138C178.8 234.738 180 236.304 180.5 237.138Z" stroke="#E7CAA8"/>
<path d="M202 234.638L186 236.638L189 234.138L193.5 233.638L202 234.638Z" stroke="#E7CAA8"/>
<path d="M236 248.638L235 251.138V251.638L247.5 252.138C247.333 251.138 246.9 249.238 246.5 249.638C246 250.138 241 250.638 240.5 250.638C240.1 250.638 237.333 249.304 236 248.638Z" stroke="#E7CAA8"/>
<path d="M220.5 223.638C212.9 227.638 215 224.304 217 222.138C220.5 220.638 227.7 217.538 228.5 217.138C229.5 216.638 229.5 217.638 230.5 218.138C231.5 218.638 230 218.638 220.5 223.638Z" stroke="#E7CAA8"/>
<path d="M251 224.638C250.6 224.638 246.167 224.971 244 225.138V224.638L249.5 223.138H253.5C254 223.138 257 225.138 257.5 226.638C258 228.138 257 227.638 256.5 228.638C256 229.638 254.5 237.138 254 238.138C253.5 239.138 252.5 234.638 252.5 233.138C252.5 231.938 253.833 228.304 254.5 226.638C253.5 225.971 251.4 224.638 251 224.638Z" stroke="#E7CAA8"/>
<path d="M124.5 246.138C125 246.638 135.5 239.638 136 239.638C136.5 239.638 140.5 231.138 140 230.638C139.5 230.138 143 219.638 143.5 219.138C144 218.638 143.5 214.138 144 213.638C144.4 213.238 141.5 209.138 140 207.138L136.5 197.138C135.833 196.638 134.4 195.638 134 195.638C133.5 195.638 130.5 197.138 130 197.138C129.6 197.138 124.5 197.138 122 197.138L116 198.138C114.833 198.471 112.4 199.238 112 199.638C111.5 200.138 108.5 202.638 108 202.638C107.6 202.638 106.5 202.638 106 202.638C105.333 202.971 104 203.738 104 204.138C104 204.538 103.333 205.971 103 206.638V212.138L99 216.138C98.5 216.138 97.4 216.138 97 216.138V225.138L99 226.638L100.5 229.638C100.667 230.804 101 233.238 101 233.638C101 234.038 100 236.471 99.5 237.638L97.5 240.138L97 244.638V247.638L99 250.138C101 251.304 105.3 253.238 106.5 251.638C108 249.638 124 245.638 124.5 246.138ZM124.5 246.138L123 244.638V242.638C123.167 242.304 123.5 241.538 123.5 241.138C123.5 240.738 122.833 239.971 122.5 239.638L120.5 238.138L118.5 235.138L117.5 233.638L119.5 234.638L122.5 239.138L125 242.138L124.5 246.138ZM95.2105 178.638L93 175.638C91.3333 172.638 88.1 166.638 88.5 166.638C88.9 166.638 90.3333 156.304 91 151.138L95 146.638L96.5 142.638C96.6667 141.304 97 138.538 97 138.138C97 137.638 97 134.638 97 134.138C97 133.638 96 133.138 97 132.638C97.8 132.238 99.3333 130.804 100 130.138L105.5 127.138L117 119.138L119 118.638C120 118.138 122.1 117.138 122.5 117.138C122.9 117.138 126.667 116.471 128.5 116.138H133.5L137 118.138L138.5 127.138C139.167 129.471 140.7 134.138 141.5 134.138C142.3 134.138 140.5 138.138 139.5 140.138C139.167 143.804 138.7 151.138 139.5 151.138C140.5 151.138 134.5 159.638 134 163.138C133.6 165.938 124.167 174.638 119.5 178.638C116 179.971 109 183.238 109 185.638C109 188.038 103 186.304 100 185.138L97.5 181.745M95.2105 178.638C97.307 177.304 101.5 174.538 101.5 174.138C101.5 173.638 102.5 169.138 102.5 168.138C102.5 167.138 105.5 162.138 105.5 161.638C105.5 161.238 105.833 159.471 106 158.638L106.5 157.638L107.5 156.638V159.638L106 165.638L104 170.138L103.5 174.638L100 177.638L97.5 181.745M95.2105 178.638L97.5 181.745M122.5 153.138C123 153.638 124.5 154.138 125 154.138C125.5 154.138 126 154.138 126.5 154.138C126.9 154.138 128 152.471 128.5 151.638L127 148.138C126.833 147.804 126.5 146.938 126.5 146.138C126.5 145.338 127.167 144.138 127.5 143.638C127.5 143.638 127.7 143.638 128.5 143.638C129.5 143.638 130.5 142.638 131 142.638C131.5 142.638 132.5 142.638 133 141.638C133.4 140.838 133.167 139.304 133 138.638M133 138.638V136.638C132.933 134.875 132.838 132.208 133 135.638C133.162 139.067 133.067 139.066 133 138.638ZM175.5 204.138C175.5 205.138 182.5 202.138 183 203.138C183.5 204.138 187.5 195.138 187 194.638C186.5 194.138 193 192.638 193 192.138C193 191.638 198 191.138 198.5 192.138C198.9 192.938 202 187.138 203.5 184.138C204.5 181.804 206.5 177.038 206.5 176.638C206.5 176.138 205.5 174.638 204 173.638C202.5 172.638 203.5 172.638 202.5 171.638C201.5 170.638 201 170.638 200 170.138C199 169.638 200 168.138 199.5 167.138C199 166.138 198 165.138 198 164.638C198 164.138 195.5 164.138 194.5 163.638C193.7 163.238 193.167 164.471 193 165.138C192.167 165.638 190.3 166.738 189.5 167.138C188.5 167.638 186.5 168.138 184 168.138C181.5 168.138 181.5 165.138 181.5 164.638C181.5 164.238 178.833 163.804 177.5 163.638C177.167 164.304 176.4 165.738 176 166.138C175.5 166.638 172 169.138 171.5 169.138C171 169.138 167.5 171.638 166 172.138C164.8 172.538 164.167 177.304 164 179.638C164 180.138 164 181.238 164 181.638C164 182.138 162.5 185.138 162 186.138C161.6 186.938 161.5 189.138 161.5 190.138L163 192.138C163.167 193.471 163.4 196.238 163 196.638C162.5 197.138 161.5 201.138 161 201.638C160.833 201.638 160.6 201.838 161 202.638C161.4 203.438 163.833 203.638 165 203.638C168.5 203.471 175.5 203.338 175.5 204.138ZM175.5 204.138C175.9 204.138 177 201.804 177.5 200.638V199.638V199.138V198.638L178.5 198.138L179 197.638L180 196.638L180.5 195.638L178.5 196.638L176.5 198.638L176 201.138L175.5 204.138ZM232.5 199.638C232.5 199.551 232.44 199.374 232.34 199.138M232.34 199.138C231.866 198.013 230.5 195.551 230.5 195.138C230.5 194.738 230.5 193.304 230.5 192.638C230.167 191.971 229.5 190.538 229.5 190.138C229.5 189.638 229.5 188.138 229 187.638C228.5 187.138 227.5 187.638 227.5 186.638C227.5 185.638 227 184.138 227.5 183.638C228 183.138 227 183.138 228 182.638C228.8 182.238 229.333 182.138 229.5 182.138L233 180.638L235 182.138L236 183.638L237 185.138L238.5 185.638C238.667 185.638 239.4 185.638 241 185.638C243.8 185.238 245.5 186.138 246 186.638C246 187.138 246 188.238 246 188.638C246 189.138 245 190.638 244.5 191.138C244 191.638 243 194.138 242.5 194.138C242 194.138 238 197.638 236.5 198.138C235.3 198.538 233.227 198.971 232.34 199.138ZM228.5 216.138C225.5 216.138 218.5 220.138 217.5 220.638C216.7 221.038 213.167 225.471 211.5 227.638C211.5 228.471 211.2 230.238 210 230.638M210 230.638C210 230.971 210.3 231.738 211.5 232.138C213 232.638 215.5 235.138 217 236.138C218.2 236.938 220.167 236.804 221 236.638H226.5C227.333 236.304 229.7 235.538 232.5 235.138M210 230.638C209.259 230.884 207.665 231.619 206 232.3M153.5 259.638C154.333 258.138 156 254.838 156 253.638C156 252.138 157.5 250.638 158.5 248.638C159.5 246.638 160 246.138 160.5 244.638C161 243.138 164 242.638 164.5 242.138C164.786 241.852 167.521 240.586 170 239.274M153.5 259.638L150 263.138C148 264.638 143.5 267.738 141.5 268.138C139 268.638 137 268.638 133.5 270.138C130 271.638 128.5 272.138 127.5 273.638C124.5 278.138 123.5 279.638 122.5 280.638C121.5 281.638 119.5 282.138 119.5 283.638C119.5 285.138 115.5 286.638 115.5 289.138C115.5 291.138 115.833 292.304 116 292.638C115.833 294.138 116.3 297.238 119.5 297.638C123.5 298.138 142.5 297.638 143.5 297.138C144.5 296.638 174 290.138 177 289.638M153.5 259.638C154.333 261.138 156.5 264.238 158.5 264.638M177 289.638C179.4 289.238 200 283.471 210 280.638L225 275.888M177 289.638C171.833 289.804 161.2 289.938 160 289.138C158.8 288.338 156.167 286.471 155 285.638L153.5 280.638C153.667 278.804 154 274.838 154 273.638C154 272.438 157 267.138 158.5 264.638M249.5 252.638C250.333 252.638 252.7 252.638 255.5 252.638C258.3 252.638 259 252.638 259 252.638L261.5 255.693M249.5 252.638C249.167 252.638 248.4 252.238 248 250.638C247.5 248.638 248 247.638 247 246.138C246 244.638 245.5 243.638 244 242.138C242.5 240.638 243.5 241.138 241.5 239.138M249.5 252.638C248.667 252.638 246.6 252.738 245 253.138C243 253.638 241.5 253.138 241 253.138C240.5 253.138 239 253.138 237.5 253.138C236.3 253.138 234.667 251.804 234 251.138M241.5 239.138C239.5 237.138 239.5 234.638 237 235.138C234.5 235.638 236 234.638 232.5 235.138M241.5 239.138C241.167 235.638 240.5 228.438 240.5 227.638M232.5 235.138C232.1 235.538 228.333 238.971 226.5 240.638C224.667 240.804 221 241.338 221 242.138C221 243.138 219.5 245.638 219.5 246.138C219.5 246.538 219.5 247.971 219.5 248.638L220.5 253.138M228.5 215.935C229 216.138 233 217.638 234 218.138C235 218.638 238 220.638 238.5 221.638C239 222.638 240.5 226.638 240.5 227.638M240.5 227.638C241.3 226.838 243.167 223.971 244 222.638L252.5 221.638L256.5 224.138C257.394 224.808 258.587 225.714 259.778 226.638M206 232.3C204.293 232.997 202.512 233.638 201.5 233.638C199.5 233.638 198.5 233.638 195.5 233.638C192.5 233.638 189 233.638 188 233.638C187.2 233.638 186 235.638 185.5 236.638C184.667 236.638 182.8 236.638 182 236.638C181.2 236.638 179 235.638 178 235.138C177 235.138 174.8 235.438 174 236.638C173.572 237.28 171.858 238.29 170 239.274M206 232.3C208.167 233.246 212.5 235.338 212.5 236.138C212.5 237.138 212 240.138 212.5 241.638C212.9 242.838 211.333 244.138 210.5 244.638C209.5 244.638 207.1 245.038 205.5 246.638C203.5 248.638 202.5 248.638 201.5 248.638C200.7 248.638 198.833 249.304 198 249.638C197.5 249.304 196.4 248.538 196 248.138C195.5 247.638 191 247.638 190.5 248.638C190 249.638 187.5 251.638 186.5 252.138C185.5 252.638 183.5 253.638 182 254.638C180.5 255.638 178 256.638 177 257.638C176 258.638 174 259.638 173 259.638C172.2 259.638 169.667 259.638 168.5 259.638C165.667 260.638 160 262.738 160 263.138C160 263.638 161 265.138 158.5 264.638M210.5 245.138L216.5 249.638C217.5 250.804 219.7 253.138 220.5 253.138M220.5 253.138C221.3 253.138 223.5 253.138 224.5 253.138C225 253.971 226.1 255.738 226.5 256.138C226.9 256.538 228.333 258.638 229 259.638V261.138C229.333 261.138 230.1 261.238 230.5 261.638C231 262.138 231 263.138 231 263.638C231 264.138 230 266.138 230 266.638C230 267.038 230 269.471 230 270.638L225 275.888M225 275.888L240 271.138L263.5 258.138L261.5 255.693M170 239.274C170 239.638 170 243.138 171 243.138C172 243.138 173.5 245.138 174.5 244.638C175.5 244.138 176 244.138 177 243.638C177.8 243.238 180 244.138 181 244.638L182.5 246.138L181.5 244.638L180.5 243.638L178 243.138C177.667 243.138 176.9 243.138 176.5 243.138C176.1 243.138 175 243.804 174.5 244.138L172.5 243.138L171.5 242.638L171 242.138L170 239.274ZM140 279.638L141.5 280.638C142.5 280.971 144.5 281.538 144.5 281.138C144.5 280.638 145.5 280.638 146.5 280.138C147.5 279.638 148.5 278.638 149 278.138C149.5 277.638 149.5 276.638 151 275.638M261.5 255.693C262 251.841 263 244.038 263 243.638C263 243.138 264.5 236.638 264.5 235.638C264.5 234.638 264.5 231.138 264.5 230.638C264.5 230.372 262.142 228.47 259.778 226.638M259.778 226.638C259 226.638 255.5 229.138 255.5 229.638C255.5 230.138 255 231.638 255 233.138C255 234.638 255 236.138 255 237.138C255 237.938 255.333 236.138 255.5 235.138V233.138C255.667 232.638 256 231.538 256 231.138C256 230.638 256.5 229.138 257 229.138C257.4 229.138 259.019 227.471 259.778 226.638ZM64.5 233.638C64.1667 232.638 63.5 230.538 63.5 230.138C63.5 229.738 63.5 227.971 63.5 227.138V226.138L64 225.138L66 221.138C66.8333 220.304 68.6 218.538 69 218.138C69.4 217.738 71.1667 216.638 72 216.138H75L77.5 217.138L79.5 218.138L81 220.138L81.5 222.138V226.138L80 230.138L78 234.138V236.138L78.5 238.138V239.138L78 239.638L75.5 240.638H73L70 240.138L68 239.138L66 237.138L64.5 233.638ZM114.5 209.638L121 212.138L123 215.138L126.5 217.138C127.667 217.471 130 217.938 130 217.138C130 216.138 130 216.138 131 215.138C131.8 214.338 133.333 212.804 134 212.138L136 211.138L136.5 210.638L133.5 211.638L130.5 213.138L128.5 215.638L127.5 216.138L125 214.638L122.5 212.138L120 210.138L116 208.638H113.5L114.5 209.638ZM163.5 137.638C163.667 136.138 164 133.038 164 132.638C164 132.138 163.5 129.638 163.5 129.138C163.5 128.638 163 127.138 162.5 126.638C162.1 126.238 161.667 125.804 161.5 125.638C162.167 124.304 163.6 121.738 164 122.138C164.5 122.638 168 122.638 168.5 122.638C169 122.638 170.5 122.138 171.5 122.638C172.3 123.038 173.5 123.471 174 123.638L174.5 126.638C173.833 128.971 172.5 133.538 172.5 133.138C172.5 132.738 168.833 135.638 167 137.138L163.5 137.638ZM156 221.138C156 221.638 155.5 224.138 155 224.138C154.5 224.138 153 227.138 153.5 227.638C154 228.138 152 229.138 153.5 229.638C155 230.138 156 228.638 157.5 228.138C159 227.638 162 226.638 162 226.138C162 225.638 163 220.138 162.5 220.638C162 221.138 159 218.638 158.5 219.138C158.1 219.538 156.667 220.638 156 221.138ZM194 174.138L189.5 177.638V180.138L188.5 182.638L185.5 184.138L181.5 185.138L185 183.638L186.5 183.138C186.667 182.971 187.1 182.538 187.5 182.138C188 181.638 188 180.138 188.5 180.138C188.9 180.138 189 179.471 189 179.138V176.638C189 176.471 189.1 176.138 189.5 176.138C189.9 176.138 193 174.471 194.5 173.638L194 174.138ZM197 129.638C197 129.238 196 128.138 195.5 127.638C195.667 127.304 196.1 126.538 196.5 126.138C197 125.638 199.5 122.138 200 121.638C200.4 121.238 200.5 119.804 200.5 119.138V116.138L202 114.138L203.5 113.138C204.167 113.471 206.2 114.038 209 113.638C212.5 113.138 213.5 113.638 214 113.638C214.4 113.638 215.833 114.304 216.5 114.638L222.5 119.138C223.833 120.804 226.5 124.238 226.5 124.638C226.5 125.038 227.167 129.804 227.5 132.138C228.167 135.471 229.4 142.138 229 142.138C228.5 142.138 224 153.638 223.5 153.638C223 153.638 221.5 157.138 218.5 152.638C216.1 149.038 214.833 146.804 214.5 146.138L209.5 142.138L205.5 139.638C203.167 138.971 198.5 137.538 198.5 137.138C198.5 136.738 197.5 131.971 197 129.638ZM206 121.138C206.5 121.638 208 123.638 208.5 123.638C209 123.638 211.5 126.138 212.5 125.638C213.5 125.138 215.5 124.138 215.5 123.638C215.5 123.238 216.167 121.804 216.5 121.138L214.5 123.638L213 124.638H212L210 123.638L208.5 122.638L206 121.138ZM163.5 281.638C164.5 281.304 166.6 280.638 167 280.638C167.5 280.638 168 280.138 169 279.138C170 278.138 170.5 278.138 170.5 277.638C170.5 277.138 170.5 277.138 170.5 275.638C170.5 274.138 170 273.638 170.5 272.638C171 271.638 170.5 271.638 171 270.138C171.5 268.638 172 266.638 172.5 266.638C172.9 266.638 174.667 266.638 175.5 266.638C176 266.471 176.9 266.238 176.5 266.638C176.1 267.038 174 267.471 173 267.638L172 270.638C171.833 271.304 171.5 272.738 171.5 273.138C171.5 273.538 171.5 275.304 171.5 276.138L171 278.638L166 282.138L163.5 281.638ZM190.5 275.138C193 275.138 194 274.138 194 273.638C194 273.238 194.333 271.471 194.5 270.638C194.5 269.638 194.8 267.438 196 266.638C197.5 265.638 198.5 264.638 200 264.638C201.5 264.638 200.5 264.638 202.5 263.638C204.1 262.838 204.833 261.638 205 261.138L203 262.138C202.667 262.304 201.9 262.738 201.5 263.138C201 263.638 201.5 263.138 200.5 263.638C199.5 264.138 198.5 263.638 198 264.138C197.5 264.638 196 265.138 196 265.638C196 266.038 195.333 266.804 195 267.138C194.333 268.471 193 271.238 193 271.638C193 272.038 192.667 273.138 192.5 273.638C192.333 273.638 191.9 273.738 191.5 274.138C191.1 274.538 190.667 274.971 190.5 275.138Z" stroke="#551923" stroke-width="3"/>
<path d="M372.5 174.5C371 175.5 370.5 178 364 178L307 175L288.5 175.5L274 178.5L260 186.5L249.5 195.5L243.5 207.5L242 215L243.5 224.5L246.5 234L250 242.5L254 246.5L260.5 251.5L266 252L271 250.5L281.5 243.5L304.5 221C306.333 219.333 310.3 215.7 311.5 214.5C312.7 213.3 317.333 211.667 319.5 211L327.5 210.5L333.5 213L338.5 221L342 234L341 247L332 258L320 266L276 279.5L292 304.5L303 328L312 355L313.5 374L314.5 380.5L317 385.5L349 404L357 407L360 407.5C360.667 407.167 362.1 406.4 362.5 406C362.9 405.6 363.333 404.167 363.5 403.5L351 380.5V326.5L352 305L357 285.5L361 280.5L364.5 278.5C367.167 277.833 372.6 276.5 373 276.5H382.5C385.5 276.833 391.7 277.5 392.5 277.5C393.3 277.5 400.5 280.167 404 281.5L412.5 287.5L415 290.5L419.5 294.5L422.5 295.5L427 293.5L431.5 290L434.5 285V265.5L433 260.5L430.5 257.5C429.5 256.833 427.4 255.4 427 255C426.5 254.5 425.5 254 424.5 253.5C423.7 253.1 419.833 252.333 418 252L403 251.5C393.667 251.667 374.9 252 374.5 252C374.1 252 375.667 242.667 376.5 238L382 226.5L391 213L404 201L419 190.5L427 186L431.5 180V176L431 169.5L429.5 163.5L427 157.5L426 156C424.833 154.667 422.2 151.9 421 151.5C419.5 151 415 150 414 150C413.2 150 399 154 392 156L388 159.5C383.333 164.167 373.7 173.7 372.5 174.5Z" stroke="white" stroke-width="5"/>
<path d="M348.275 316.889C346.675 332.489 317.275 327.722 302.775 323.389L281.774 281.889L315.274 272.389L329.274 264.889L343.274 252.889L346.274 236.389L342.274 219.389C341.274 217.556 339.074 213.589 338.274 212.389C337.474 211.189 332.941 208.556 330.774 207.389C327.608 207.056 321.074 206.389 320.274 206.389C319.474 206.389 311.274 210.389 307.274 212.389L296.274 224.389L275.274 242.389L266.274 247.889L257.274 245.389C254.608 240.389 249.174 230.289 248.774 229.889C248.374 229.489 246.608 219.722 245.774 214.889L249.774 202.389L262.274 190.389L273.774 182.889C279.774 181.889 291.575 179.989 290.775 180.389C289.975 180.789 310.108 180.222 320.275 179.889L357.775 181.889L364.775 182.389L374.275 178.889L391.775 161.889C393.441 161.389 397.375 159.989 399.775 158.389C402.175 156.789 411.108 155.056 415.275 154.389L420.775 155.889L425.275 161.889L427.775 178.889L416.275 187.389L393.275 204.889L381.275 218.889L371.275 240.389L370.275 255.889L408.275 255.389L423.775 257.389C425.608 259.222 429.475 262.989 430.275 263.389C431.275 263.889 430.275 280.889 430.775 282.389C431.275 283.889 430.275 283.889 429.275 285.389C428.275 286.889 425.775 290.389 425.275 290.889C424.775 291.389 421.775 291.889 421.275 291.389C420.775 290.889 415.775 286.389 414.775 285.389C413.975 284.589 405.441 278.722 401.275 275.889L380.775 271.889L358.275 276.889L351.275 294.389C350.941 295.389 349.875 301.289 348.275 316.889Z" fill="#EAE90D" stroke="#EAE90D" stroke-width="2"/>
<path d="M313.274 315.389C311.108 312.556 306.774 306.789 306.774 306.389L322.274 298.889L313.274 315.389Z" fill="#EABB12"/>
<path d="M347.274 321.389C345.774 319.389 311.274 322.889 304.274 323.389L315.274 353.389L317.774 381.389C329.774 388.722 353.974 403.389 354.774 403.389H360.774C356.774 397.222 348.774 384.589 348.774 383.389C348.774 381.889 348.774 323.389 347.274 321.389Z" fill="#EABB12"/>
<path d="M313.274 315.389C311.108 312.556 306.774 306.789 306.774 306.389L322.274 298.889L313.274 315.389Z" stroke="#EABB12" stroke-width="2"/>
<path d="M347.274 321.389C345.774 319.389 311.274 322.889 304.274 323.389L315.274 353.389L317.774 381.389C329.774 388.722 353.974 403.389 354.774 403.389H360.774C356.774 397.222 348.774 384.589 348.774 383.389C348.774 381.889 348.774 323.389 347.274 321.389Z" stroke="#EABB12" stroke-width="2"/>
<path d="M293.774 303.889L279.274 280.889C285.441 279.222 301.274 274.789 315.274 270.389C329.274 265.989 339.774 253.222 343.274 247.389C344.441 241.556 344.974 226.989 337.774 215.389C328.774 200.889 309.274 212.889 307.274 215.389C305.274 217.889 279.274 246.389 267.274 249.389C255.275 252.389 246.774 234.889 244.274 218.889C241.774 202.889 256.774 190.389 272.774 181.889C288.774 173.389 348.774 179.889 360.274 180.389C371.774 180.889 377.274 173.889 384.774 165.889C392.274 157.889 390.774 158.889 410.274 153.389C429.774 147.889 427.774 169.389 429.774 177.389C431.774 185.389 410.774 188.389 390.774 210.389C374.774 227.989 371.774 246.722 372.274 253.889C381.441 253.556 402.974 253.089 415.774 253.889C428.574 254.689 432.108 261.889 432.274 265.389V284.889C429.274 290.222 421.774 298.389 415.774 288.389C408.274 275.889 381.274 271.389 364.774 275.889C351.574 279.489 348.608 308.389 348.774 322.389V351.889V371.389V380.389C348.774 382.389 352.274 388.389 359.774 400.389C365.774 409.989 350.608 403.056 342.274 398.389C335.108 394.222 320.374 385.589 318.774 384.389C317.174 383.189 315.774 376.556 315.274 373.389L313.774 354.389L304.774 327.389L293.774 303.889Z" stroke="black" stroke-width="4"/>
</svg>
