<svg width="34" height="31" viewBox="0 0 34 31" fill="none" xmlns="http://www.w3.org/2000/svg">
<path d="M14.5464 27.125C14.7951 27.5177 15.1527 27.8438 15.5834 28.0705C16.0142 28.2972 16.5027 28.4166 17.0001 28.4166C17.4974 28.4166 17.986 28.2972 18.4167 28.0705C18.8474 27.8438 19.205 27.5177 19.4537 27.125" stroke="white" stroke-width="2" stroke-linecap="round" stroke-linejoin="round"/>
<path d="M19.7144 2.9889C18.4358 2.59607 17.073 2.48639 15.7387 2.66893C14.4045 2.85147 13.137 3.32098 12.0412 4.03865C10.9454 4.75631 10.0527 5.70151 9.4369 6.79608C8.82113 7.89066 8.49999 9.10316 8.50002 10.3333C8.50002 16.1445 6.5011 18.0265 4.61835 19.7974C4.43358 19.9825 4.3118 20.2126 4.26781 20.4597C4.22383 20.7068 4.25953 20.9602 4.37059 21.1892C4.48165 21.4181 4.66328 21.6127 4.89338 21.7492C5.12348 21.8858 5.39214 21.9584 5.66669 21.9583H28.3334C28.6079 21.9584 28.8766 21.8858 29.1067 21.7492C29.3368 21.6127 29.5184 21.4181 29.6294 21.1892C29.7405 20.9602 29.7762 20.7068 29.7322 20.4597C29.6882 20.2126 29.5665 19.9825 29.3817 19.7974C29.0901 19.5236 28.8136 19.2369 28.5529 18.9384" stroke="white" stroke-width="2" stroke-linecap="round" stroke-linejoin="round"/>
<path d="M25.5 14.2083C27.8472 14.2083 29.75 12.4734 29.75 10.3333C29.75 8.19321 27.8472 6.45831 25.5 6.45831C23.1528 6.45831 21.25 8.19321 21.25 10.3333C21.25 12.4734 23.1528 14.2083 25.5 14.2083Z" stroke="#EAEA0E" stroke-width="2" stroke-linecap="round" stroke-linejoin="round"/>
</svg>
