<svg width="78" height="66" viewBox="0 0 78 66" fill="none" xmlns="http://www.w3.org/2000/svg">
<path d="M65 35.7498C65 49.4998 53.625 56.3748 40.105 60.3623C39.397 60.5653 38.628 60.5556 37.9275 60.3348C24.375 56.3748 13 49.4998 13 35.7498V16.4998C13 15.7704 13.3424 15.071 13.9519 14.5552C14.5614 14.0395 15.388 13.7498 16.25 13.7498C22.75 13.7498 30.875 10.4498 36.53 6.26977C37.2185 5.77202 38.0944 5.49854 39 5.49854C39.9056 5.49854 40.7815 5.77202 41.47 6.26977C47.1575 10.4773 55.25 13.7498 61.75 13.7498C62.612 13.7498 63.4386 14.0395 64.0481 14.5552C64.6576 15.071 65 15.7704 65 16.4998V35.7498Z" stroke="white" stroke-width="2" stroke-linecap="round" stroke-linejoin="round"/>
<path d="M20.722 52.0024C22.1089 48.8459 24.6039 46.124 27.8721 44.2023C31.1403 42.2806 35.0252 41.2511 39.0051 41.252C42.9849 41.2529 46.8691 42.2841 50.1361 44.2073C53.4031 46.1305 55.8965 48.8535 57.2813 52.0106" stroke="white" stroke-width="2" stroke-linecap="round" stroke-linejoin="round"/>
<path d="M39 41.25C46.1797 41.25 52 36.3251 52 30.25C52 24.1749 46.1797 19.25 39 19.25C31.8203 19.25 26 24.1749 26 30.25C26 36.3251 31.8203 41.25 39 41.25Z" stroke="white" stroke-width="2" stroke-linecap="round" stroke-linejoin="round"/>
</svg>
