<svg width="47" height="39" viewBox="0 0 47 39" fill="none" xmlns="http://www.w3.org/2000/svg">
<rect width="46.2857" height="38.1352" transform="translate(0 0.0859375)" fill="#EABB12"/>
<path d="M23.1429 19.1535C21.0215 19.1535 19.2054 18.5312 17.6947 17.2865C16.184 16.0418 15.4286 14.5455 15.4286 12.7976C15.4286 11.0498 16.184 9.5535 17.6947 8.30881C19.2054 7.06412 21.0215 6.44177 23.1429 6.44177C25.2644 6.44177 27.0804 7.06412 28.5911 8.30881C30.1019 9.5535 30.8572 11.0498 30.8572 12.7976C30.8572 14.5455 30.1019 16.0418 28.5911 17.2865C27.0804 18.5312 25.2644 19.1535 23.1429 19.1535ZM7.71436 31.8652V27.4161C7.71436 26.5157 7.99561 25.6881 8.55811 24.9334C9.12061 24.1786 9.86793 23.6026 10.8001 23.2054C12.7929 22.3844 14.8179 21.7687 16.8751 21.3582C18.9322 20.9477 21.0215 20.7425 23.1429 20.7425C25.2644 20.7425 27.3536 20.9477 29.4108 21.3582C31.4679 21.7687 33.4929 22.3844 35.4858 23.2054C36.4179 23.6026 37.1652 24.1786 37.7277 24.9334C38.2902 25.6881 38.5715 26.5157 38.5715 27.4161V31.8652H7.71436ZM11.5715 28.6873H34.7144V27.4161C34.7144 27.1248 34.626 26.86 34.4492 26.6216C34.2724 26.3833 34.0394 26.1979 33.7501 26.0655C32.0144 25.3505 30.2626 24.8142 28.4947 24.4567C26.7269 24.0992 24.9429 23.9204 23.1429 23.9204C21.3429 23.9204 19.559 24.0992 17.7911 24.4567C16.0233 24.8142 14.2715 25.3505 12.5358 26.0655C12.2465 26.1979 12.0135 26.3833 11.8367 26.6216C11.6599 26.86 11.5715 27.1248 11.5715 27.4161V28.6873ZM23.1429 15.9756C24.2036 15.9756 25.1117 15.6644 25.867 15.0421C26.6224 14.4197 27.0001 13.6716 27.0001 12.7976C27.0001 11.9237 26.6224 11.1756 25.867 10.5532C25.1117 9.93088 24.2036 9.6197 23.1429 9.6197C22.0822 9.6197 21.1742 9.93088 20.4188 10.5532C19.6635 11.1756 19.2858 11.9237 19.2858 12.7976C19.2858 13.6716 19.6635 14.4197 20.4188 15.0421C21.1742 15.6644 22.0822 15.9756 23.1429 15.9756Z" fill="#FEF7FF"/>
</svg>
