<svg width="164" height="148" viewBox="0 0 164 148" fill="none" xmlns="http://www.w3.org/2000/svg">
<path d="M129.833 18.5H34.1667C26.6188 18.5 20.5 24.0218 20.5 30.8333V117.167C20.5 123.978 26.6188 129.5 34.1667 129.5H129.833C137.381 129.5 143.5 123.978 143.5 117.167V30.8333C143.5 24.0218 137.381 18.5 129.833 18.5Z" fill="#EDBE0C"/>
<path d="M82 80.1667C93.3218 80.1667 102.5 71.884 102.5 61.6667C102.5 51.4495 93.3218 43.1667 82 43.1667C70.6782 43.1667 61.5 51.4495 61.5 61.6667C61.5 71.884 70.6782 80.1667 82 80.1667Z" fill="white"/>
<path d="M47.8333 129.5V117.167C47.8333 113.896 49.2732 110.759 51.8362 108.446C54.3992 106.133 57.8754 104.833 61.5 104.833H102.5C106.125 104.833 109.601 106.133 112.164 108.446C114.727 110.759 116.167 113.896 116.167 117.167V129.5" fill="white"/>
</svg>
