<svg width="27" height="24" viewBox="0 0 27 24" fill="none" xmlns="http://www.w3.org/2000/svg">
<path d="M18.2505 16H24.7505" stroke="white" stroke-width="2" stroke-linecap="round" stroke-linejoin="round"/>
<path d="M21.5005 13V19" stroke="white" stroke-width="2" stroke-linecap="round" stroke-linejoin="round"/>
<path d="M23.667 9.9999V7.9999C23.6666 7.64918 23.5663 7.30471 23.3762 7.00106C23.186 6.69742 22.9127 6.44526 22.5837 6.2699L15.0003 2.2699C14.671 2.09437 14.2973 2.00195 13.917 2.00195C13.5367 2.00195 13.163 2.09437 12.8337 2.2699L5.25033 6.2699C4.92128 6.44526 4.64797 6.69742 4.45783 7.00106C4.26768 7.30471 4.16738 7.64918 4.16699 7.9999V15.9999C4.16738 16.3506 4.26768 16.6951 4.45783 16.9987C4.64797 17.3024 4.92128 17.5545 5.25033 17.7299L12.8337 21.7299C13.163 21.9054 13.5367 21.9979 13.917 21.9979C14.2973 21.9979 14.671 21.9054 15.0003 21.7299L17.167 20.5899" stroke="white" stroke-width="2" stroke-linecap="round" stroke-linejoin="round"/>
<path d="M9.04199 4.27002L18.792 9.42002" stroke="white" stroke-width="2" stroke-linecap="round" stroke-linejoin="round"/>
<path d="M4.48096 7L13.9168 12L23.3526 7" stroke="white" stroke-width="2" stroke-linecap="round" stroke-linejoin="round"/>
<path d="M13.917 22V12" stroke="white" stroke-width="2" stroke-linecap="round" stroke-linejoin="round"/>
</svg>
