<svg width="559" height="774" viewBox="0 0 559 774" fill="none" xmlns="http://www.w3.org/2000/svg">
<path d="M289.693 104.584C289.307 104.584 282.745 108.759 281.974 109.223L284.289 112.006V117.572V123.138L289.693 124.53L297.798 118.5L300.499 112.47V107.831L297.798 104.584H289.693Z" fill="#E1B054"/>
<path d="M344.498 102.265C342.568 104.43 338.477 108.944 337.551 109.687L343.34 115.717L345.656 121.747L351.831 127.313L359.164 130.096L370.357 136.126L379.62 142.156L386.953 150.042L394.286 153.753L403.549 140.301L404.707 127.313L401.619 117.108L399.303 103.656L387.725 92.9877L376.532 87.8853C371.386 87.2669 361.017 86.0299 360.708 86.0299C360.399 86.0299 353.632 87.5761 350.287 88.3492L347.586 92.06L347.972 94.8432L349.129 99.9456L344.498 102.265Z" fill="#E1B054"/>
<path d="M281.202 203.385L285.061 185.295L306.675 171.379L315.166 173.235H324.042L342.182 167.669L350.673 169.988L362.638 184.831L358.392 198.747L346.814 210.807L333.305 211.735L325.2 219.157L324.042 224.723L303.587 227.97L293.552 226.114L285.447 227.97L282.745 226.114L280.816 223.331L281.202 220.548L285.061 215.446V205.705L281.202 203.385Z" fill="#E1B054"/>
<path d="M289.693 104.584C289.307 104.584 282.745 108.759 281.974 109.223L284.289 112.006V117.572V123.138L289.693 124.53L297.798 118.5L300.499 112.47V107.831L297.798 104.584H289.693Z" stroke="#E1B054" stroke-width="5"/>
<path d="M344.498 102.265C342.568 104.43 338.477 108.944 337.551 109.687L343.34 115.717L345.656 121.747L351.831 127.313L359.164 130.096L370.357 136.126L379.62 142.156L386.953 150.042L394.286 153.753L403.549 140.301L404.707 127.313L401.619 117.108L399.303 103.656L387.725 92.9877L376.532 87.8853C371.386 87.2669 361.017 86.0299 360.708 86.0299C360.399 86.0299 353.632 87.5761 350.287 88.3492L347.586 92.06L347.972 94.8432L349.129 99.9456L344.498 102.265Z" stroke="#E1B054" stroke-width="5"/>
<path d="M281.202 203.385L285.061 185.295L306.675 171.379L315.166 173.235H324.042L342.182 167.669L350.673 169.988L362.638 184.831L358.392 198.747L346.814 210.807L333.305 211.735L325.2 219.157L324.042 224.723L303.587 227.97L293.552 226.114L285.447 227.97L282.745 226.114L280.816 223.331L281.202 220.548L285.061 215.446V205.705L281.202 203.385Z" stroke="#E1B054" stroke-width="5"/>
<path d="M361.866 125.922L359.164 119.892L364.953 125.922H361.866Z" stroke="#551923" stroke-width="5"/>
<path d="M295.096 224.259C290.207 223.64 280.275 222.404 279.658 222.404L283.903 228.434L295.868 226.578L301.657 229.361H310.148L322.884 226.578L325.2 221.012L334.849 213.126L340.252 214.054L345.27 213.126L354.919 206.632L364.181 189.006L361.094 180.193L351.445 175.09L359.936 189.006L352.989 201.53L344.498 207.56L331.761 210.343L324.042 215.91L322.113 219.157L316.323 222.404L306.674 224.259H295.096Z" fill="#BB894A"/>
<path d="M401.619 135.662V110.15L405.093 120.355L406.636 125.458L405.093 137.054L402.391 144.476L397.373 152.361L391.198 154.681L383.479 148.65C385.666 149.114 390.272 149.949 391.198 149.578C392.356 149.114 397.759 143.548 398.531 143.084C399.149 142.713 400.847 137.982 401.619 135.662Z" fill="#BB894A"/>
<path d="M354.919 121.283L346.814 116.644C349.901 117.881 356.076 120.541 356.076 121.283C356.076 122.025 358.649 124.685 359.936 125.921L365.725 127.313L371.901 130.096H364.953L356.848 128.241L354.919 121.283Z" fill="#BB894A"/>
<path d="M295.096 224.259C290.207 223.64 280.275 222.404 279.658 222.404L283.903 228.434L295.868 226.578L301.657 229.361H310.148L322.884 226.578L325.2 221.012L334.849 213.126L340.252 214.054L345.27 213.126L354.919 206.632L364.181 189.006L361.094 180.193L351.445 175.09L359.936 189.006L352.989 201.53L344.498 207.56L331.761 210.343L324.042 215.91L322.113 219.157L316.323 222.404L306.674 224.259H295.096Z" stroke="#BB894A" stroke-width="3"/>
<path d="M401.619 135.662V110.15L405.093 120.355L406.636 125.458L405.093 137.054L402.391 144.476L397.373 152.361L391.198 154.681L383.479 148.65C385.666 149.114 390.272 149.949 391.198 149.578C392.356 149.114 397.759 143.548 398.531 143.084C399.149 142.713 400.847 137.982 401.619 135.662Z" stroke="#BB894A" stroke-width="3"/>
<path d="M354.919 121.283L346.814 116.644C349.901 117.881 356.076 120.541 356.076 121.283C356.076 122.025 358.649 124.685 359.936 125.921L365.725 127.313L371.901 130.096H364.953L356.848 128.241L354.919 121.283Z" stroke="#BB894A" stroke-width="3"/>
<path d="M281.587 219.157L280.043 223.795L287.763 215.446L288.534 204.777L285.061 199.675L288.534 186.687L316.709 170.916H309.376L296.253 176.946L285.447 185.295L285.061 189.934L280.815 201.994L285.061 204.777V215.446L281.587 219.157Z" fill="#E7CAA8"/>
<path d="M345.656 167.205L331.761 169.524L327.902 170.916L347.585 174.163L355.304 176.018L350.673 169.524L345.656 167.205Z" fill="#E7CAA8"/>
<path d="M339.094 112.934L336.779 110.614L347.199 97.1624L346.041 91.1323L353.375 86.0299H364.181H376.146L386.181 91.1323H373.058H358.778H352.217L351.445 95.7709L350.287 104.12L346.041 108.295L339.094 112.934Z" fill="#E7CAA8"/>
<path d="M281.587 219.157L280.043 223.795L287.763 215.446L288.534 204.777L285.061 199.675L288.534 186.687L316.709 170.916H309.376L296.253 176.946L285.447 185.295L285.061 189.934L280.815 201.994L285.061 204.777V215.446L281.587 219.157Z" stroke="#E7CAA8" stroke-width="3"/>
<path d="M345.656 167.205L331.761 169.524L327.902 170.916L347.585 174.163L355.304 176.018L350.673 169.524L345.656 167.205Z" stroke="#E7CAA8" stroke-width="3"/>
<path d="M339.094 112.934L336.779 110.614L347.199 97.1624L346.041 91.1323L353.375 86.0299H364.181H376.146L386.181 91.1323H373.058H358.778H352.217L351.445 95.7709L350.287 104.12L346.041 108.295L339.094 112.934Z" stroke="#E7CAA8" stroke-width="3"/>
<path d="M297.664 203.734C296.056 207.66 297.664 210.277 296.056 211.586C294.447 212.895 296.056 218.13 296.056 219.438C296.056 220.485 296.905 225.155 297.33 227.359M297.33 227.359L297.664 227.291L302.488 231.217L316.962 229.908L325.003 225.982L326.612 220.747L334.653 214.203H345.91L357.168 205.042C360.384 198.935 366.495 186.72 365.209 186.72C363.922 186.72 363.601 184.102 363.601 182.794L358.776 177.559C356.632 176.25 352.343 172.586 352.343 168.398C352.343 167.351 348.055 165.344 345.91 164.471L337.869 165.78L333.045 167.089L325.003 171.015H318.571L308.921 168.398L296.056 174.941C292.303 177.995 284.476 184.102 283.19 184.102C281.582 184.102 283.19 188.029 283.19 189.337C282.118 193.264 279.652 201.378 278.365 202.425C277.079 203.472 281.046 205.478 283.19 206.351V214.203L278.365 219.438V224.673L284.798 229.908L297.33 227.359ZM279.973 108.196C281.582 107.76 285.12 106.625 286.406 105.578C287.693 104.531 292.303 103.397 294.447 102.961L300.88 104.27L302.488 110.813L300.88 116.048L296.056 122.592L289.623 126.518L283.19 125.209L281.582 122.592C282.118 121.719 283.19 119.713 283.19 118.666C283.19 117.619 283.19 114.739 283.19 113.431L279.973 109.504V108.196ZM334.653 110.813L339.477 105.578L345.91 100.343V95.1084L344.302 92.4909L349.127 85.9472L355.56 84.6385H373.25L384.507 87.256L392.548 93.7996L400.59 101.652L403.806 113.431V117.357L407.022 123.901V129.136L405.414 139.605L402.198 146.149L395.765 155.31H392.548L387.724 154.002L382.899 148.767L378.075 143.532L373.25 140.914L365.209 135.679C363.601 135.243 360.384 134.109 360.384 133.062C360.384 132.015 356.096 130.881 353.951 130.444L347.518 129.136L344.302 119.974L339.477 116.048L334.653 110.813ZM360.384 99.0346C363.065 99.4708 368.747 100.343 370.033 100.343C371.32 100.343 374.858 100.343 376.466 100.343L379.683 96.4171L382.899 93.7996L378.075 101.652L371.642 104.27L360.384 99.0346ZM347.518 114.739L357.168 116.048L361.992 121.283L363.601 125.209L371.642 127.827H365.209L358.776 126.518L357.168 119.974L347.518 114.739ZM379.683 126.518C379.683 125.471 382.899 121.719 384.507 119.974C386.652 119.538 391.262 118.927 392.548 119.974C393.835 121.021 399.517 125.646 402.198 127.827L395.765 119.974L392.548 118.666H384.507L379.683 126.518ZM316.962 205.042L321.787 208.968L325.004 207.66L329.828 201.116V194.572L333.045 186.72L326.612 195.881V201.116L323.395 206.351L316.962 205.042Z" stroke="#551923" stroke-width="5"/>
<path d="M259.974 251.163L238.746 264.615L234.501 269.253L233.729 278.531L233.343 297.085L234.501 300.796L229.098 316.567V319.814L232.185 330.946L229.87 336.513L239.904 337.44L251.869 334.657L264.605 338.832L271.167 343.007L287.377 336.049L285.447 324.916L292.394 315.639L302.815 316.103L319.411 307.754L334.463 275.284L332.919 271.109L327.13 265.543L322.498 259.976L317.867 256.266L313.235 251.627L314.779 247.452V244.205L312.464 241.886C311.692 242.35 310.071 243.37 309.762 243.741C309.376 244.205 305.13 245.597 304.744 245.597H293.166L286.605 249.772C284.932 250.545 281.51 252.184 281.201 252.555C280.815 253.019 277.728 252.091 277.342 252.091C277.033 252.091 270.523 248.38 267.307 246.525L259.974 251.163Z" fill="#E1B054" stroke="#E1B054" stroke-width="5"/>
<path d="M229.484 336.512L231.028 332.802L246.852 331.874C248.653 331.565 252.41 330.946 253.027 330.946C253.645 330.946 259.202 332.492 261.904 333.266L269.623 336.976L273.483 338.368L283.517 334.193L281.974 323.988L284.289 318.886L290.079 310.537L293.166 311L303.201 310.073L316.323 302.651L323.656 289.199L329.832 274.82L315.551 259.049L321.727 257.657L325.2 260.904L329.832 266.47L336.007 272.964L334.463 278.531C331.89 284.406 326.667 296.25 326.358 296.621C326.049 296.992 322.113 304.506 320.183 308.217L304.745 317.031H293.938L291.236 318.422L286.991 326.308L288.921 335.121L287.763 336.976L276.184 343.006L271.167 343.934L263.834 339.759L258.43 337.44L252.255 336.049L249.553 337.44L231.414 338.368L229.484 336.512Z" fill="#BB894A"/>
<path d="M266.921 299.404L266.535 295.693C268.98 295.229 274.023 294.302 274.64 294.302C275.258 294.302 279.529 295.848 281.588 296.621L285.447 298.476C289.693 297.239 298.338 294.673 298.955 294.302C299.573 293.931 309.762 288.271 314.78 285.488C315.423 285.952 316.709 286.973 316.709 287.344C316.709 287.808 314.78 290.591 314.008 290.591C313.236 290.591 304.359 297.549 303.201 298.476C302.043 299.404 297.026 301.259 295.096 301.723C293.552 302.094 289.564 303.115 287.763 303.579C286.348 303.733 283.286 303.95 282.359 303.579C281.202 303.115 278.886 301.723 277.342 300.796C275.798 299.868 272.711 300.332 272.325 299.868C272.016 299.497 268.594 299.404 266.921 299.404Z" fill="#BB894A"/>
<path d="M229.484 336.512L231.028 332.802L246.852 331.874C248.653 331.565 252.41 330.946 253.027 330.946C253.645 330.946 259.202 332.492 261.904 333.266L269.623 336.976L273.483 338.368L283.517 334.193L281.974 323.988L284.289 318.886L290.079 310.537L293.166 311L303.201 310.073L316.323 302.651L323.656 289.199L329.832 274.82L315.551 259.049L321.727 257.657L325.2 260.904L329.832 266.47L336.007 272.964L334.463 278.531C331.89 284.406 326.667 296.25 326.358 296.621C326.049 296.992 322.113 304.506 320.183 308.217L304.745 317.031H293.938L291.236 318.422L286.991 326.308L288.921 335.121L287.763 336.976L276.184 343.006L271.167 343.934L263.834 339.759L258.43 337.44L252.255 336.049L249.553 337.44L231.414 338.368L229.484 336.512Z" stroke="#BB894A" stroke-width="5"/>
<path d="M266.921 299.404L266.535 295.693C268.98 295.229 274.023 294.302 274.64 294.302C275.258 294.302 279.529 295.848 281.588 296.621L285.447 298.476C289.693 297.239 298.338 294.673 298.955 294.302C299.573 293.931 309.762 288.271 314.78 285.488C315.423 285.952 316.709 286.973 316.709 287.344C316.709 287.808 314.78 290.591 314.008 290.591C313.236 290.591 304.359 297.549 303.201 298.476C302.043 299.404 297.026 301.259 295.096 301.723C293.552 302.094 289.564 303.115 287.763 303.579C286.348 303.733 283.286 303.95 282.359 303.579C281.202 303.115 278.886 301.723 277.342 300.796C275.798 299.868 272.711 300.332 272.325 299.868C272.016 299.497 268.594 299.404 266.921 299.404Z" stroke="#BB894A" stroke-width="5"/>
<path d="M231.8 292.91L233.729 300.796L236.045 283.169L237.589 272.5L241.448 266.934L268.079 251.163C270.266 252.091 274.718 253.946 275.026 253.946C275.335 253.946 280.301 254.565 282.745 254.874L294.71 247.916H305.131C307.06 247.761 311.152 247.174 312.078 246.061C317.481 240.03 309.376 253.482 309.376 253.946C309.376 254.317 313.493 257.502 315.551 259.049L323.27 259.512C321.212 257.657 316.555 253.853 314.394 253.482C312.232 253.111 313.493 250.854 314.394 249.771L315.937 246.061L315.165 242.814C314.522 242.35 313.081 241.422 312.464 241.422C311.692 241.422 308.218 243.277 307.446 243.277C306.829 243.277 301.271 243.896 298.569 244.205C296.768 244.514 292.857 245.133 291.622 245.133C290.078 245.133 281.202 251.627 280.816 252.091C280.507 252.462 278.629 251.627 277.728 251.163L270.009 246.988L266.149 246.524L249.167 257.193L245.694 259.512C243.507 261.059 239.055 264.244 238.747 264.615C238.438 264.986 235.273 269.099 233.729 271.109L231.8 292.91Z" fill="#E7CAA8" stroke="#E7CAA8" stroke-width="5"/>
<path d="M240.267 262.486C234.279 266.926 232.782 271.735 232.782 273.585C232.158 282.217 231.285 299.482 232.782 299.482C234.279 299.482 229.663 313.047 227.168 319.83C229.039 324.146 232.033 333.518 229.039 336.478C225.296 340.177 251.496 338.328 251.496 336.478C251.496 334.628 266.467 340.909 270.21 343.877C273.204 346.252 283.933 339.934 288.924 336.478L287.052 325.379L292.667 317.268H303.895L320.738 308.731C325.104 299.482 334.212 279.874 335.709 275.435C337.58 269.885 330.095 268.036 328.223 264.336C326.352 260.636 318.866 255.087 315.123 253.237C311.381 251.387 318.866 245.838 315.123 242.138C311.381 238.439 311.381 242.138 309.509 242.138C307.638 242.138 307.638 243.988 303.895 243.988H292.667L281.438 251.387C278.943 250.771 273.578 249.168 272.081 247.688C270.584 246.208 267.715 245.838 266.467 245.838C260.229 249.538 246.256 258.047 240.267 262.486Z" stroke="#551923" stroke-width="5"/>
<path d="M282.745 298.476C276.57 294.766 270.395 294.766 268.079 295.229L266.149 295.693L275.026 292.446L286.605 298.013C295.353 294.26 312.927 286.688 313.236 286.416C320.183 281.778 290.464 303.115 282.745 298.476Z" fill="#551923"/>
<path d="M264.219 340.223C265.12 335.894 266.844 326.493 266.535 323.525M268.079 295.229C270.395 294.766 276.57 294.766 282.745 298.476C290.464 303.115 320.183 281.778 313.236 286.416C312.927 286.688 295.353 294.26 286.605 298.013L275.026 292.446L266.149 295.693L268.079 295.229Z" stroke="#551923" stroke-width="5"/>
<path d="M365.838 235.451L346.703 242.845L333.718 258.003L334.743 278.706L321.758 293.864L320.733 306.434L320.733 325.658L337.477 315.676L336.11 319.373C333.604 324.179 328.114 334.013 326.201 334.901C324.287 335.788 332.693 342.418 337.135 345.622L352.853 348.949L381.556 337.489L398.299 310.5L405.475 296.452L412.651 289.058L413.676 279.446L405.475 265.027L400.691 240.257L397.274 229.536L380.872 229.536L370.28 232.124L365.838 235.451Z" fill="#E1B054" stroke="#E1B054" stroke-width="5"/>
<path d="M333.035 327.876L327.567 336.749C329.851 332.797 333.812 326.137 336.597 321.976L337.818 319.003L334.743 316.415L330.643 318.264C327.34 321.222 320.733 326.841 320.733 325.658C320.733 324.475 320.961 317.771 321.075 314.567L321.075 299.409L323.809 292.755L334.743 278.336L334.743 263.918L335.426 256.524L347.044 242.845L355.928 241.366L355.928 250.979L352.511 260.96L362.762 267.985C365.382 267.369 370.758 266.062 371.305 265.767C371.852 265.471 371.533 262.932 371.305 261.7L361.737 261.7L357.637 258.003L360.712 247.651L359.687 239.148L368.23 232.863C371.419 231.877 377.934 229.906 378.481 229.906C379.027 229.906 385.77 228.92 389.073 228.427L398.983 229.906C400.805 232.124 403.493 236.191 399.666 234.712C395.839 233.233 392.376 232.124 391.124 231.754L387.365 231.754C386.226 232.001 383.879 232.494 383.606 232.494C383.333 232.494 381.214 232.986 380.189 233.233L376.089 233.972L370.963 235.821L368.23 236.93L366.521 238.409L362.762 241.366L362.762 243.954L361.737 252.088C360.712 253.566 358.867 256.672 359.687 257.263C360.507 257.855 363.674 258.989 365.154 259.482C367.318 258.373 371.852 256.82 372.672 259.482C373.492 262.143 373.013 265.52 372.672 266.876L362.762 270.203L350.461 261.7C351.6 258.619 353.878 252.162 353.878 250.979L353.878 243.954L348.069 244.694L337.135 258.003L337.135 263.918L337.135 278.336L325.517 294.233L322.784 300.149L322.784 314.567L322.784 322.331C324.492 320.359 328.182 316.415 329.276 316.415C330.369 316.415 333.376 315.183 334.743 314.567C336.907 315.553 340.894 317.672 339.527 318.264C339.073 318.46 337.98 319.91 336.597 321.976L336.452 322.331L333.035 327.876Z" fill="#E7CAA8" stroke="#E7CAA8" stroke-width="5"/>
<path d="M402.4 252.457L398.983 230.275C398.8 229.092 398.907 235.698 398.983 239.148L402.399 263.548C405.133 268.108 410.6 277.301 410.6 277.597C410.6 277.967 409.917 286.1 410.6 286.84C411.147 287.431 406.044 293.248 403.425 296.082L392.832 318.264C388.845 323.563 380.667 334.531 379.847 336.01C379.027 337.488 364.243 343.773 356.953 346.731C351.372 345.992 339.39 344.143 336.11 342.664C332.83 341.185 334.743 344.02 336.11 345.622L357.979 348.949L380.872 337.488L394.199 319.743L404.791 296.821L412.309 289.058L413.676 278.706L408.208 269.833L403.425 262.07L402.4 252.457Z" stroke="#BB894A" stroke-width="5"/>
<path d="M346.071 240.997C341.629 246.173 332.677 256.746 332.403 257.633L333.087 277.967C330.581 282.034 324.749 290.537 321.469 292.015C317.368 293.864 320.102 319.743 319.077 326.767C318.052 333.792 332.403 316.785 334.795 319.004C337.187 321.222 324.886 333.792 324.544 335.27C324.202 336.749 336.162 344.513 335.82 347.101C335.479 349.689 350.855 350.428 357.006 350.428C361.926 350.428 375.913 342.541 382.291 338.598L396.301 319.743C400.288 309.884 409.354 290.167 413.728 290.167C419.195 290.167 413.728 267.615 409.286 266.506C405.732 265.619 404.388 254.06 404.16 248.391C403.021 242.476 400.743 230.349 400.743 229.166C400.743 227.983 392.77 226.948 388.784 226.578L378.874 228.057C375.913 228.797 369.512 230.349 367.598 230.645C365.206 231.015 364.181 233.603 363.84 234.342C363.566 234.934 354.842 239.025 350.513 240.997L346.071 240.997Z" stroke="#551923" stroke-width="5"/>
<path d="M378.139 304.216C377.455 302.737 376.704 299.705 379.164 299.41C382.239 299.04 385.656 292.385 385.998 292.016C386.339 291.646 387.706 287.579 387.365 286.1C387.023 284.622 383.606 280.555 387.365 280.555C391.123 280.555 390.782 287.579 389.756 289.058C388.731 290.537 383.606 310.87 380.872 310.131C378.685 309.539 378.139 305.941 378.139 304.216Z" fill="#551923"/>
<path d="M357.295 239.148L358.662 246.912L354.903 259.852L363.104 265.397C367.546 264.288 374.653 262.514 367.546 264.288M378.139 304.216C377.455 302.737 376.704 299.705 379.164 299.41C382.239 299.04 385.656 292.385 385.998 292.016C386.339 291.646 387.706 287.579 387.365 286.1C387.023 284.622 383.606 280.555 387.365 280.555C391.123 280.555 390.782 287.579 389.756 289.058C388.731 290.537 383.606 310.87 380.872 310.131C378.685 309.539 378.139 305.941 378.139 304.216Z" stroke="#551923" stroke-width="5"/>
<path d="M396.451 205.24C420.708 189.856 416.373 173.632 416.525 170.808C413.34 174.651 404.873 180.1 396.481 171.153C385.991 159.969 372.194 220.624 396.451 205.24Z" fill="#E1B054" stroke="#551923" stroke-width="5"/>
<path d="M39.6266 599.79L72.3033 413.023L105.956 441.805L240.39 522.08L335.32 542L337.227 549.595L307.871 614.495L284.419 662.213L271.344 687.9L253.935 721.809L236.269 730.015L211.314 724.396L180.265 714.65L151.488 701.967L114.212 679.304L61.5 635.848L43.0855 614.677L39.6266 599.79Z" fill="#CF3847" stroke="#D47C83"/>
<path d="M335.954 546.337L264.061 535.276C247.528 589.634 212.332 700.326 203.814 708.223C195.584 712.028 175.565 710.269 166.585 708.914C177.643 712.769 201.659 721.236 209.257 724.264C216.856 727.293 230.289 729.6 236.055 730.375L250.812 723.477L255.285 718.627L276.813 679.565L326.424 572.346L338.433 548.458L335.954 546.337Z" fill="#902A37" stroke="#902A37"/>
<path d="M98.5113 440.86L72.6577 413.326L40.128 595.339C41.5161 601.406 44.5758 613.782 45.7093 614.752C46.8429 615.721 55.1058 625.319 59.0955 629.996L98.5113 440.86Z" fill="#D47C83" stroke="#D47C83"/>
<path d="M38.4231 598.218L74.5241 392.15L345.968 532.129L285.341 662.459L253.935 721.809L235.702 730.072L203.941 722.428L170.554 711.224L139.651 696.723L112.015 678.509L91.8237 661.24L59.9423 633.973L44.0074 614.923L38.4231 598.218Z" stroke="#551923" stroke-width="5"/>
<path d="M224.953 407.833C264.205 427.54 298.275 450.526 321.622 471.697C333.31 482.294 342.199 492.337 347.719 501.183C353.311 510.144 355.044 517.195 353.68 522.287C352.315 527.378 347.663 531.224 339.164 533.11C330.774 534.972 319.249 534.767 305.327 532.507C277.517 527.993 240.669 515.373 201.417 495.666C162.164 475.959 128.093 452.973 104.746 431.803C93.0591 421.205 84.1702 411.161 78.6494 402.315C73.0577 393.355 71.3252 386.303 72.6894 381.212C74.0536 376.121 78.7064 372.275 87.2045 370.388C95.5948 368.526 107.12 368.733 121.041 370.992C148.852 375.506 185.7 388.125 224.953 407.833Z" fill="#D9D9D9" stroke="#551923" stroke-width="5"/>
<ellipse cx="15.8528" cy="32.4744" rx="15.8528" ry="32.4744" transform="matrix(0.858018 0.43078 -0.270766 1.01046 122.168 478.412)" fill="#D47C83"/>
<ellipse cx="150.551" cy="41.9816" rx="150.551" ry="41.9816" transform="matrix(0.858018 0.43078 -0.270766 1.01046 96.1851 347.395)" fill="#BFAAAA"/>
<path fill-rule="evenodd" clip-rule="evenodd" d="M76.5089 523.514L81.1796 527.509L112.707 554.472L113.446 559.166L108.227 570.95L110.563 572.947L113.756 567.554L119.343 558.118L133.355 570.102L148.964 579.389L181.349 598.963L184.053 603.307L187.985 602.608L201.258 609.899L234.87 624.43L242.674 629.074L243.044 631.42L263.013 636.314L265.348 638.312L263.633 653.091L259.154 669.568L261.859 673.912L259.035 681.652L255.842 687.044L254.246 689.74L249.944 688.093L242.14 683.449L240.603 680.103L239.125 670.716L243.235 651.892L240.102 651.243L236.909 656.636L233.716 662.028L233.228 671.765L229.236 678.505L196.792 664.973L193.289 661.977L189.417 656.634L189.846 652.939L185.485 657.333L182.352 656.684C180.263 656.251 175.851 655.186 174.917 654.387L167.911 648.395L164.408 645.399L158.141 644.1L147.203 638.807L137.861 630.818L135.157 626.474L132.082 619.783L130.605 610.396L127.412 615.788L118.75 618.534C117.05 618.434 113.417 618.035 112.483 617.236L103.141 609.247L100.437 604.903L99.6976 600.209L100.984 589.124L100.615 586.778L96.254 591.171L92.2628 597.912L88.331 598.611L76.6543 588.624L63.8099 577.639L59.568 569.95L58.0903 560.562L57.3514 555.869L59.3766 549.478L61.4019 543.087L63.4271 536.695L61.0918 534.698L69.0741 521.217L76.5089 523.514ZM219.526 668.169L230.509 628.824L237.944 631.121L237.885 637.162L255.149 637.712L261.786 641.357L254.483 665.574L253.625 672.964L255.591 672.614L253.936 681.352L253.137 682.7L248.038 682.4L244.535 679.404L242.628 673.712L247.477 659.582L249.931 649.496L249.562 647.149L239.363 646.549L235.8 649.595L233.406 653.64L230.213 659.032L228.128 671.465L219.526 668.169ZM197.208 622.681L198.864 613.943L228.174 626.826L225.72 636.912L206.18 628.324L204.953 633.367L219.394 641.656L216.57 649.395L201.331 642.454L201.7 644.801L202.439 649.494L204.775 651.492L220.014 658.433L217.56 668.519L206.622 663.225C205.188 662.676 202.087 661.378 201.153 660.579L196.482 656.584L192.61 651.242L193.467 643.852L192.729 639.158L190.393 637.161L193.217 629.422L196.35 630.071L198.745 626.027L197.208 622.681ZM188.605 619.385L195.361 610.947L186.758 607.651L179.633 613.743L172.509 619.834L178.954 603.008L171.948 597.016L168.326 606.103L155.865 636.061L162.871 642.053L163.669 640.705L164.467 639.357L168.458 632.616C169.097 631.538 168.685 636.195 168.399 638.658L170.305 644.35L176.144 649.344L183.579 651.641L188.368 643.552L187.2 642.553L180.564 638.908L177.061 635.912L176.691 633.565L178.716 627.174L183.077 622.781L188.605 619.385ZM137.109 587.528L141.898 579.439L169.982 597.365L169.184 598.713L166.36 606.452L162.369 613.193L155.363 607.201C154.429 606.402 155.506 605.969 156.161 605.853L158.556 601.809L149.215 593.819L147.618 596.516L146.022 599.212L143.627 603.256L144.735 610.297L146.642 615.989L158.319 625.975L153.899 636.411L138.719 623.428L135.275 614.391L134.965 606.002L135.823 598.612L140.612 590.524L137.109 587.528ZM112.173 608.848L117.76 599.411L121.263 602.407L124.885 593.319L129.305 582.884L132.927 573.796L140.731 578.44L136.311 588.876L127.9 606.052L123.909 612.792L116.843 612.842L112.173 608.848ZM111.005 607.849L115.794 599.76L113.459 597.763L113.09 595.416L114.686 592.72L118.677 585.979L127.458 571.15L126.29 570.151L120.452 565.158L111.671 579.987L102.33 571.998L103.128 570.65L110.312 558.517L109.144 557.518L102.138 551.526L94.9542 563.659L92.6189 561.662L87.0313 571.099L89.3666 573.096L81.3843 586.577L89.558 593.568L98.3386 578.739L108.848 587.727L105.655 593.119L103.629 599.51L103.201 603.205L110.207 609.197L111.005 607.849ZM66.1912 534.998L70.9806 526.909L97.8371 549.878L90.653 562.011L83.647 556.019L86.8399 550.627L77.4985 542.638L71.1127 553.423L71.0533 559.464C71.2996 561.029 72.0257 564.358 72.9599 565.157L75.2952 567.154L84.6366 575.143L79.049 584.58L68.54 575.592C67.6058 574.793 64.7906 571.032 63.4998 569.251L61.5933 563.558L61.6526 557.517L64.1066 547.431L68.5266 536.995L66.1912 534.998ZM81.3116 554.022L77.8086 551.026L75.4139 555.071L74.9851 558.765L75.724 563.459L79.227 566.455L82.73 569.451L83.5283 568.103L85.1247 565.407L82.7894 563.409L80.0846 559.065L81.3116 554.022ZM153.028 605.204L149.525 602.208L147.928 604.904L147.499 608.599L149.037 611.944L149.406 614.291L154.077 618.286L157.58 621.282L159.974 617.237L154.136 612.244L152.599 608.899L153.028 605.204ZM188.856 633.815L192.907 621.033L184.984 628.473L182.219 630.17L180.623 632.867L182.958 634.864L185.294 636.861L188.856 633.815Z" fill="black"/>
<path d="M195.361 610.947L188.605 619.385L183.077 622.781L178.716 627.174L176.691 633.565L177.061 635.912L180.564 638.908L187.2 642.553L188.368 643.552L183.579 651.641L176.144 649.344L170.305 644.35L168.399 638.658C168.685 636.195 169.097 631.538 168.458 632.616L164.467 639.357L163.669 640.705L162.871 642.053L155.865 636.061L168.326 606.103L171.948 597.016L178.954 603.008L172.509 619.834L179.633 613.743L186.758 607.651L195.361 610.947Z" fill="white"/>
<path d="M198.864 613.943L197.208 622.681L198.745 626.027L196.35 630.071L193.217 629.422L190.393 637.161L192.729 639.158L193.467 643.852L192.61 651.242L196.482 656.584L201.153 660.579C202.087 661.378 205.188 662.676 206.622 663.225L217.56 668.519L220.014 658.433L204.775 651.492L202.439 649.494L201.7 644.801L201.331 642.454L216.57 649.395L219.394 641.656L204.953 633.367L206.18 628.324L225.72 636.912L228.174 626.826L198.864 613.943Z" fill="white"/>
<path d="M230.509 628.824L219.526 668.169L228.128 671.465L230.213 659.032L233.406 653.64L235.8 649.595L239.363 646.549L249.562 647.149L249.931 649.496L247.477 659.582L242.628 673.712L244.535 679.404L248.038 682.4L253.137 682.7L253.936 681.352L255.591 672.614L253.625 672.964L254.483 665.574L261.786 641.357L255.149 637.712L237.885 637.162L237.944 631.121L230.509 628.824Z" fill="white"/>
<path d="M141.898 579.439L137.109 587.528L140.612 590.524L135.823 598.612L134.965 606.002L135.275 614.391L138.719 623.428L153.899 636.411L158.319 625.975L146.642 615.989L144.735 610.297L143.627 603.256L146.022 599.212L147.618 596.516L149.215 593.819L158.556 601.809L156.161 605.853C155.506 605.969 154.429 606.402 155.363 607.201L162.369 613.193L166.36 606.452L169.184 598.713L169.982 597.365L141.898 579.439Z" fill="white"/>
<path d="M117.76 599.411L112.173 608.848L116.843 612.842L123.909 612.792L127.9 606.052L136.311 588.876L140.731 578.44L132.927 573.796L129.305 582.884L124.885 593.319L121.263 602.407L117.76 599.411Z" fill="white"/>
<path d="M115.794 599.76L111.005 607.849L110.207 609.197L103.201 603.205L103.629 599.51L105.655 593.119L108.848 587.727L98.3386 578.739L89.558 593.568L81.3843 586.577L89.3666 573.096L87.0313 571.099L92.6189 561.662L94.9542 563.659L102.138 551.526L109.144 557.518L110.312 558.517L103.128 570.65L102.33 571.998L111.671 579.987L120.452 565.158L126.29 570.151L127.458 571.15L118.677 585.979L114.686 592.72L113.09 595.416L113.459 597.763L115.794 599.76Z" fill="white"/>
<path d="M70.9806 526.909L66.1912 534.998L68.5266 536.995L64.1066 547.431L61.6526 557.517L61.5933 563.558L63.4998 569.251C64.7906 571.032 67.6058 574.793 68.54 575.592L79.049 584.58L84.6366 575.143L75.2952 567.154L72.9599 565.157C72.0257 564.358 71.2996 561.029 71.0533 559.464L71.1127 553.423L77.4985 542.638L86.8399 550.627L83.647 556.019L90.653 562.011L97.8371 549.878L70.9806 526.909Z" fill="white"/>
<path d="M70.2417 522.216C71.1759 523.015 74.809 523.414 76.5089 523.514M76.5089 523.514C77.6765 524.513 80.2454 526.71 81.1796 527.509M76.5089 523.514L69.0741 521.217L61.0918 534.698L63.4271 536.695L61.4019 543.087L59.3766 549.478L57.3514 555.869L58.0903 560.562L59.568 569.95L63.8099 577.639L76.6543 588.624L88.331 598.611L92.2628 597.912L96.254 591.171L100.615 586.778L100.984 589.124L99.6976 600.209L100.437 604.903L103.141 609.247M76.5089 523.514L81.1796 527.509M81.1796 527.509C82.1137 528.308 102.587 545.817 112.707 554.472M81.1796 527.509L112.707 554.472M112.707 554.472L113.446 559.166L108.227 570.95L110.563 572.947L113.756 567.554L119.343 558.118L133.355 570.102L148.964 579.389L181.349 598.963L184.053 603.307L187.985 602.608L201.258 609.899L234.87 624.43L242.674 629.074L243.044 631.42L263.013 636.314L265.348 638.312L263.633 653.091L259.154 669.568L261.859 673.912L259.035 681.652L255.842 687.044L254.246 689.74L249.944 688.093L242.14 683.449L240.603 680.103L239.125 670.716L243.235 651.892L240.102 651.243L236.909 656.636L233.716 662.028L233.228 671.765L229.236 678.505L196.792 664.973L193.289 661.977L189.417 656.634L189.846 652.939L185.485 657.333L182.352 656.684C180.263 656.251 175.851 655.186 174.917 654.387M174.917 654.387C173.983 653.588 169.857 650.059 167.911 648.395M174.917 654.387L167.911 648.395M167.911 648.395L164.408 645.399L158.141 644.1L147.203 638.807L137.861 630.818L135.157 626.474L132.082 619.783L130.605 610.396L127.412 615.788L118.75 618.534C117.05 618.434 113.417 618.035 112.483 617.236M112.483 617.236C111.549 616.437 105.866 611.577 103.141 609.247M112.483 617.236L103.141 609.247M196.482 656.584L192.61 651.242L193.467 643.852L192.729 639.158L190.393 637.161L193.217 629.422L196.35 630.071L198.745 626.027L197.208 622.681L198.864 613.943L228.174 626.826L225.72 636.912L206.18 628.324L204.953 633.367L219.394 641.656L216.57 649.395L201.331 642.454L201.7 644.801L202.439 649.494L204.775 651.492L220.014 658.433L217.56 668.519L206.622 663.225C205.188 662.676 202.087 661.378 201.153 660.579M196.482 656.584C197.65 657.583 200.219 659.78 201.153 660.579M196.482 656.584L201.153 660.579M168.458 632.616C169.097 631.538 168.685 636.195 168.399 638.658L170.305 644.35L176.144 649.344L183.579 651.641L188.368 643.552L187.2 642.553L180.564 638.908L177.061 635.912L176.691 633.565L178.716 627.174L183.077 622.781L188.605 619.385L195.361 610.947L186.758 607.651L179.633 613.743L172.509 619.834L178.954 603.008L171.948 597.016L168.326 606.103L155.865 636.061L162.871 642.053L163.669 640.705L164.467 639.357M168.458 632.616C167.82 633.695 165.531 637.56 164.467 639.357M168.458 632.616L164.467 639.357M155.363 607.201C154.429 606.402 155.506 605.969 156.161 605.853L158.556 601.809L149.215 593.819L147.618 596.516L146.022 599.212L143.627 603.256L144.735 610.297L146.642 615.989L158.319 625.975L153.899 636.411L138.719 623.428L135.275 614.391L134.965 606.002L135.823 598.612L140.612 590.524L137.109 587.528L141.898 579.439L169.982 597.365L169.184 598.713L166.36 606.452L162.369 613.193M155.363 607.201C156.297 608 160.423 611.529 162.369 613.193M155.363 607.201L162.369 613.193M68.54 575.592C67.6058 574.793 64.7906 571.032 63.4998 569.251L61.5933 563.558L61.6526 557.517L64.1066 547.431L68.5266 536.995L66.1912 534.998L70.9806 526.909L97.8371 549.878L90.653 562.011L83.647 556.019L86.8399 550.627L77.4985 542.638L71.1127 553.423L71.0533 559.464C71.2996 561.029 72.0257 564.358 72.9599 565.157M68.54 575.592C69.4741 576.391 75.9352 581.917 79.049 584.58M68.54 575.592L79.049 584.58M79.049 584.58L84.6366 575.143L75.2952 567.154M75.2952 567.154C74.906 566.821 73.894 565.955 72.9599 565.157M75.2952 567.154L72.9599 565.157M77.8086 551.026C78.7427 551.825 80.5332 553.356 81.3116 554.022M77.8086 551.026L75.4139 555.071L74.9851 558.765L75.724 563.459L79.227 566.455L82.73 569.451L83.5283 568.103L85.1247 565.407L82.7894 563.409L80.0846 559.065L81.3116 554.022M77.8086 551.026L81.3116 554.022M149.525 602.208C151.393 603.806 152.638 604.871 153.028 605.204M149.525 602.208L147.928 604.904L147.499 608.599L149.037 611.944L149.406 614.291L154.077 618.286L157.58 621.282L159.974 617.237L154.136 612.244L152.599 608.899L153.028 605.204M149.525 602.208L153.028 605.204M230.509 628.824L219.526 668.169L228.128 671.465L230.213 659.032L233.406 653.64L235.8 649.595L239.363 646.549L249.562 647.149L249.931 649.496L247.477 659.582L242.628 673.712L244.535 679.404L248.038 682.4L253.137 682.7L253.936 681.352L255.591 672.614L253.625 672.964L254.483 665.574L261.786 641.357L255.149 637.712L237.885 637.162L237.944 631.121L230.509 628.824ZM117.76 599.411L112.173 608.848L116.843 612.842L123.909 612.792L127.9 606.052L136.311 588.876L140.731 578.44L132.927 573.796L129.305 582.884L124.885 593.319L121.263 602.407L117.76 599.411ZM115.794 599.76L111.005 607.849L110.207 609.197L103.201 603.205L103.629 599.51L105.655 593.119L108.848 587.727L98.3386 578.739L89.558 593.568L81.3843 586.577L89.3666 573.096L87.0313 571.099L92.6189 561.662L94.9542 563.659L102.138 551.526L109.144 557.518L110.312 558.517L103.128 570.65L102.33 571.998L111.671 579.987L120.452 565.158L126.29 570.151L127.458 571.15L118.677 585.979L114.686 592.72L113.089 595.416L113.459 597.763L115.794 599.76ZM192.907 621.033L188.856 633.815L185.294 636.861L182.958 634.864L180.623 632.867L182.219 630.17L184.984 628.473L192.907 621.033Z" stroke="black"/>
<path d="M185.276 318.78L166.119 311.47L148.227 314.772L139.074 332.354L121.183 335.656L114.283 345.183L105.009 360.847L123.466 364.381L120.569 366.441C116.209 368.61 106.992 372.797 105.005 372.187C103.018 371.576 106.668 382.835 108.741 388.541L119.943 402.205L148.857 412.868L175.519 402.547L188.143 396.101L197.556 395.077L203.029 387.959L203.303 370.497L211.355 346.982L213.743 335.866L200.379 324.437L190.501 319.164L185.276 318.78Z" fill="#E1B054" stroke="#E1B054" stroke-width="5"/>
<path d="M113.961 371.226L105.226 374.645C108.993 373.016 115.433 370.35 119.71 368.901L122.139 367.33L120.882 363.078L116.649 361.727C112.531 361.835 104.438 361.81 105.009 360.847C105.579 359.883 108.999 354.579 110.638 352.048L117.95 339.698L123.388 336.181L139.252 332.053L146.208 320.306L150.332 314.758L166.397 311.708L174.348 316.694L169.711 324.526L162.112 330.278L167.075 343.144C169.507 344.467 174.517 347.149 175.105 347.289C175.693 347.429 176.658 345.139 177.067 343.976L169.272 337.309L167.715 331.439L175.214 325.148L178.481 317.506L188.473 318.338C191.547 319.757 197.807 322.69 198.252 323.071C198.697 323.452 204.667 327.348 207.596 329.248L214.956 337.358C215.371 340.435 215.599 345.621 213.194 341.75C210.79 337.878 208.504 334.562 207.661 333.387L204.599 330.768C203.552 330.175 201.402 328.942 201.18 328.751C200.957 328.561 198.993 327.486 198.039 326.973L194.341 324.718L189.273 322.653L186.511 321.651L184.406 321.666L179.917 321.456L178.668 323.565L173.909 329.477C172.36 329.968 169.359 331.212 169.742 332.266C170.125 333.319 172.157 336.449 173.126 337.883C175.424 338.487 179.867 340.381 179.251 343.121C178.635 345.861 176.616 348.279 175.684 349.145L166.005 344.951L160.085 329.451C162.499 327.735 167.47 324.061 168.041 323.097L171.43 317.374L166.34 313.929L151.01 317.153L148.157 321.972L141.201 333.72L124.066 338.577L118.985 341.491L112.03 353.239L108.284 359.564C110.627 359.148 115.537 358.507 116.428 359.269C117.318 360.031 120.363 361.122 121.774 361.572C123.061 363.884 125.287 368.389 123.888 367.918C123.424 367.762 121.833 368.182 119.71 368.901L119.42 369.088L113.961 371.226Z" fill="#E7CAA8" stroke="#E7CAA8" stroke-width="5"/>
<path d="M206.861 358.113L214.778 337.659C215.201 336.568 212.101 342.024 210.498 344.888L201.511 367.149C201.538 372.769 201.558 384.069 201.415 384.31C201.237 384.611 196.756 390.762 196.956 391.841C197.116 392.703 190.153 393.887 186.651 394.371L167.319 405.062C161.515 406.602 149.561 409.839 148.179 410.473C146.797 411.106 131.72 405.925 124.354 403.255C120.163 398.764 111.292 388.908 109.333 385.417C107.374 381.926 107.566 385.569 107.906 387.827L124.119 405.777L148.301 412.392L167.719 407.22L187.408 395.926L197.278 394.838L203.385 387.357L203.212 376.318L203.059 366.659L206.861 358.113Z" stroke="#BB894A" stroke-width="5"/>
<path d="M166.496 309.524C160.38 310.646 147.985 313.022 147.335 313.555L138.082 330.598C134.078 332.165 125.225 335.029 121.839 333.949C117.606 332.597 107.349 355.587 103.125 360.596C98.901 365.605 118.798 361.749 119.677 365.223C120.556 368.698 104.469 370.367 103.477 371.334C102.485 372.301 108.484 386.96 106.957 388.83C105.43 390.701 117.602 402.018 122.613 406.304C126.622 409.733 141.823 413.053 148.922 414.285L169.433 408.685C177.437 403.43 194.336 393.683 197.899 396.731C202.354 400.541 208.779 378.357 205.695 374.358C203.227 371.159 207.709 360.804 210.258 356.027C212.184 350.414 216.177 338.946 216.748 337.982C217.319 337.018 211.322 330.619 208.253 327.54L199.465 321.84C196.696 320.379 190.731 317.183 189.03 316.091C186.903 314.725 184.819 316.12 184.184 316.484C183.676 316.775 174.593 314.029 170.116 312.62L166.496 309.524Z" stroke="#551923" stroke-width="5"/>
<path d="M162.125 383.378C162.282 381.697 163.132 378.703 165.279 380.176C167.963 382.018 173.957 378.977 174.414 378.914C174.871 378.851 177.946 376.49 178.382 375.047C178.817 373.604 177.994 367.91 181.057 370.529C184.119 373.148 180.452 378.633 178.904 379.123C177.355 379.614 163.369 392.609 161.499 390.102C160.003 388.096 161.293 384.783 162.125 383.378Z" fill="#551923"/>
<path d="M176.533 315.839L173.901 323.117L164.596 331.04L168.603 341.273C172.757 343.465 179.404 346.972 172.757 343.465M162.125 383.378C162.282 381.697 163.132 378.703 165.279 380.176C167.963 382.018 173.957 378.977 174.414 378.914C174.871 378.851 177.946 376.49 178.382 375.047C178.817 373.604 177.994 367.91 181.057 370.529C184.119 373.148 180.452 378.633 178.904 379.123C177.355 379.614 163.369 392.609 161.499 390.102C160.003 388.096 161.293 384.783 162.125 383.378Z" stroke="#551923" stroke-width="5"/>
<path d="M106.084 405.125C102.303 410.273 94.6966 420.635 94.5265 420.901L119.183 441.549L160.885 466.295L274.455 503.968L295.442 509.591L330.671 518.312L339.348 516.273L354.074 514L359.525 503.165L367.179 491.189L384.264 475.226L382.274 467.571L385.542 447.844L393.216 425.838L394.533 403.78L391.866 400.26L396.235 384.195L394.419 379.344L390.67 379.057L378.031 381.141L366.378 379.375L357.837 378.894C352.284 378.352 340.927 377.353 339.922 377.695L334.897 379.403L324.712 385.339L317.136 391.039C315.32 391.831 311.354 393.318 310.025 392.937C308.695 392.556 307.513 388.149 307.088 385.994L303.262 383.52L292.536 382.61L278.894 373.189C277.76 372.142 275.021 369.402 273.135 366.815C270.778 363.58 255.222 357.153 253.463 356.059C251.705 354.964 251.743 360.289 250.912 360.05C250.081 359.812 239.568 358.57 238.737 358.332C238.072 358.141 231.309 363.287 228.011 365.884C221.447 368.463 208.067 373.706 207.062 374.048C206.057 374.39 202.958 379.956 201.534 382.697L191.541 398.331C188.166 395.921 181.044 390.757 179.56 389.387C177.705 387.674 172.874 390.618 171.618 391.046C170.613 391.387 164.809 390.93 162.032 390.659C159.81 387.726 155.119 381.632 154.129 380.719C153.14 379.805 150.135 389.02 148.756 393.741C147.248 394.818 143.623 395.773 141.18 390.979C138.738 386.186 130.99 388.976 127.421 390.971L106.084 405.125Z" fill="#E1B054" stroke="#E1B054" stroke-width="2"/>
<path d="M198.923 408.32L201.261 404.661L218.48 403.102C218.081 398.855 217.388 390.351 217.805 390.313C218.222 390.276 225.748 385.834 229.459 383.617L232.608 390.227C228.737 391.414 220.951 393.852 220.781 394.118C220.611 394.385 223.84 399.587 225.476 402.156L236.317 410.577C237.463 410.578 240.027 410.617 241.109 410.77C242.191 410.923 248.608 408.524 251.68 407.306L261.266 407.692C264.351 408.249 270.565 409.295 270.735 409.029C270.905 408.763 275.289 411.647 277.46 413.122C280.687 416.277 287.264 422.702 287.759 423.159C288.254 423.616 297.589 420.598 302.195 419.032C302.601 419.935 303.954 421.819 306.118 422.124C308.283 422.43 307.329 425.358 306.582 426.783L310.872 425.455L310.099 428.972L306.62 432.108C305.196 432.028 302.287 431.81 302.04 431.582C301.73 431.297 303.045 426.163 302.736 425.878C302.427 425.592 300.997 423.214 300.262 423.594C299.675 423.898 294.155 425.714 291.469 426.584L287.874 430.67C285.807 429.29 281.548 426.416 281.053 425.96C280.558 425.503 274.895 418.159 272.126 414.545L255.062 412.015L237.07 417.09L218.75 406.525C213.751 408.963 203.649 413.847 203.231 413.884C202.814 413.922 200.185 410.19 198.923 408.32Z" fill="#BB894A"/>
<path d="M336.265 428.798L329.907 428.747C330.828 432.947 332.688 441.47 332.766 441.965C332.843 442.459 332.527 447.21 332.359 449.523L327.837 452.753L327.643 459.979L326.849 473.528L327.08 488.55L326.905 494.207L324.837 501.29L326.169 511.512L332.198 512.846L330.132 503.004L331.447 489.409C331.429 479.695 331.519 460.067 332.03 459.269L335.219 454.279C335.729 453.481 337.043 447.323 337.635 444.345L336.265 428.798Z" fill="#BB894A"/>
<path d="M169.334 423.847L196.12 407.32C197.692 409.476 200.855 413.911 200.932 414.406C201.028 415.024 201.956 415.88 199.038 415.831C196.703 415.792 182.617 423.063 175.866 426.703C173.508 429.111 168.665 434.125 168.154 434.923C167.516 435.921 160.848 452.508 160.499 455.361C160.151 458.213 160.132 459.782 159.281 461.112C158.601 462.177 156.447 459.906 155.455 458.638L169.334 423.847Z" fill="#BB894A"/>
<path d="M277.264 437.272C277.62 435.484 275.763 435.005 274.791 434.988C268.026 442.496 254.288 457.529 253.454 457.604C252.619 457.68 234.901 463.044 226.146 465.717L224.02 469.043C223.382 470.041 226.996 472.848 226.261 473.228C225.527 473.608 231.247 474.658 233.025 474.183C234.803 473.709 245.297 468.058 246.244 467.346C247.002 466.776 251.894 468.506 254.245 469.442C258.007 465.863 265.555 458.515 265.648 457.754C265.764 456.804 276.819 439.506 277.264 437.272Z" fill="#BB894A"/>
<path d="M198.923 408.32L201.261 404.661L218.48 403.102C218.081 398.855 217.388 390.351 217.805 390.313C218.222 390.276 225.748 385.834 229.459 383.617L232.608 390.227C228.737 391.414 220.951 393.852 220.781 394.118C220.611 394.385 223.84 399.587 225.476 402.156L236.317 410.577C237.463 410.578 240.027 410.617 241.109 410.77C242.191 410.923 248.608 408.524 251.68 407.306L261.266 407.692C264.351 408.249 270.565 409.295 270.735 409.029C270.905 408.763 275.289 411.647 277.46 413.122C280.687 416.277 287.264 422.702 287.759 423.159C288.254 423.616 297.589 420.598 302.195 419.032C302.601 419.935 303.954 421.819 306.118 422.124C308.283 422.43 307.329 425.358 306.582 426.783L310.872 425.455L310.099 428.972L306.62 432.108C305.196 432.028 302.287 431.81 302.04 431.582C301.73 431.297 303.045 426.163 302.736 425.878C302.427 425.592 300.997 423.214 300.262 423.594C299.675 423.898 294.155 425.714 291.469 426.584L287.874 430.67C285.807 429.29 281.548 426.416 281.053 425.96C280.558 425.503 274.895 418.159 272.126 414.545L255.062 412.015L237.07 417.09L218.75 406.525C213.751 408.963 203.649 413.847 203.231 413.884C202.814 413.922 200.185 410.19 198.923 408.32Z" stroke="#BB894A"/>
<path d="M336.265 428.798L329.907 428.747C330.828 432.947 332.688 441.47 332.766 441.965C332.843 442.459 332.527 447.21 332.359 449.523L327.837 452.753L327.643 459.979L326.849 473.528L327.08 488.55L326.905 494.207L324.837 501.29L326.169 511.512L332.198 512.846L330.132 503.004L331.447 489.409C331.429 479.695 331.519 460.067 332.03 459.269L335.219 454.279C335.729 453.481 337.043 447.323 337.635 444.345L336.265 428.798Z" stroke="#BB894A"/>
<path d="M169.334 423.847L196.12 407.32C197.692 409.476 200.855 413.911 200.932 414.406C201.028 415.024 201.956 415.88 199.038 415.831C196.703 415.792 182.617 423.063 175.866 426.703C173.508 429.111 168.665 434.125 168.154 434.923C167.516 435.921 160.848 452.508 160.499 455.361C160.151 458.213 160.132 459.782 159.281 461.112C158.601 462.177 156.447 459.906 155.455 458.638L169.334 423.847Z" stroke="#BB894A"/>
<path d="M277.264 437.272C277.62 435.484 275.763 435.005 274.791 434.988C268.026 442.496 254.288 457.529 253.454 457.604C252.619 457.68 234.901 463.044 226.146 465.717L224.02 469.043C223.382 470.041 226.996 472.848 226.261 473.228C225.527 473.608 231.247 474.658 233.025 474.183C234.803 473.709 245.297 468.058 246.244 467.346C247.002 466.776 251.894 468.506 254.245 469.442C258.007 465.863 265.555 458.515 265.648 457.754C265.764 456.804 276.819 439.506 277.264 437.272Z" stroke="#BB894A"/>
<path d="M179.172 412.301L179.422 417.293C180.015 417.135 181.243 416.752 181.413 416.486C181.583 416.22 181.497 409.688 181.433 406.455L183.927 398.707L184.178 395.237C182.349 397.074 178.647 400.815 178.477 401.081L177.201 403.077L179.462 405.693L179.172 412.301Z" fill="#E7CAA8"/>
<path d="M235.89 419.704L220.18 408.903C211.006 413.102 192.954 421.313 188.594 423.115L182.243 425.186L194.128 425.051L220.953 413.848L235.639 423.175L242.093 423.844L254.655 419.573L259.042 418.863L270.792 421.247C272.846 423.673 277.017 428.581 277.265 428.81C277.512 429.038 282.122 432.235 284.395 433.806L290.251 432.336L287.855 432.239L277.632 424.389L272.628 416.066L271.159 416.826C268.215 416.048 262.223 414.5 261.806 414.538C261.389 414.576 250.565 415.973 245.205 416.667L235.89 419.704Z" fill="#E7CAA8"/>
<path d="M234.853 360.564C229.183 363.793 217.366 370.232 215.449 370.155L210.096 373.147L227.121 370.352L235.625 365.508L243.568 363.849C245.758 363.756 250.2 363.625 250.448 363.854C250.695 364.082 255.434 362.462 257.772 361.624C263.421 365.605 274.634 373.7 274.294 374.232C273.954 374.764 282.191 381.875 286.352 385.364C288.838 386.601 293.935 389.191 294.429 389.647C294.924 390.104 300.188 390.38 302.758 390.46L307.068 387.563L305.774 382.666L302.933 384.803L298.875 384.23L280.961 374.569L269.831 364.293L253.965 357.581L234.853 360.564Z" fill="#E7CAA8"/>
<path d="M368.369 378.568C357.914 378.261 336.733 377.607 335.651 377.455C334.285 378.309 331.407 380.095 330.82 380.399C330.232 380.703 348.264 383.104 357.353 384.266C363.292 384.46 375.256 384.714 375.596 384.182L378.36 379.858L368.369 378.568Z" fill="#E7CAA8"/>
<path d="M391.752 384.287L389.317 378.866L395.153 378.965L396.737 385.716C396.015 390.692 394.363 400.661 393.528 400.737C392.484 400.831 386.029 408.624 385.082 409.337C384.135 410.049 374.124 418.79 373.486 419.788C372.976 420.587 369.253 424.872 367.456 426.916L364.286 430.337L364.672 432.809L364.846 435.614L361.696 437.466L359.145 432.996L366.838 417.883L380.541 405.673L389.083 397.692L390.92 392.511L391.752 384.287Z" fill="#E7CAA8"/>
<path d="M304.281 435.767C305.434 435.245 307.949 434.181 308.784 434.106L311.18 434.202C310.272 434.598 308.351 435.399 307.933 435.436C307.516 435.474 308.146 437.924 308.513 439.145L311.256 444.851L313.903 449.94L318.502 457.359L319.101 459.498L320.009 461.924L318.733 463.919L318.308 464.585L317.264 464.679L316.028 463.538L315.622 462.634L316.376 460.685L304.281 435.767Z" fill="#E7CAA8"/>
<path d="M266.283 482.143C266.036 481.914 265.987 480.811 265.993 480.289L273.627 478.344L279.038 479.108L281.84 480.108L285.144 482.63L290.98 482.728L295.058 481.733L295.56 483.254L291.985 485.772L285.414 486.053C284.448 485.513 282.268 484.206 281.279 483.293C280.042 482.151 278.593 481.342 278.284 481.057C278.037 480.828 275.334 480.801 274.013 480.816C271.539 481.354 266.53 482.371 266.283 482.143Z" fill="#E7CAA8"/>
<path d="M187.79 423.431C187.948 423.377 188.221 423.269 188.594 423.115M188.594 423.115C192.954 421.313 211.006 413.102 220.18 408.903L235.89 419.704L245.205 416.667C250.565 415.973 261.389 414.576 261.806 414.538C262.223 414.5 268.215 416.048 271.159 416.826L272.628 416.066L277.632 424.389L287.855 432.239L290.251 432.336L284.395 433.806C282.122 432.235 277.512 429.038 277.265 428.81C277.017 428.581 272.846 423.673 270.792 421.247L259.042 418.863L254.655 419.573L242.093 423.844L235.639 423.174L220.953 413.848L194.128 425.051L182.243 425.186L188.594 423.115ZM179.422 417.293L179.172 412.301L179.462 405.693L177.201 403.077C177.556 402.523 178.307 401.347 178.477 401.081C178.647 400.815 182.349 397.074 184.178 395.237L183.927 398.707L181.433 406.455C181.497 409.688 181.583 416.22 181.413 416.486C181.243 416.752 180.015 417.135 179.422 417.293ZM215.449 370.155C217.366 370.232 229.183 363.793 234.853 360.564L253.965 357.581L269.831 364.293L280.961 374.569L298.875 384.23L302.933 384.803L305.774 382.666L307.068 387.563L302.758 390.46C300.188 390.38 294.924 390.104 294.429 389.647C293.935 389.191 288.838 386.601 286.352 385.364C282.191 381.875 273.954 374.764 274.294 374.232C274.634 373.7 263.421 365.605 257.772 361.624C255.434 362.462 250.695 364.082 250.448 363.854C250.2 363.625 245.758 363.756 243.568 363.849L235.625 365.508L227.121 370.352L210.096 373.147L215.449 370.155ZM335.651 377.455C336.733 377.607 357.914 378.261 368.369 378.568L378.36 379.858C377.58 381.077 375.936 383.65 375.596 384.182C375.256 384.714 363.292 384.46 357.353 384.266C348.264 383.104 330.232 380.703 330.82 380.399C331.407 380.095 334.285 378.309 335.651 377.455ZM389.317 378.866L391.752 384.287L390.92 392.511L389.083 397.692L380.541 405.673L366.838 417.883L359.145 432.996L361.696 437.466L364.846 435.614L364.672 432.809L364.286 430.337L367.456 426.916C369.253 424.872 372.976 420.587 373.486 419.788C374.124 418.79 384.135 410.049 385.082 409.337C386.029 408.624 392.484 400.831 393.528 400.737C394.363 400.661 396.015 390.692 396.737 385.716L395.153 378.965L389.317 378.866ZM308.784 434.106C307.949 434.181 305.434 435.245 304.281 435.767L316.376 460.685L315.622 462.634L316.028 463.538L317.264 464.679L318.308 464.585C318.379 464.474 318.563 464.186 318.733 463.919C318.903 463.653 319.655 462.478 320.009 461.924L319.101 459.498L318.502 457.359L313.903 449.94L311.256 444.851L308.513 439.145C308.146 437.924 307.516 435.474 307.933 435.436C308.351 435.399 310.272 434.598 311.18 434.202L308.784 434.106ZM265.993 480.289C265.987 480.811 266.036 481.914 266.283 482.143C266.53 482.371 271.539 481.354 274.013 480.816C275.334 480.801 278.037 480.828 278.284 481.057C278.593 481.342 280.042 482.151 281.279 483.293C282.268 484.206 284.448 485.513 285.414 486.053L291.985 485.772L295.56 483.254L295.058 481.733L290.98 482.728L285.144 482.63L281.84 480.108L279.038 479.108L273.627 478.344L265.993 480.289Z" stroke="#E7CAA8"/>
<path d="M395.093 400.595L383.71 410.714C377.024 415.306 365.149 424.918 363.322 431.562M363.322 431.562C362.994 432.754 362.99 433.85 363.397 434.805L363.322 431.562ZM332.353 508.758C333.397 508.663 347.873 492.937 347.274 490.797M347.274 490.797C346.675 488.657 351.548 457.189 349.711 470.832C348.241 481.746 347.474 488.689 347.274 490.797ZM265.954 483.426C269.181 483.761 278.4 480.106 280.332 484.005C282.264 487.905 298.633 487.677 295.232 484.537M295.232 484.537C294.49 483.852 294.304 483.681 294.304 483.681L295.232 484.537ZM197.473 407.51L196.855 406.94L202.806 414.55L197.473 407.51ZM186.087 443.016C185.669 443.054 185.269 444.552 185.12 445.297C188.361 444.586 194.884 443.097 195.054 442.831C195.224 442.565 202.147 436.861 205.587 434.043L186.087 443.016ZM262.711 450.812C262.37 451.344 257.415 457.559 254.98 460.6C253.446 460.948 249.735 461.576 247.153 461.308C244.571 461.041 246.85 460.5 248.312 460.263C249.362 459.646 251.671 458.392 252.506 458.317C253.341 458.241 259.657 453.282 262.711 450.812ZM305.556 433.771L301.227 438.237C308.46 448.97 321.411 468.19 315.352 459.211C307.777 447.987 301.73 431.297 302.348 431.867C302.843 432.324 304.693 433.327 305.556 433.771Z" stroke="#551923" stroke-width="5"/>
<path d="M115.628 434.035L95.3965 418.002L93.2704 421.328L117.096 441.738L159.629 466.722L266.436 503.441L299.365 512.684L338.073 518.269L357.205 513.717L365.594 492.9L380.225 481.547L383.608 469.331L388.326 441.951L394.28 424.175L395.596 402.117L390.339 405.727L376.592 471.846L359.411 487.191L351.776 506.06L330.962 511.705L159.204 458.925L115.628 434.035Z" fill="#BB894A" stroke="#BB894A"/>
<path d="M126.165 391.398C119.297 395.99 105.288 405.448 104.19 406.55C103.63 406.914 102.443 407.899 102.18 408.926C101.917 409.953 104.583 408.5 105.949 407.645C107.244 406.901 109.938 405.403 110.355 405.365C110.877 405.318 114.665 402.468 115.187 402.421C115.604 402.383 119.561 399.936 121.487 398.717C122.537 398.099 124.68 396.798 124.85 396.532L126.126 394.536C126.757 394.061 128.271 393.026 129.276 392.684C130.532 392.257 132.31 391.782 132.523 391.45C132.693 391.184 135.157 391.943 136.368 392.355C136.542 392.34 137.222 392.403 138.552 392.785C140.214 393.261 139.789 393.926 141.238 394.735C142.687 395.544 143.209 395.497 143.827 396.068C144.322 396.525 146.043 396.703 146.842 396.735C147.718 396.134 149.575 394.921 149.992 394.883C150.514 394.836 151.79 392.84 152.002 392.508C152.172 392.241 153.272 391.035 153.8 390.464C153.987 389.403 154.364 386.966 154.38 385.711C154.396 384.456 154.606 384.332 154.709 384.427L157.994 388.518L158.283 390.372L161.877 394.748C167.443 394.244 178.636 393.294 178.884 393.522C179.131 393.751 181.821 394.824 183.135 395.331L189.454 398.521L192.487 406.081L188.371 410.215L185.955 411.687L184.39 411.829L183.848 413.445L184.563 414.634L192.139 408.933L195.502 406.749C194.427 403.816 192.133 397.714 191.561 396.763C190.989 395.812 189.106 395.731 188.237 395.81C187.857 395.635 186.227 394.801 182.749 392.859C179.27 390.917 178.671 391.034 178.807 391.335L176.623 390.906C173.698 391.38 167.204 392.26 164.622 391.992C162.04 391.725 160.982 391.277 160.776 391.087L159.675 387.425C158.342 385.666 155.551 382.032 155.057 381.575C154.562 381.119 153.601 381.289 153.182 381.431L151.964 387.183L148.253 392.22C146.862 392.346 144.017 392.541 143.77 392.312C143.522 392.084 139.866 390.472 138.069 389.694L128.503 387.739L126.165 391.398Z" fill="#E7CAA8" stroke="#E7CAA8"/>
<path d="M152.917 415.761L155.294 424.124L168.753 424.21C172.438 422.472 180.299 418.83 182.262 418.175M182.262 418.175C184.226 417.52 192.931 410.545 197.038 407.139L191.019 395.413M182.262 418.175L182.391 402.871L181.151 404.811M191.019 395.413L177.612 389.205C172.299 390.47 161.679 392.387 161.7 389.938C161.725 386.877 153.252 375.97 151.987 380.971C150.721 385.972 148.189 395.973 142.119 390.369C136.048 384.764 125.018 386.92 124.992 389.98C124.967 393.041 102.855 403.473 104.069 404.594C105.283 405.715 89.2673 418.691 94.1238 423.175C98.9804 427.658 116.004 440.289 118.432 442.531M191.019 395.413C195.539 391.361 204.591 382.032 204.632 377.135C204.683 371.013 232.891 363.124 232.917 360.064C232.943 357.003 251.258 361.573 252.523 356.572C253.789 351.571 280.551 370.109 279.311 372.049C278.072 373.989 299.977 388.043 303.697 382.223C305.549 379.326 308.356 386.625 310.779 395.306M118.432 442.531C120.375 444.325 146.021 459.776 158.602 467.277M118.432 442.531L113.704 422.744M158.602 467.277L161.184 451.154C164.516 442.92 171.423 426.676 172.395 427.573C173.366 428.47 204.727 414.238 220.287 407.01M158.602 467.277L294.039 512.113M220.287 407.01L236.096 418.521L254.488 413.908C260.197 414.037 271.858 414.52 272.829 415.417C274.043 416.538 280.062 428.264 284.944 429.687M220.287 407.01L215.533 390.284C219.623 388.918 228.294 386.024 230.257 385.369M284.944 429.687C289.827 431.109 304.602 420.073 302.097 427.014C299.591 433.955 300.677 450.38 301.891 451.5C303.105 452.621 309.073 470.469 306.618 471.288C304.164 472.107 308.944 485.773 307.678 490.774C306.412 495.774 287.917 512.63 294.039 512.113M284.944 429.687C294.106 439.517 297.42 401.105 297.446 398.044M294.039 512.113C300.162 511.596 336.766 523.796 335.577 519.615M335.577 519.615C334.389 515.433 328.396 500.646 330.85 499.827C333.304 499.008 331.21 456.976 332.424 458.097C333.638 459.218 338.624 448.397 338.649 445.336C338.675 442.275 336.376 424.73 335.136 426.67M335.577 519.615C336.817 517.675 352.729 516.942 356.423 514.183C360.117 511.424 361.486 494.181 366.394 492.542C371.302 490.904 386.104 476.807 383.701 471.505C381.298 466.202 391.423 426.196 393.852 428.438C396.28 430.68 396.589 393.95 394.083 400.891C391.578 407.832 407.825 367.309 384.473 379.681M335.136 426.67C333.896 428.61 298.352 435.894 305.713 433.437C311.603 431.472 314.005 417.444 314.47 410.676C313.581 406.359 312.251 400.578 310.779 395.306M335.136 426.67C339.252 422.244 348.47 412.452 352.417 408.693C357.351 403.994 362.284 399.295 363.55 394.295C364.562 390.294 377.921 382.885 384.473 379.681M335.136 426.67C334.302 422.94 331.445 414.926 326.688 412.702C321.932 410.479 323.949 404.907 325.551 402.399M310.779 395.306L336.788 375.757L384.473 379.681M251.206 367.694L248.623 383.818C249.838 384.938 253.005 386.628 255.96 384.421C259.654 381.662 264.561 380.024 264.51 386.146M264.51 386.146C264.469 391.043 265.251 395.055 265.647 396.449L264.51 386.146ZM228.347 466.89C229.148 468.658 230.998 471.805 231.99 470.253C232.982 468.701 240.6 464.835 244.286 463.097C247.136 463.671 253.575 464.269 256.53 462.062C259.485 459.855 264.357 452.836 266.423 449.603C271.383 441.844 279.075 429.204 270.169 440.723C261.262 452.242 250.046 457.104 245.551 458.096L228.347 466.89ZM184.51 441.843L182.005 448.783C185.69 447.044 193.303 443.791 194.275 444.688C195.489 445.809 220.157 422.315 218.918 424.254C217.926 425.806 202.127 432.402 194.352 435.506L184.51 441.843Z" stroke="#551923" stroke-width="5"/>
<path d="M362.651 395.021C363.181 395.828 363.7 396.659 364.178 397.483C365.842 400.354 366.998 403.137 366.343 404.479C365.083 407.06 355.789 426.322 351.3 435.63L345.737 419.966L344.349 419.854L343.289 417.706L341.78 413.974L344.344 412.247L358.992 390.09L362.687 391.162L362.651 395.021Z" fill="#E1B054"/>
<path d="M359.298 390.373C362.171 394 367.602 401.899 366.343 404.479M366.343 404.479C365.083 407.06 355.789 426.322 351.3 435.63L345.737 419.966L344.349 419.854L343.289 417.706L341.78 413.974L344.344 412.247L358.992 390.09L362.687 391.162L362.621 398.119M366.343 404.479L362.621 398.119M362.621 398.119L367.891 395.965" stroke="#E1B054"/>
<path d="M100.017 404.625C127.202 408.994 131.497 392.755 132.983 390.56C128.534 391.472 119.007 390.011 116.485 376.873C113.334 360.451 72.8317 400.256 100.017 404.625Z" fill="#E1B054" stroke="#551923" stroke-width="5"/>
<path d="M292.539 444.603L268.754 440.771L263.058 441.592L257.953 448.613L248.688 463.461L247.841 467.291L235.83 476.376L234.264 479.021L231.409 490.243L226.837 493.165L234.565 500.913L245.656 506.983L254.019 519.259L257.351 527.233L273.915 532.859L277.713 522.444L287.849 519.727L296.116 527.366L313.665 532.128L341.593 516.161L342.35 511.684L340.318 503.115L339.23 495.352L337.246 489.102L335.711 482.095L338.982 479.769L340.549 477.124L339.781 473.621C338.928 473.461 337.115 473.163 336.685 473.25C336.146 473.359 332.016 471.534 331.702 471.265L322.268 463.197L314.908 462.026C313.172 461.491 309.594 460.441 309.163 460.529C308.625 460.638 306.557 457.73 306.242 457.461C305.991 457.246 302.477 449.686 300.752 445.934L292.539 444.603Z" fill="#E1B054" stroke="#E1B054" stroke-width="3"/>
<path d="M226.522 492.896L229.57 490.948L242.911 501.219C244.527 502.222 247.886 504.336 248.389 504.766C248.893 505.197 252.675 510.329 254.503 512.842L259.002 521.244L261.475 525.067L271.665 528.658L275.33 519.268L279.679 516.725L288.424 513.956L290.716 516.485L299.339 522.722L313.611 525.819L326.075 519.969L338.044 512.556L334.017 489.756L339.72 492.925L340.983 497.991L342.072 505.754L343.97 515.348L340.027 518.807C335.096 521.801 325.127 527.811 324.696 527.899C324.265 527.986 317.433 531.365 314.07 533.044L297.24 529.467L288.435 521.936L285.563 521.188L278.3 524.654L275.62 533.179L273.782 533.884L261.439 530.729L256.903 527.989L252.943 519.477L249.659 513.823L245.299 508.386L242.426 507.637L227.199 495.752L226.522 492.896Z" fill="#BB894A"/>
<path d="M274.927 488.749L276.402 485.457C278.618 486.782 283.174 489.54 283.677 489.971C284.181 490.401 286.915 494.637 288.219 496.701L290.468 500.902C294.524 502.853 302.806 506.786 303.488 506.914C304.17 507.042 315.202 509.531 320.633 510.76C320.933 511.586 321.489 513.314 321.31 513.616C321.086 513.994 318.171 514.917 317.542 514.379C316.913 513.842 306.324 513.325 304.933 513.274C303.542 513.223 298.559 511.238 296.763 510.272C295.326 509.498 291.585 507.55 289.893 506.673C288.666 505.813 286.067 503.856 285.491 502.908C284.771 501.723 283.556 498.976 282.746 497.144C281.935 495.313 279.196 493.539 279.105 492.892C279.033 492.375 276.289 489.914 274.927 488.749Z" fill="#BB894A"/>
<path d="M226.522 492.896L229.57 490.948L242.911 501.219C244.527 502.222 247.886 504.336 248.389 504.766C248.893 505.197 252.675 510.329 254.503 512.842L259.002 521.244L261.475 525.067L271.665 528.658L275.33 519.268L279.679 516.725L288.424 513.956L290.716 516.485L299.339 522.722L313.611 525.819L326.075 519.969L338.044 512.556L334.017 489.756L339.72 492.925L340.983 497.991L342.072 505.754L343.97 515.348L340.027 518.807C335.096 521.801 325.127 527.811 324.696 527.899C324.265 527.986 317.433 531.365 314.07 533.044L297.24 529.467L288.435 521.936L285.563 521.188L278.3 524.654L275.62 533.179L273.782 533.884L261.439 530.729L256.903 527.989L252.943 519.477L249.659 513.823L245.299 508.386L242.426 507.637L227.199 495.752L226.522 492.896Z" stroke="#BB894A"/>
<path d="M274.927 488.749L276.402 485.457C278.618 486.782 283.174 489.54 283.677 489.971C284.181 490.401 286.915 494.637 288.219 496.701L290.468 500.902C294.524 502.853 302.806 506.786 303.488 506.914C304.17 507.042 315.202 509.531 320.633 510.76C320.933 511.586 321.489 513.314 321.31 513.616C321.086 513.994 318.171 514.917 317.542 514.379C316.913 513.842 306.324 513.325 304.933 513.274C303.542 513.223 298.559 511.238 296.763 510.272C295.326 509.498 291.585 507.55 289.893 506.673C288.666 505.813 286.067 503.856 285.491 502.908C284.771 501.723 283.556 498.976 282.746 497.144C281.935 495.313 279.196 493.539 279.105 492.892C279.033 492.375 276.289 489.914 274.927 488.749Z" stroke="#BB894A"/>
<path d="M249.444 458.984L247.212 466.753L257.602 454.006L264.007 446.389L269.837 444.543L299.143 450.251C300.477 452.531 303.209 457.144 303.46 457.359C303.712 457.574 307.46 461.539 309.302 463.494L322.407 466.162L330.897 473.424C332.544 474.642 336.161 477.015 337.453 476.753C344.764 475.605 331.671 480.917 331.447 481.295C331.268 481.598 333.086 487.061 334.017 489.756L340.082 495.512C339.3 492.566 337.341 486.222 335.759 484.414C334.177 482.605 336.293 481.644 337.549 481.39L340.597 479.442L341.535 476.259C341.234 475.433 340.508 473.673 340.005 473.243C339.376 472.705 335.651 471.796 335.022 471.258C334.519 470.828 329.692 467.459 327.342 465.828C325.725 464.825 322.24 462.604 321.234 461.743C319.976 460.667 309.611 459.773 309.072 459.882C308.642 459.969 307.514 457.98 307.004 456.974L302.729 448.194L299.808 445.127L280.825 441.986L276.876 441.455C274.348 441.19 269.185 440.684 268.754 440.771C268.324 440.858 263.761 442.004 261.534 442.566L249.444 458.984Z" fill="#E7CAA8" stroke="#E7CAA8"/>
<path d="M271.02 440.097C264 439.541 260.46 442.416 259.567 443.923C254.895 450.522 245.854 463.98 247.074 465.023C248.294 466.067 237.988 473.902 232.683 477.69C232.126 482.51 230.044 492.233 226.177 492.558C221.342 492.964 243.581 509.714 244.474 508.206C245.366 506.699 254.534 522.249 256.151 527.275C257.445 531.297 269.235 533.626 274.968 534.287L278.798 523.94L287.285 521.244L296.434 529.068L314.275 533.849C322.294 529.356 339.174 519.727 342.535 517.153C346.737 513.936 341.531 507.212 341.791 502.894C342.051 498.576 338.629 488.838 336.472 484.723C334.315 480.608 343.091 481.302 341.826 475.68C340.562 470.058 338.777 473.072 337.252 471.768C335.727 470.464 334.835 471.971 331.785 469.363L322.637 461.539L309.919 459.743C308.183 457.502 304.586 452.457 304.08 450.208C303.574 447.959 301.415 445.659 300.398 444.789C293.531 443.457 278.041 440.653 271.02 440.097Z" stroke="#551923" stroke-width="3"/>
<path d="M288.267 499.019C285.026 491.693 279.995 487.39 277.884 486.154L276.088 485.187L284.887 488.727L291.636 501.331C300.573 504.37 318.545 510.446 318.928 510.44C326.826 511.501 292.319 508.178 288.267 499.019Z" fill="#551923"/>
<path d="M253.033 520.124C255.856 517.224 261.795 510.766 262.976 508.132M277.884 486.154C279.995 487.39 285.026 491.693 288.267 499.019C292.319 508.178 326.826 511.501 318.928 510.44C318.545 510.446 300.573 504.37 291.636 501.331L284.887 488.727L276.088 485.187L277.884 486.154Z" stroke="#551923" stroke-width="3"/>
<path d="M225.648 460.482L215.835 455.591L207.289 455.458L203.888 462.352L195.342 462.22L192.55 465.784L188.973 471.826L198.213 475.003L196.922 475.649C194.923 476.215 190.672 477.236 189.663 476.793C188.654 476.35 191.127 481.604 192.489 484.286L198.8 491.259L213.589 498.481L225.994 496.312L231.772 494.602L236.312 494.984L238.553 492.35L237.62 484.725L240.121 475.136L240.609 470.478L233.378 464.293L228.226 461.112L225.648 460.482Z" fill="#E1B054" stroke="#E1B054" stroke-width="5"/>
<path d="M193.984 477.162L189.922 477.889C191.664 477.508 194.65 476.909 196.652 476.651L197.744 476.177L196.87 474.204L194.718 473.239C192.711 472.923 188.753 472.198 188.973 471.826C189.193 471.454 190.541 469.433 191.188 468.469L194.008 463.705L196.452 462.644L203.957 462.236L206.64 457.704L208.317 455.638L215.985 455.719L220.178 458.605L218.389 461.626L215.025 463.475L218.237 469.548C219.507 470.342 222.121 471.959 222.417 472.072C222.713 472.185 223.045 471.267 223.173 470.794L218.955 467.186L217.835 464.478L221.117 462.384L222.248 459.325L227.184 460.571C228.774 461.464 232.013 463.301 232.254 463.507C232.495 463.713 235.652 465.946 237.2 467.036L241.294 471.238C241.685 472.622 242.113 474.914 240.701 473.006C239.289 471.098 237.968 469.444 237.485 468.855L235.828 467.438C235.28 467.086 234.153 466.356 234.033 466.253C233.912 466.15 232.886 465.506 232.388 465.197L230.443 463.883L227.839 462.531L226.427 461.849L225.399 461.669L223.191 461.182L222.709 461.995L220.744 464.165C220.017 464.243 218.625 464.523 218.877 465.019C219.128 465.514 220.313 467.064 220.874 467.777C222.035 468.245 224.323 469.466 224.189 470.612C224.055 471.758 223.216 472.639 222.813 472.936L217.825 470.245L213.983 462.934C215.059 462.395 217.265 461.224 217.485 460.853L218.792 458.645L216.093 456.687L208.795 456.747L207.695 458.606L205.011 463.138L196.93 463.753L194.624 464.581L191.941 469.113L190.496 471.553C191.616 471.578 193.977 471.73 194.459 472.142C194.942 472.555 196.497 473.301 197.214 473.623C197.985 474.749 199.348 476.919 198.635 476.589C198.399 476.48 197.647 476.523 196.652 476.651L196.522 476.708L193.984 477.162Z" fill="#E7CAA8" stroke="#E7CAA8" stroke-width="5"/>
<path d="M238.603 479.615L241.225 471.354C241.365 470.914 240.182 473.03 239.574 474.143L236.539 483.101C236.896 485.565 237.596 490.516 237.541 490.609C237.472 490.725 235.657 493.024 235.821 493.514C235.952 493.906 232.619 493.81 230.937 493.713L222.138 496.691C219.394 496.853 213.747 497.216 213.11 497.372C212.474 497.527 204.785 493.927 201.021 492.108C198.698 489.771 193.758 484.672 192.587 482.97C191.416 481.268 191.732 482.881 192.037 483.9L201.06 493.192L213.287 498.223L222.465 497.671L231.402 494.461L236.161 494.855L238.69 492.117L237.931 487.267L237.266 483.023L238.603 479.615Z" stroke="#BB894A" stroke-width="5"/>
<path d="M215.901 454.771C212.979 454.723 207.064 454.67 206.778 454.846L203.295 461.495C201.434 461.828 197.28 462.301 195.558 461.529C193.406 460.564 189.795 469.729 188.036 471.55C186.277 473.371 195.77 473.438 196.412 475.037C197.053 476.636 189.29 475.948 188.864 476.284C188.439 476.62 192.267 483.57 191.635 484.255C191.002 484.939 197.644 490.97 200.356 493.289C202.526 495.145 210.161 497.94 213.707 499.106L223.393 498.463C226.985 496.868 234.652 494.089 236.581 495.739C238.991 497.8 240.778 488.651 239.026 486.627C237.624 485.008 239.183 480.868 240.137 479C240.736 476.712 241.988 472.041 242.208 471.669C242.428 471.297 239.106 467.966 237.417 466.346L232.772 463.074C231.329 462.19 228.218 460.264 227.319 459.635C226.195 458.849 225.262 459.276 224.974 459.38C224.743 459.463 220.135 457.459 217.859 456.446L215.901 454.771Z" stroke="#551923" stroke-width="5"/>
<path d="M218.275 486.734C218.249 486.012 218.481 484.775 219.621 485.61C221.046 486.654 223.791 485.851 224.011 485.863C224.23 485.876 225.589 485.113 225.714 484.519C225.839 483.926 225.089 481.359 226.746 482.776C228.403 484.194 226.945 486.273 226.218 486.351C225.491 486.429 219.447 490.887 218.379 489.624C217.525 488.614 217.954 487.276 218.275 486.734Z" fill="#551923"/>
<path d="M221.194 458.423L220.352 461.379L216.286 464.028L218.87 468.864C221.035 470.19 224.499 472.313 221.035 470.19M218.275 486.734C218.249 486.012 218.481 484.775 219.621 485.61C221.046 486.654 223.791 485.851 224.011 485.863C224.23 485.876 225.589 485.113 225.714 484.519C225.839 483.926 225.089 481.359 226.746 482.776C228.403 484.194 226.945 486.273 226.218 486.351C225.491 486.429 219.447 490.887 218.379 489.624C217.525 488.614 217.954 487.276 218.275 486.734Z" stroke="#551923" stroke-width="5"/>
<path d="M65.9412 394.027L72.833 381.486L75.9376 396.07L82.5904 408.266L106.177 433.319L125.591 448.297L144.51 462.308L176.328 482.472L205.102 497.863L240.045 513.651L267.335 523.437L292.005 530.438L319.728 534.087L349.089 530.462L344.251 545.843L328.083 546.112L303.548 545.19L275.12 538.228L246.553 527.893L226.281 519.773L199.774 506.862L171.922 491.716L149.173 478.767L129.332 464.509L110.132 449.172L89.3036 430.274L79.1027 420.465L71.033 407.057L65.9412 394.027Z" fill="#BFAAAA" stroke="#551923" stroke-width="5"/>
<path d="M438.67 22.9458C438.284 22.9458 431.723 27.1205 430.951 27.5843L433.267 30.3675V35.9337V41.5L438.67 42.8916L446.775 36.8615L449.477 30.8313V26.1928L446.775 22.9458H438.67Z" fill="#E1B054"/>
<path d="M493.475 20.6265C491.546 22.7912 487.455 27.306 486.528 28.0482L492.318 34.0783L494.633 40.1085L500.809 45.6747L508.142 48.4579L519.334 54.488L528.597 60.5181L535.93 68.4037L543.263 72.1145L552.526 58.6627L553.684 45.6747L550.597 35.4699L548.281 22.0181L536.702 11.3494L525.51 6.24696C520.364 5.62849 509.994 4.39154 509.686 4.39154C509.377 4.39154 502.61 5.93773 499.265 6.71082L496.563 10.4217L496.949 13.2048L498.107 18.3072L493.475 20.6265Z" fill="#E1B054"/>
<path d="M430.179 121.747L434.039 103.657L455.652 89.741L464.143 91.5965H473.02L491.16 86.0302L499.651 88.3495L511.615 103.193L507.37 117.109L495.791 129.169L482.283 130.097L474.178 137.518L473.02 143.084L452.564 146.331L442.53 144.476L434.425 146.331L431.723 144.476L429.793 141.693L430.179 138.91L434.039 133.807V124.066L430.179 121.747Z" fill="#E1B054"/>
<path d="M438.67 22.9458C438.284 22.9458 431.723 27.1205 430.951 27.5843L433.267 30.3675V35.9337V41.5L438.67 42.8916L446.775 36.8615L449.477 30.8313V26.1928L446.775 22.9458H438.67Z" stroke="#E1B054" stroke-width="5"/>
<path d="M493.475 20.6265C491.546 22.7912 487.455 27.306 486.528 28.0482L492.318 34.0783L494.633 40.1085L500.809 45.6747L508.142 48.4579L519.334 54.488L528.597 60.5181L535.93 68.4037L543.263 72.1145L552.526 58.6627L553.684 45.6747L550.597 35.4699L548.281 22.0181L536.702 11.3494L525.51 6.24696C520.364 5.62849 509.994 4.39154 509.686 4.39154C509.377 4.39154 502.61 5.93773 499.265 6.71082L496.563 10.4217L496.949 13.2048L498.107 18.3072L493.475 20.6265Z" stroke="#E1B054" stroke-width="5"/>
<path d="M430.179 121.747L434.039 103.657L455.652 89.741L464.143 91.5965H473.02L491.16 86.0302L499.651 88.3495L511.615 103.193L507.37 117.109L495.791 129.169L482.283 130.097L474.178 137.518L473.02 143.084L452.564 146.331L442.53 144.476L434.425 146.331L431.723 144.476L429.793 141.693L430.179 138.91L434.039 133.807V124.066L430.179 121.747Z" stroke="#E1B054" stroke-width="5"/>
<path d="M510.844 44.283L508.142 38.2529L513.931 44.283H510.844Z" stroke="#551923" stroke-width="5"/>
<path d="M444.074 142.621C439.185 142.002 429.253 140.765 428.636 140.765L432.881 146.795L444.846 144.94L450.635 147.723H459.126L471.863 144.94L474.178 139.374L483.827 131.488L489.23 132.416L494.248 131.488L503.897 124.994L513.16 107.367L510.072 98.5542L500.423 93.4518L508.914 107.367L501.967 119.892L493.476 125.922L480.739 128.705L473.02 134.271L471.091 137.518L465.301 140.765L455.652 142.621H444.074Z" fill="#BB894A"/>
<path d="M550.597 54.024V28.512L554.071 38.7168L555.614 43.8192L554.071 55.4156L551.369 62.8373L546.351 70.7229L540.176 73.0421L532.457 67.012C534.644 67.4759 539.25 68.3108 540.176 67.9397C541.334 67.4759 546.737 61.9096 547.509 61.4457C548.127 61.0746 549.825 56.3433 550.597 54.024Z" fill="#BB894A"/>
<path d="M503.897 39.6445L495.792 35.0059C498.879 36.2429 505.054 38.9023 505.054 39.6445C505.054 40.3867 507.628 43.0461 508.914 44.2831L514.703 45.6746L520.879 48.4578H513.931L505.826 46.6023L503.897 39.6445Z" fill="#BB894A"/>
<path d="M444.074 142.621C439.185 142.002 429.253 140.765 428.636 140.765L432.881 146.795L444.846 144.94L450.635 147.723H459.126L471.863 144.94L474.178 139.374L483.827 131.488L489.23 132.416L494.248 131.488L503.897 124.994L513.16 107.367L510.072 98.5542L500.423 93.4518L508.914 107.367L501.967 119.892L493.476 125.922L480.739 128.705L473.02 134.271L471.091 137.518L465.301 140.765L455.652 142.621H444.074Z" stroke="#BB894A" stroke-width="3"/>
<path d="M550.597 54.024V28.512L554.071 38.7168L555.614 43.8192L554.071 55.4156L551.369 62.8373L546.351 70.7229L540.176 73.0421L532.457 67.012C534.644 67.4759 539.25 68.3108 540.176 67.9397C541.334 67.4759 546.737 61.9096 547.509 61.4457C548.127 61.0746 549.825 56.3433 550.597 54.024Z" stroke="#BB894A" stroke-width="3"/>
<path d="M503.897 39.6445L495.792 35.0059C498.879 36.2429 505.054 38.9023 505.054 39.6445C505.054 40.3867 507.628 43.0461 508.914 44.2831L514.703 45.6746L520.879 48.4578H513.931L505.826 46.6023L503.897 39.6445Z" stroke="#BB894A" stroke-width="3"/>
<path d="M430.565 137.518L429.021 142.157L436.741 133.807L437.512 123.139L434.039 118.036L437.512 105.048L465.687 89.2772H458.354L445.232 95.3073L434.425 103.657L434.039 108.295L429.793 120.356L434.039 123.139V133.807L430.565 137.518Z" fill="#E7CAA8"/>
<path d="M494.634 85.5663L480.739 87.8856L476.88 89.2772L496.563 92.5242L504.282 94.3796L499.651 87.8856L494.634 85.5663Z" fill="#E7CAA8"/>
<path d="M488.072 31.2952L485.757 28.9759L496.177 15.5241L495.019 9.49396L502.353 4.39154H513.159H525.124L535.159 9.49396H522.036H507.756H501.195L500.423 14.1325L499.265 22.4819L495.019 26.6566L488.072 31.2952Z" fill="#E7CAA8"/>
<path d="M430.565 137.518L429.021 142.157L436.741 133.807L437.512 123.139L434.039 118.036L437.512 105.048L465.687 89.2772H458.354L445.232 95.3073L434.425 103.657L434.039 108.295L429.793 120.356L434.039 123.139V133.807L430.565 137.518Z" stroke="#E7CAA8" stroke-width="3"/>
<path d="M494.634 85.5663L480.739 87.8856L476.88 89.2772L496.563 92.5242L504.282 94.3796L499.651 87.8856L494.634 85.5663Z" stroke="#E7CAA8" stroke-width="3"/>
<path d="M488.072 31.2952L485.757 28.9759L496.177 15.5241L495.019 9.49396L502.353 4.39154H513.159H525.124L535.159 9.49396H522.036H507.756H501.195L500.423 14.1325L499.265 22.4819L495.019 26.6566L488.072 31.2952Z" stroke="#E7CAA8" stroke-width="3"/>
<path d="M446.641 122.095C445.033 126.021 446.641 128.639 445.033 129.947C443.425 131.256 445.033 136.491 445.033 137.8C445.033 138.847 445.883 143.516 446.308 145.72M446.308 145.72L446.641 145.652L451.466 149.578L465.94 148.27L473.981 144.344L475.589 139.109L483.63 132.565H494.888L506.145 123.404C509.362 117.296 515.473 105.081 514.186 105.081C512.9 105.081 512.578 102.464 512.578 101.155L507.754 95.9203C505.609 94.6116 501.321 90.9471 501.321 86.7591C501.321 85.7122 497.032 83.7054 494.888 82.8329L486.847 84.1417L482.022 85.4504L473.981 89.3766H467.548L457.899 86.7591L445.033 93.3028C441.281 96.3565 433.454 102.464 432.167 102.464C430.559 102.464 432.167 106.39 432.167 107.699C431.095 111.625 428.629 119.739 427.343 120.786C426.056 121.833 430.023 123.84 432.167 124.713V132.565L427.343 137.8V143.035L433.776 148.27L446.308 145.72ZM428.951 26.5573C430.559 26.121 434.097 24.9868 435.384 23.9398C436.67 22.8928 441.281 21.7586 443.425 21.3223L449.858 22.631L451.466 29.1747L449.858 34.4097L445.033 40.9534L438.6 44.8796L432.167 43.5708L430.559 40.9534C431.095 40.0809 432.167 38.0741 432.167 37.0272C432.167 35.9802 432.167 33.1009 432.167 31.7922L428.951 27.866V26.5573ZM483.63 29.1747L488.455 23.9398L494.888 18.7048V13.4699L493.28 10.8524L498.104 4.30874L504.537 3H522.227L533.485 5.61747L541.526 12.1612L549.567 20.0136L552.783 31.7922V35.7184L556 42.2621V47.497L554.392 57.9669L551.175 64.5106L544.742 73.6718H541.526L536.701 72.363L531.877 67.1281L527.052 61.8931L522.227 59.2757L514.186 54.0407C512.578 53.6045 509.362 52.4702 509.362 51.4233C509.362 50.3763 505.073 49.242 502.929 48.8058L496.496 47.497L493.28 38.3359L488.455 34.4097L483.63 29.1747ZM509.362 17.3961C512.042 17.8323 517.724 18.7048 519.011 18.7048C520.298 18.7048 523.836 18.7048 525.444 18.7048L528.66 14.7786L531.877 12.1612L527.052 20.0136L520.619 22.631L509.362 17.3961ZM496.496 33.1009L506.145 34.4097L510.97 39.6446L512.578 43.5708L520.619 46.1883H514.186L507.754 44.8796L506.145 38.3359L496.496 33.1009ZM528.66 44.8796C528.66 43.8326 531.877 40.0809 533.485 38.3359C535.629 37.8996 540.239 37.2889 541.526 38.3359C542.813 39.3829 548.495 44.0071 551.175 46.1883L544.742 38.3359L541.526 37.0272H533.485L528.66 44.8796ZM465.94 123.404L470.765 127.33L473.981 126.021L478.806 119.478V112.934L482.022 105.081L475.589 114.243V119.478L472.373 124.713L465.94 123.404Z" stroke="#551923" stroke-width="5"/>
</svg>
