<svg width="404" height="127" viewBox="0 0 404 127" fill="none" xmlns="http://www.w3.org/2000/svg">
<path d="M28.3184 88.3251L57.1002 77.827L60.0272 69.2376L63.442 66.3745H69.2959L81.9795 67.3289L89.2969 75.4411L93.6873 77.827L101.493 79.7357L392.238 81.6445V88.8023C389.636 91.6654 384.238 97.5825 383.457 98.346C382.677 99.1095 373.05 100.573 368.335 101.209L358.578 94.0513L348.334 96.9144H336.626L325.893 85.462L314.673 90.2338L305.405 96.9144L290.282 92.6198H284.428L274.672 96.9144L257.598 94.0513L255.158 85.462L250.28 83.5532L247.353 92.6198L240.524 96.9144L234.182 94.0513L230.767 96.9144L220.035 99.7776L205.888 99.3004L200.522 95.0057L195.156 95.4829L185.887 98.346L174.179 93.0969L168.813 86.4163C167.675 85.7801 165.398 84.603 165.398 84.9848C165.398 85.3665 163.122 89.2795 161.983 91.1882L158.568 96.9144C156.129 96.2782 151.153 95.0057 150.763 95.0057C150.373 95.0057 147.674 94.3694 146.373 94.0513L138.568 97.8688H129.299L122.469 94.0513L117.591 93.0969C114.989 95.0057 109.591 98.6323 108.81 97.8688C108.029 97.1053 102.306 94.3694 99.5413 93.0969L93.6873 84.9848L88.809 77.3498L82.4673 70.6692C79.3777 69.8739 73.101 68.2833 72.7107 68.2833C72.3205 68.2833 66.3689 68.6014 63.442 68.7604L57.588 88.8023L59.0515 107.413L67.8324 116.956L64.4176 122.205L50.2706 123.637C45.7176 121.728 36.5139 117.72 36.1236 116.956C35.7333 116.193 30.7575 97.5507 28.3184 88.3251Z" fill="#EDBE0C" stroke="#EDBE0C"/>
<path d="M30.7574 87.3707L56.6123 78.7814L62.9541 68.2833L71.2471 65.4202L85.3942 70.6692L94.6629 80.2129L391.262 82.5989L389.311 72.1008V65.4202L394.189 60.1711L400.043 53.0133L398.58 47.7643C397.442 46.1736 394.677 42.8015 392.726 42.038C390.287 41.0837 383.945 40.1293 381.994 40.6065C380.433 40.9882 373.538 47.7643 370.286 51.1046L363.944 62.0799L363.456 62.557C363.066 62.9388 357.765 69.0786 355.163 72.1008L352.236 63.9886L357.602 51.1046C358.578 49.0368 360.627 44.9011 361.017 44.9011C361.505 44.9011 368.822 45.8555 370.774 44.424C372.725 42.9924 374.188 42.9924 374.676 42.038C375.164 41.0837 376.14 37.7434 376.14 36.789C376.14 35.8346 373.701 34.403 372.237 34.403H367.359C368.985 31.0627 372.237 24.2867 372.237 23.9049C372.237 23.4278 371.261 21.9962 368.334 22.4734C365.408 22.9506 360.041 24.8593 357.602 26.2909C355.163 27.7225 351.26 31.0628 350.773 31.5399L348.821 33.4487H343.943H338.089C337.601 33.4487 331.747 33.4487 331.26 34.403C330.869 35.1666 329.146 38.8568 328.333 40.6065C328.007 41.879 327.65 44.424 328.82 44.424H335.162L339.065 45.8555V48.2415C339.065 49.1958 338.87 51.4863 338.089 53.0133C337.113 54.9221 336.138 57.308 335.65 58.7396C335.162 60.1711 335.162 59.6939 333.211 62.557C331.65 64.8475 330.284 66.6927 329.796 67.3289V62.0799C329.796 60.1711 327.357 59.2168 326.381 56.3536C325.406 53.4905 327.357 52.5361 325.406 50.6274C323.454 48.7187 318.576 47.2871 317.6 46.8099C316.82 46.4282 313.698 46.0146 312.234 45.8555C309.145 46.3327 302.673 47.478 301.502 48.2415C300.039 49.1958 290.77 58.7396 290.282 60.1711C289.794 61.6027 286.867 65.4202 285.892 68.2833C285.111 70.5738 281.989 72.737 280.525 73.5323C279.225 73.3733 276.72 72.7688 277.111 71.6236C277.501 70.4783 277.924 63.5114 278.086 60.1711C279.55 59.3758 282.477 57.308 282.477 55.3993C282.477 53.0133 281.501 46.8099 281.013 46.8099C280.623 46.8099 274.997 45.2193 272.232 44.424L264.427 45.3783C264.915 43.1515 265.891 38.4114 265.891 37.2662C265.891 35.8346 265.403 27.7225 265.403 26.7681C265.403 25.8137 266.866 23.905 264.427 21.519C262.476 19.6103 259.061 18.4969 257.597 18.1787L249.304 18.6559C248.166 19.2922 245.987 20.851 246.377 21.9962C246.865 23.4278 247.841 25.8137 247.841 26.2909C247.841 26.7681 248.817 31.0628 248.817 31.5399C248.817 31.9217 248.166 35.8346 247.841 37.7434L245.89 45.8555L241.987 50.6274C238.572 47.4462 231.645 40.9882 231.255 40.6065C230.767 40.1293 226.376 40.1293 225.401 40.1293C224.425 40.1293 222.474 38.2206 220.523 40.6065C218.571 42.9924 214.669 46.8099 213.693 47.7643C212.717 48.7187 209.302 51.5818 208.815 52.5361C208.327 53.4905 206.376 57.308 205.4 58.2624C204.619 59.0259 200.847 66.5336 199.058 70.192L193.692 73.5323C193.367 72.4189 192.814 69.9057 193.204 68.7605C193.692 67.3289 192.716 64.4658 193.692 62.0799C194.668 59.6939 195.155 59.2168 196.131 57.308C196.912 55.781 197.757 53.1724 198.082 52.059C198.082 51.7408 197.985 50.9137 197.595 50.1502C197.107 49.1958 197.107 47.7643 196.131 46.8099C195.351 46.0464 192.554 45.5374 191.253 45.3783L188.326 44.424L173.691 48.7187C172.39 47.7643 169.593 45.8555 168.813 45.8555C168.032 45.8555 163.934 44.9012 161.983 44.424C161.17 44.9012 159.446 46.0464 159.056 46.8099C158.666 47.5734 153.69 60.1711 151.251 66.3745C148.324 69.0786 142.47 74.2004 142.47 73.0552C142.47 71.9099 146.047 55.7174 147.836 47.7643L134.177 45.3783C128.486 54.604 117.103 72.9597 117.103 72.578C117.103 72.1962 118.729 57.4671 119.542 50.1502L110.273 44.424L103.932 50.1502C102.468 54.9221 99.5412 64.3704 99.5412 63.9886C99.5412 63.6069 96.6142 54.604 95.1507 50.1502L82.4672 46.8099L71.2471 47.2871L78.5646 30.5856L89.2968 24.8593L97.102 18.1787C95.6385 15.1565 92.7116 8.92131 92.7116 8.15782C92.7116 7.20344 87.3455 3.86314 83.9307 4.34032C81.1988 4.72207 70.4341 10.2256 65.3932 12.9297L52.7097 16.7472H23.44L5.87817 24.3821V44.9011L16.1226 53.9677L25.3913 42.9924L37.587 36.789L53.1975 34.8802C51.4088 40.7655 47.7338 52.6316 47.3436 53.0133C46.9533 53.3951 41.0018 57.9442 38.0748 60.1711C32.0583 59.853 19.9276 59.2167 19.5374 59.2167C19.1471 59.2167 15.4721 60.1711 13.6834 60.6483L24.4156 82.1217L28.3183 88.8023L30.7574 87.3707Z" fill="#EAEA0E"/>
<path d="M363.944 62.0799L370.286 51.1046C373.538 47.7643 380.433 40.9882 381.994 40.6065C383.945 40.1293 390.287 41.0837 392.726 42.038C394.677 42.8015 397.442 46.1736 398.58 47.7643L400.043 53.0133L394.189 60.1711L389.311 65.4202V72.1008L391.262 82.5989L94.6629 80.2129L85.3942 70.6692L71.2471 65.4202L62.9541 68.2833L56.6123 78.7814L30.7574 87.3707L28.3183 88.8023L24.4156 82.1217L13.6834 60.6483C15.4721 60.1711 19.1471 59.2167 19.5374 59.2167C19.9276 59.2167 32.0583 59.853 38.0748 60.1711C41.0018 57.9442 46.9533 53.3951 47.3436 53.0133C47.7338 52.6316 51.4088 40.7655 53.1975 34.8802L37.587 36.789L25.3913 42.9924L16.1226 53.9677L5.87817 44.9011V24.3821L23.44 16.7472H52.7097L65.3932 12.9297C70.4341 10.2256 81.1988 4.72207 83.9307 4.34032C87.3455 3.86314 92.7116 7.20344 92.7116 8.15782C92.7116 8.92131 95.6385 15.1565 97.102 18.1787L89.2968 24.8593L78.5646 30.5856L71.2471 47.2871L82.4672 46.8099L95.1507 50.1502C96.6142 54.6039 99.5412 63.6069 99.5412 63.9886C99.5412 64.3704 102.468 54.9221 103.932 50.1502L110.273 44.424L119.542 50.1502C118.729 57.4671 117.103 72.1962 117.103 72.578C117.103 72.9597 128.486 54.6039 134.177 45.3783L147.836 47.7643C146.047 55.7174 142.47 71.9099 142.47 73.0552C142.47 74.2004 148.324 69.0786 151.251 66.3745C153.69 60.1711 158.666 47.5734 159.056 46.8099C159.446 46.0464 161.17 44.9012 161.983 44.424C163.934 44.9012 168.032 45.8555 168.813 45.8555C169.593 45.8555 172.39 47.7643 173.691 48.7187L188.326 44.424L191.253 45.3783C192.554 45.5374 195.351 46.0464 196.131 46.8099C197.107 47.7643 197.107 49.1958 197.595 50.1502C197.985 50.9137 198.082 51.7408 198.082 52.059C197.757 53.1724 196.912 55.781 196.131 57.308C195.155 59.2168 194.668 59.6939 193.692 62.0799C192.716 64.4658 193.692 67.3289 193.204 68.7605C192.814 69.9057 193.367 72.4189 193.692 73.5323L199.058 70.192C200.847 66.5336 204.619 59.0259 205.4 58.2624C206.376 57.308 208.327 53.4905 208.815 52.5361C209.302 51.5818 212.717 48.7187 213.693 47.7643C214.669 46.8099 218.571 42.9924 220.523 40.6065C222.474 38.2206 224.425 40.1293 225.401 40.1293C226.376 40.1293 230.767 40.1293 231.255 40.6065C231.645 40.9882 238.572 47.4462 241.987 50.6274L245.89 45.8555L247.841 37.7434C248.166 35.8346 248.817 31.9217 248.817 31.5399C248.817 31.0628 247.841 26.7681 247.841 26.2909C247.841 25.8137 246.865 23.4278 246.377 21.9962C245.987 20.851 248.166 19.2922 249.304 18.6559L257.597 18.1787C259.061 18.4969 262.476 19.6103 264.427 21.519C266.866 23.905 265.403 25.8137 265.403 26.7681C265.403 27.7225 265.891 35.8346 265.891 37.2662C265.891 38.4114 264.915 43.1515 264.427 45.3783L272.232 44.424C274.997 45.2193 280.623 46.8099 281.013 46.8099C281.501 46.8099 282.477 53.0133 282.477 55.3993C282.477 57.308 279.55 59.3758 278.086 60.1711C277.924 63.5114 277.501 70.4784 277.111 71.6236C276.72 72.7688 279.225 73.3733 280.525 73.5323C281.989 72.737 285.111 70.5738 285.892 68.2833C286.867 65.4202 289.794 61.6027 290.282 60.1711C290.77 58.7396 300.039 49.1958 301.502 48.2415C302.673 47.478 309.145 46.3327 312.234 45.8555C313.698 46.0146 316.82 46.4282 317.6 46.8099C318.576 47.2871 323.454 48.7187 325.406 50.6274C327.357 52.5361 325.406 53.4905 326.381 56.3536C327.357 59.2168 329.796 60.1711 329.796 62.0799M363.944 62.0799C363.944 62.0799 363.846 62.1753 363.456 62.557M363.944 62.0799L363.456 62.557M363.456 62.557C363.066 62.9388 357.765 69.0786 355.163 72.1008L352.236 63.9886L357.602 51.1046C358.578 49.0368 360.627 44.9011 361.017 44.9011C361.505 44.9011 368.822 45.8555 370.774 44.424C372.725 42.9924 374.188 42.9924 374.676 42.038C375.164 41.0837 376.14 37.7434 376.14 36.789C376.14 35.8346 373.701 34.403 372.237 34.403M372.237 34.403C371.066 34.403 368.497 34.403 367.359 34.403M372.237 34.403H367.359M367.359 34.403C368.985 31.0627 372.237 24.2867 372.237 23.9049C372.237 23.4278 371.261 21.9962 368.334 22.4734C365.407 22.9506 360.041 24.8593 357.602 26.2909C355.163 27.7225 351.26 31.0628 350.773 31.5399M350.773 31.5399C350.382 31.9217 349.309 32.9715 348.821 33.4487M350.773 31.5399L348.821 33.4487M348.821 33.4487H343.943M343.943 33.4487C342.154 33.4487 338.479 33.4487 338.089 33.4487M343.943 33.4487H338.089M338.089 33.4487C337.601 33.4487 331.747 33.4487 331.26 34.403C330.869 35.1666 329.146 38.8568 328.333 40.6065C328.007 41.879 327.65 44.424 328.82 44.424M328.82 44.424C329.991 44.424 333.536 44.424 335.162 44.424M328.82 44.424H335.162M335.162 44.424L339.065 45.8555V48.2415C339.065 49.1958 338.87 51.4863 338.089 53.0133C337.113 54.9221 336.138 57.308 335.65 58.7396C335.162 60.1711 335.162 59.6939 333.211 62.557C331.65 64.8475 330.284 66.6927 329.796 67.3289M329.796 67.3289C329.796 66.2155 329.796 63.6069 329.796 62.0799M329.796 67.3289V62.0799" stroke="#EAEA0E"/>
<path d="M372.237 61.6027L372.725 63.5114L375.164 69.2376L376.628 74.0095L377.115 77.3498V79.2586L375.652 81.1673L374.676 82.5989L370.286 83.076L366.871 81.6445L364.432 80.2129L367.359 73.0551L372.237 61.6027Z" fill="black"/>
<path fill-rule="evenodd" clip-rule="evenodd" d="M5.87828 20.0875L2.95131 24.3821L1.97566 29.6312L1 36.3118L1.97566 42.9924L3.92697 49.1958L9.78091 55.8764H12.7079L10.2687 60.1711V66.3745L11.7322 71.1464L14.1714 74.4867L17.5862 76.8726L21.001 82.5989C22.9523 87.0526 26.9525 96.0555 27.3427 96.4373C27.733 96.819 28.1558 101.368 28.3184 103.595L29.294 111.707L33.6845 118.388L39.0506 122.683L44.9045 124.591L54.1733 126.5L62.4663 125.546L68.3203 122.683L70.7594 118.388V113.616L68.3203 110.753L64.4177 108.844L61.4907 105.027L60.515 98.8232V90.711L61.9785 83.5532L63.9298 74.9639L65.3933 69.2376H73.6864C74.4669 69.2376 77.589 69.8739 79.0525 70.192L82.4673 71.6236L84.4186 73.0551L84.9064 74.9639L85.3943 77.3498L86.3699 79.2586L87.3456 80.6901C87.5082 81.0082 87.931 81.6445 88.3212 81.6445H90.2725C90.4352 82.7579 90.7604 85.0802 90.7604 85.462C90.7604 85.8437 91.736 87.8479 92.2239 88.8023L96.6143 95.0057L99.0535 96.9145L104.907 99.3004L108.322 99.7776L113.2 99.3004L116.615 97.8688L120.518 95.0057L122.469 97.3916C123.12 97.8688 124.518 98.9186 124.908 99.3004C125.299 99.6821 128.323 100.414 129.787 100.732L135.153 101.209C136.941 101.05 140.616 100.637 141.007 100.255C141.397 99.873 144.096 98.8232 145.397 98.346L148.812 96.4373L153.202 98.8232L156.617 99.7776L161.495 98.8232L163.935 96.4373L165.886 93.097V89.7567L167.349 86.4164L168.813 92.1426L171.74 95.9601L174.667 98.346L179.545 100.732L184.911 101.209C187.025 100.891 191.351 100.255 191.741 100.255C192.131 100.255 195.156 98.9823 196.619 98.346L199.058 96.4373C199.709 97.3916 201.107 99.3958 201.497 99.7776C201.985 100.255 204.912 101.686 205.4 102.163C205.79 102.545 208.815 103.277 210.278 103.595H214.669C215.059 103.595 218.409 103.277 220.035 103.118L224.913 102.163L228.328 100.255L231.743 97.3916L233.206 95.9601L235.645 97.3916L239.548 99.3004H243.451C244.589 98.6641 246.963 97.3916 247.353 97.3916C247.743 97.3916 249.142 95.801 249.792 95.0057V91.1882C249.63 90.2338 249.402 88.3251 249.792 88.3251C250.28 88.3251 251.744 85.462 251.744 85.9392C251.744 86.3209 252.394 89.5976 252.719 91.1882L255.158 95.0057C256.459 96.2782 259.159 98.8232 259.549 98.8232C259.939 98.8232 261.663 99.7776 262.476 100.255L267.842 101.209C269.468 101.209 272.915 101.114 273.696 100.732C274.476 100.35 277.273 99.6185 278.574 99.3004L285.892 94.5285L287.355 95.0057L290.77 97.8688L298.087 100.732C299.063 101.05 301.307 101.591 302.478 101.209C303.649 100.827 308.494 99.7776 310.771 99.3004L315.161 96.4373C316.137 95.4829 318.283 93.4787 319.064 93.097C320.04 92.6198 322.479 88.3251 323.454 88.3251H326.869L327.357 92.1426L329.308 95.0057C330.284 95.801 332.333 97.4871 332.723 97.8688C333.113 98.2506 336.138 99.9366 337.601 100.732L341.504 101.209C343.943 101.05 348.919 100.732 349.309 100.732C349.7 100.732 352.724 99.4594 354.188 98.8232L357.602 96.4373L361.017 99.7776L363.944 102.163L369.31 103.595H375.652L383.945 102.163L390.287 98.346L394.189 93.5742L396.141 88.8023C396.466 87.2117 397.116 83.935 397.116 83.5532C397.116 83.1715 396.791 81.1673 396.629 80.2129L393.702 73.5323L391.75 69.7148L389.799 67.3289L395.653 63.5114L400.043 58.7395L402.97 54.9221L403.458 52.0589L402.97 47.7643L400.043 44.424L396.141 40.6065L389.311 37.2662L385.409 36.3118L380.042 38.2205L379.067 33.9259L377.603 32.4943L375.164 31.0627C374.189 31.2218 372.335 31.4445 372.725 31.0627C373.115 30.681 374.839 28.3587 375.652 27.2452L376.14 23.4278L374.189 20.5646L370.774 19.1331H364.432L359.066 21.0418L352.724 24.8593L348.334 29.154H342.48H335.162L331.747 31.0627L329.308 32.9715L327.357 35.8346L325.406 38.6977L324.918 41.0837L325.406 44.424L326.381 45.8555L328.82 47.7643L331.747 48.7186H336.626L331.747 58.7395L330.772 54.4449L329.308 51.1046L327.357 48.2414L322.967 44.424C321.828 43.6286 319.357 42.038 318.576 42.038C317.796 42.038 313.373 41.7199 311.259 41.5608L306.868 42.038L301.99 43.9468L296.136 47.7643L291.746 52.5361L286.379 60.1711L284.916 63.5114L283.452 66.8517L280.038 69.2376L281.013 65.8973L284.916 56.3536L285.404 53.0133V50.6274L284.428 48.2414L281.013 43.4696L275.647 41.0837L272.72 40.6065L267.354 41.0837L269.793 32.9715L270.281 27.7224L269.305 22.9506L264.915 17.7015L260.037 15.3156L253.207 13.884C252.069 14.3612 249.695 15.3156 249.305 15.3156C248.914 15.3156 246.215 16.5881 244.914 17.2243L242.963 21.519L243.938 25.3365C244.589 25.8137 245.89 26.8635 245.89 27.2452V30.5856C245.89 30.9673 245.239 33.6077 244.914 34.8802L241.011 44.424L234.67 38.6977L227.352 36.789C225.401 37.1071 221.401 37.7433 221.01 37.7433C220.62 37.7433 215.644 40.9246 213.205 42.5152L209.79 47.2871L204.424 54.4449L202.961 60.1711L198.083 67.8061L195.643 68.7605C196.782 66.3745 199.058 61.5072 199.058 61.1255C199.058 60.7437 200.359 56.5127 201.01 54.4449V50.1502L199.058 45.8555L192.229 41.5608L187.35 41.0837H184.911L180.033 42.5152L174.179 45.8555L170.276 42.9924L166.862 41.5608L162.959 41.0837L159.056 41.5608L156.617 44.424L154.666 48.7186V52.5361L153.202 57.308C152.064 59.2167 149.788 63.2251 149.788 63.9886C149.788 64.7521 146.535 68.1242 144.909 69.7148C145.722 66.8517 147.348 61.03 147.348 60.6483C147.348 60.2665 149.625 55.3992 150.763 53.0133L151.739 48.7186L150.275 45.3783L144.421 42.038L139.543 41.0837L135.641 41.5608L131.25 44.424L123.445 56.3536V50.1502C123.445 49.7684 122.144 47.128 121.494 45.8555L117.591 43.4696L113.688 41.5608H107.347L103.932 43.4696L101.98 46.3327L101.493 50.1502L100.517 52.5361L98.0778 48.2414L92.7117 45.3783L86.8577 43.9468C83.9308 44.1058 77.8817 44.424 77.1012 44.424C76.1255 44.424 73.6864 45.3783 73.6864 44.9011C73.6864 44.5194 76.9386 39.6521 78.5647 37.2662L81.0038 32.4943C83.6056 31.858 89.0042 30.4901 89.7847 30.1084C90.5652 29.7266 93.6873 27.7224 95.1508 26.7681L99.5413 21.519L100.517 15.7928L99.5413 11.0209L96.6143 6.24905L91.2482 2.43156L85.3943 1L80.0282 1C79.6379 1 77.2638 1.31812 76.1255 1.47719L71.2472 4.81749L64.4177 12.9297L25.3914 13.4068L15.147 15.3156L8.80525 18.1787L5.87828 20.0875ZM19.5375 20.5646C18.5618 21.0418 14.6592 21.9962 14.1714 22.4734L8.31742 25.3365L6.36611 31.0627V36.3118L7.82959 42.9924L9.29308 46.8099L11.7322 49.1958L14.1714 51.1046L18.074 50.6274L19.5375 48.7186L20.5131 43.4696L22.4644 40.1293L31.2453 34.403L40.0262 31.5399L53.6854 30.1084L61.4907 29.154L56.1246 39.6521L50.7585 50.6274L46.8558 58.7395L34.6601 63.0342L25.8792 63.9886L20.5131 62.557L16.6105 60.1711L15.6348 60.6483V63.9886L17.0983 67.8061L21.001 72.5779L25.8792 79.2586L31.2453 89.7567L33.6845 97.8688L34.6601 107.413L35.148 110.753L38.0749 114.093L42.9532 117.911L50.2706 120.297H58.0759L62.4663 119.342L64.4177 117.911V115.525L59.0515 112.184L55.1489 105.504L54.6611 100.732L55.1489 88.3251L56.1246 80.2129L60.515 63.9886L70.7594 62.557L77.589 63.5114L83.9308 64.943L88.3212 68.2833L90.7604 71.1464L91.2482 73.0551V74.9639L91.736 75.9183C91.736 76.3954 92.0287 77.0635 93.1995 75.9183L95.6386 73.5323L97.1021 68.2833L97.59 64.943L97.1021 62.0798L96.6143 58.2624L95.1508 54.9221L91.2482 51.1046C89.9473 50.7864 87.248 50.1502 86.8577 50.1502H81.4916C81.1014 50.1502 76.1255 50.7864 73.6864 51.1046L64.4177 52.5361L77.589 27.2452L81.9795 26.2909L89.7847 23.4278L92.7117 21.519L93.6873 19.1331L94.663 16.7471V14.8384L92.7117 11.4981L89.7847 8.63498L84.4186 6.24905H80.516C80.1257 6.24905 78.0768 6.8853 77.1012 7.20342L74.1742 9.58935L68.3203 18.1787C67.5398 19.324 59.2142 19.2921 55.1489 19.1331H42.4654H30.2697C27.0175 19.4512 20.318 20.1829 19.5375 20.5646ZM22.9523 54.4449C22.1392 54.6039 20.4156 55.0175 20.0253 55.3992L23.9279 57.308H26.8549H33.1967C33.5869 57.308 36.6115 56.3536 38.0749 55.8764L42.4654 53.9677L50.2706 36.789C46.8558 37.2662 39.9287 38.2205 39.5384 38.2205C39.0506 38.2205 31.7332 41.0837 31.2453 41.5608C30.7575 42.038 27.3427 43.4696 26.8549 43.9468C26.4646 44.3285 26.0418 45.6965 25.8792 46.3327L24.9036 50.6274L22.9523 54.4449ZM107.347 51.1046V48.2414V46.8099H107.834H109.298H111.249L114.664 48.2414L116.615 49.1958L118.079 51.5817V53.0133V55.3992L115.152 61.6027L113.2 67.3289L112.713 68.7605V71.1464L113.2 74.0095L113.688 74.9639L114.176 75.4411L115.152 75.9183H117.103L118.567 75.4411L120.03 74.4867L122.469 71.6236L125.396 66.3745L127.835 60.6483L133.201 51.5817L136.616 46.8099H139.055H142.47L144.421 47.7643L145.885 49.1958V50.6274L143.446 55.8764L141.494 61.1255L140.031 66.3745L139.055 70.6692L139.543 74.0095L140.031 74.9639L141.007 75.9183H143.446H145.397L148.812 74.0095L152.715 70.192L154.666 67.3289L156.129 64.4658L157.105 62.0798L159.056 58.2624L160.032 54.9221L160.52 48.2414L161.008 47.2871L164.422 46.8099L167.837 47.7643L169.301 49.1958L171.252 51.1046L171.74 52.5361V53.4905V54.9221V55.8764L171.252 56.8308L170.764 58.2624L172.228 55.8764L177.594 50.1502L181.984 47.7643L186.863 46.3327L190.277 46.8099L193.692 49.1958L195.156 51.1046L195.643 52.0589V54.9221L192.716 62.0798L190.765 65.4202L190.277 68.7605V73.0551C190.277 73.4369 190.603 74.1686 190.765 74.4867L192.716 75.9183H195.156L199.058 74.0095L202.473 70.192L205.4 67.3289L207.839 62.557L209.303 58.7395L213.205 52.0589L215.644 48.2414L221.01 43.9468C222.637 43.4696 225.986 42.5152 226.377 42.5152H228.816L230.279 42.9924L233.694 45.3783L237.109 48.7186L238.084 50.1502V52.5361L236.133 55.8764L232.231 59.6939L229.791 61.6027L227.352 62.0798L229.304 57.308L230.767 53.4905V51.5817L229.304 51.1046L226.864 52.0589L222.962 54.9221L221.498 57.308V62.0798L226.377 71.1464L229.791 77.3498L231.255 80.6901L231.743 84.0304L230.767 89.7567L228.816 92.6198L224.913 95.4829L217.596 97.8688L213.205 98.346L208.815 97.8688L205.888 95.9601L202.961 93.097L200.034 87.8479L196.619 91.6654L191.253 94.5285L188.326 95.4829H183.448L179.545 94.5285L176.618 92.6198L173.203 88.3251L172.715 85.462V81.1673L173.203 76.8726L175.642 70.6692L179.545 63.5114L181.984 59.2167V58.2624L181.009 57.7852L176.618 62.0798L168.325 72.1008L163.935 79.7357L161.008 85.9392L160.52 87.8479V90.2338V93.097L159.056 94.0513H156.617L154.178 93.097L150.763 90.2338L149.3 87.8479L145.397 91.6654L141.494 94.0513L137.104 95.4829H135.153H131.25L125.884 93.5742L124.908 92.1426L123.445 90.2338L121.981 84.0304L116.127 91.1882L113.2 93.097L110.273 94.0513H107.347L104.907 93.5742L101.493 91.6654L98.0778 88.8023L96.1265 83.5532V79.2586L98.0778 71.1464L100.517 64.943L103.444 58.7395L105.883 53.9677L107.347 51.1046ZM249.305 23.4278V21.519L249.792 20.5646H251.256L256.134 20.0875L258.573 20.5646L262.476 23.4278L263.939 25.8137L264.427 29.154V30.5856L263.939 32.4943L262.964 37.2662L258.573 47.2871L252.231 62.0798L257.598 54.9221L260.037 52.0589L262.476 50.1502L264.915 48.2414L269.305 46.8099L271.745 46.3327H273.696L276.623 47.7643L279.062 50.1502L279.55 52.0589V54.9221L275.159 64.943L274.184 69.2376V71.6236L275.159 74.0095L276.135 75.9183L279.55 76.3954L284.428 73.0551L287.355 70.6692L289.306 67.8061L293.209 60.6483L298.087 53.9677L302.966 50.1502L308.82 47.2871L313.21 46.8099L317.113 47.2871L319.552 48.7186L322.967 51.1046L324.43 54.4449L325.406 56.8308V59.2167L324.918 62.557L325.894 63.9886L326.381 66.3745L325.894 72.1008L330.284 69.7148L336.138 63.0342L337.601 59.2167L341.992 51.1046L346.87 42.5152H336.138H332.235H331.26L330.772 41.5608L331.26 39.6521L337.114 34.403L351.261 35.8346L353.7 32.0171L356.139 29.154L359.554 27.2452L365.895 25.3365L368.335 24.8593L370.286 25.3365L361.993 36.789H373.701V38.2205L372.237 40.6065L370.286 42.5152H359.066L354.675 50.6274L351.261 58.7395L349.309 63.9886L348.821 67.8061V71.6236L349.309 74.0095L350.285 75.4411L352.236 76.3954L355.651 75.4411L359.066 73.0551L361.017 71.6236L364.92 66.3745L366.383 63.5114L368.822 59.2167L370.286 55.3992L373.701 50.6274L375.164 48.7186L378.091 45.8555L381.506 43.4696L384.433 42.9924H387.848L390.775 43.4696L393.702 45.8555L396.141 48.2414L397.116 49.673L397.604 52.0589L397.116 53.4905L395.165 56.3536L393.214 58.2624L391.262 60.1711L388.823 61.6027L386.872 62.0798L389.311 55.3992L389.799 53.4905V52.0589L389.311 51.5817L386.384 52.0589L382.482 54.9221L380.53 57.7852V60.6483L381.994 64.4658L385.896 72.1008L388.823 77.3498L390.775 81.6445L391.262 84.5076L390.287 88.3251L387.848 92.1426L382.969 96.4373C381.994 96.7554 379.945 97.3916 379.555 97.3916C379.164 97.3916 374.839 98.0279 372.725 98.346L368.335 97.8688L363.456 95.0057L360.041 90.711L359.066 87.8479L354.188 92.1426L351.261 94.0513L345.894 95.4829H341.504L337.601 94.5285L335.65 93.097L333.699 90.711L331.747 86.8935L331.26 83.076V77.3498L326.869 81.1673C326.056 81.6445 324.235 82.5989 323.454 82.5989H321.015L319.064 84.9848L314.186 90.2338L310.771 93.097L306.38 95.0057L304.429 95.4829H301.014C300.039 95.4829 299.063 95.0057 298.575 95.0057C298.185 95.0057 296.136 94.3695 295.16 94.0513L291.258 91.1882L288.819 87.8479L287.843 84.0304L285.892 86.8935L280.526 92.1426L276.623 94.5285L270.769 95.4829H266.378L261.988 93.5742L260.037 91.6654L258.085 87.8479L257.11 84.9848V77.827L258.085 74.4867L261.5 67.3289L264.915 62.0798L265.891 60.1711V57.7852L262.964 59.6939L256.622 66.8517L250.768 74.9639L248.817 77.3498L244.914 86.4164L243.938 89.2795V92.1426V93.097L242.963 94.0513H240.524L235.645 90.711L233.206 87.3707L232.718 83.5532L233.206 78.7814L244.914 51.5817L249.305 40.6065L250.28 37.2662L251.256 30.1084V27.2452L250.768 24.3821L249.305 23.4278ZM367.359 48.7186C367.847 48.2414 363.456 48.2414 361.993 48.7186L355.651 63.9886L353.7 69.7148C356.139 67.3289 361.017 62.4616 361.017 62.0798C361.017 61.6981 361.668 59.6939 361.993 58.7395C363.619 55.5583 366.969 49.1004 367.359 48.7186Z" fill="black"/>
<path d="M65.3933 69.2376L63.9298 74.9639L61.9785 83.5532L60.515 90.711V98.8232L61.4907 105.027L64.4177 108.844L68.3203 110.753L70.7594 113.616V118.388L68.3203 122.683L62.4663 125.546L54.1733 126.5L44.9045 124.591L39.0506 122.683L33.6845 118.388L29.294 111.707L28.3184 103.595C28.1558 101.368 27.733 96.819 27.3427 96.4373C26.9525 96.0555 22.9523 87.0526 21.001 82.5989L17.5862 76.8726L14.1714 74.4867L11.7322 71.1464L10.2687 66.3745V60.1711L12.7079 55.8764H9.78091L3.92697 49.1958L1.97566 42.9924L1 36.3118L1.97566 29.6312L2.95131 24.3821L5.87828 20.0875L8.80525 18.1787L15.147 15.3156L25.3914 13.4068L64.4177 12.9297L71.2472 4.81749L76.1255 1.47719C77.2638 1.31812 79.6379 1 80.0282 1M65.3933 69.2376C67.8325 69.2376 72.9059 69.2376 73.6864 69.2376M65.3933 69.2376H73.6864M73.6864 69.2376C74.4669 69.2376 77.589 69.8739 79.0525 70.192L82.4673 71.6236L84.4186 73.0551L84.9064 74.9639L85.3943 77.3498L86.3699 79.2586L87.3456 80.6901C87.5082 81.0082 87.931 81.6445 88.3212 81.6445M88.3212 81.6445C88.7115 81.6445 89.7847 81.6445 90.2725 81.6445M88.3212 81.6445H90.2725M90.2725 81.6445C90.4352 82.7579 90.7604 85.0802 90.7604 85.462C90.7604 85.8437 91.736 87.8479 92.2239 88.8023L96.6143 95.0057L99.0534 96.9145L104.907 99.3004L108.322 99.7776L113.2 99.3004L116.615 97.8688L120.518 95.0057L122.469 97.3916C123.12 97.8688 124.518 98.9186 124.908 99.3004C125.299 99.6821 128.323 100.414 129.787 100.732L135.153 101.209C136.941 101.05 140.616 100.637 141.007 100.255C141.397 99.873 144.096 98.8232 145.397 98.346L148.812 96.4373L153.202 98.8232L156.617 99.7776L161.495 98.8232L163.935 96.4373L165.886 93.097V89.7567L167.349 86.4164L168.813 92.1426L171.74 95.9601L174.667 98.346L179.545 100.732L184.911 101.209C187.025 100.891 191.351 100.255 191.741 100.255C192.131 100.255 195.156 98.9823 196.619 98.346L199.058 96.4373C199.709 97.3916 201.107 99.3958 201.497 99.7776C201.985 100.255 204.912 101.686 205.4 102.164C205.79 102.545 208.815 103.277 210.278 103.595M210.278 103.595C211.579 103.595 214.278 103.595 214.669 103.595M210.278 103.595H214.669M214.669 103.595C215.059 103.595 218.409 103.277 220.035 103.118L224.913 102.164L228.328 100.255L231.743 97.3916L233.206 95.9601L235.645 97.3916L239.548 99.3004H243.451C244.589 98.6641 246.963 97.3916 247.353 97.3916C247.743 97.3916 249.142 95.801 249.792 95.0057V91.1882C249.63 90.2338 249.402 88.3251 249.792 88.3251C250.28 88.3251 251.744 85.462 251.744 85.9392C251.744 86.3209 252.394 89.5976 252.719 91.1882L255.158 95.0057C256.459 96.2782 259.159 98.8232 259.549 98.8232C259.939 98.8232 261.663 99.7776 262.476 100.255L267.842 101.209C269.468 101.209 272.915 101.114 273.696 100.732C274.476 100.35 277.273 99.6185 278.574 99.3004L285.892 94.5285L287.355 95.0057L290.77 97.8688L298.087 100.732C299.063 101.05 301.307 101.591 302.478 101.209C303.649 100.827 308.494 99.7776 310.771 99.3004L315.161 96.4373C316.137 95.4829 318.283 93.4787 319.064 93.097C320.04 92.6198 322.479 88.3251 323.454 88.3251M323.454 88.3251C324.235 88.3251 326.056 88.3251 326.869 88.3251M323.454 88.3251H326.869M326.869 88.3251L327.357 92.1426L329.308 95.0057C330.284 95.801 332.333 97.4871 332.723 97.8688C333.113 98.2506 336.138 99.9366 337.601 100.732L341.504 101.209C343.943 101.05 348.919 100.732 349.309 100.732C349.7 100.732 352.724 99.4594 354.188 98.8232L357.602 96.4373L361.017 99.7776L363.944 102.164L369.31 103.595H375.652L383.945 102.164L390.287 98.346L394.189 93.5741L396.141 88.8023C396.466 87.2117 397.116 83.935 397.116 83.5532C397.116 83.1715 396.791 81.1673 396.629 80.2129L393.702 73.5323L391.75 69.7148L389.799 67.3289L395.653 63.5114L400.043 58.7395L402.97 54.9221L403.458 52.0589L402.97 47.7643L400.043 44.424L396.141 40.6065L389.311 37.2662L385.409 36.3118L380.042 38.2205L379.067 33.9259L377.603 32.4943L375.164 31.0627C374.189 31.2218 372.335 31.4445 372.725 31.0627C373.115 30.681 374.839 28.3587 375.652 27.2452L376.14 23.4278L374.189 20.5646L370.774 19.1331H364.432L359.066 21.0418L352.724 24.8593L348.334 29.154H342.48H335.162L331.747 31.0627L329.308 32.9715L327.357 35.8346L325.406 38.6977L324.918 41.0837L325.406 44.424L326.381 45.8555L328.82 47.7643L331.747 48.7186H336.626L331.747 58.7395L330.772 54.4449L329.308 51.1046L327.357 48.2414L322.967 44.424C321.828 43.6286 319.357 42.038 318.576 42.038C317.796 42.038 313.373 41.7199 311.259 41.5608L306.868 42.038L301.99 43.9468L296.136 47.7643L291.746 52.5361L286.379 60.1711L284.916 63.5114L283.452 66.8517L280.038 69.2376L281.013 65.8973L284.916 56.3536L285.404 53.0133V50.6274L284.428 48.2414L281.013 43.4696L275.647 41.0837L272.72 40.6065L267.354 41.0837L269.793 32.9715L270.281 27.7224L269.305 22.9506L264.915 17.7015L260.037 15.3156L253.207 13.884C252.069 14.3612 249.695 15.3156 249.305 15.3156C248.914 15.3156 246.215 16.5881 244.914 17.2243L242.963 21.519L243.938 25.3365C244.589 25.8137 245.89 26.8635 245.89 27.2452M245.89 27.2452C245.89 27.7224 245.89 30.1084 245.89 30.5856M245.89 27.2452V30.5856M245.89 30.5856C245.89 30.9673 245.239 33.6077 244.914 34.8802L241.011 44.424L234.67 38.6977L227.352 36.789C225.401 37.1071 221.401 37.7433 221.01 37.7433C220.62 37.7433 215.644 40.9246 213.205 42.5152L209.79 47.2871L204.424 54.4449L202.961 60.1711L198.083 67.8061L195.643 68.7605C196.782 66.3745 199.058 61.5072 199.058 61.1255C199.058 60.7437 200.359 56.5127 201.01 54.4449V50.1502L199.058 45.8555L192.229 41.5608L187.35 41.0837H184.911L180.033 42.5152L174.179 45.8555L170.276 42.9924L166.862 41.5608L162.959 41.0837L159.056 41.5608L156.617 44.424L154.666 48.7186V52.5361L153.202 57.308C152.064 59.2167 149.788 63.2251 149.788 63.9886C149.788 64.7521 146.535 68.1242 144.909 69.7148C145.722 66.8517 147.348 61.03 147.348 60.6483C147.348 60.2665 149.625 55.3992 150.763 53.0133L151.739 48.7186L150.275 45.3783L144.421 42.038L139.543 41.0837L135.641 41.5608L131.25 44.424L123.445 56.3536M123.445 56.3536C123.445 54.4449 123.445 50.5319 123.445 50.1502M123.445 56.3536V50.1502M123.445 50.1502C123.445 49.7684 122.144 47.128 121.494 45.8555L117.591 43.4696L113.688 41.5608H107.347L103.932 43.4696L101.98 46.3327L101.493 50.1502L100.517 52.5361L98.0778 48.2414L92.7117 45.3783L86.8577 43.9468C83.9308 44.1058 77.8817 44.424 77.1012 44.424C76.1255 44.424 73.6864 45.3783 73.6864 44.9011C73.6864 44.5194 76.9386 39.6521 78.5647 37.2662L81.0038 32.4943C83.6056 31.858 89.0042 30.4901 89.7847 30.1084C90.5652 29.7266 93.6873 27.7224 95.1508 26.7681L99.5413 21.519L100.517 15.7928L99.5413 11.0209L96.6143 6.24905L91.2482 2.43156L85.3943 1M85.3943 1C83.7682 1 80.4184 1 80.0282 1M85.3943 1L80.0282 1M30.2697 19.1331C27.0175 19.4512 20.318 20.1829 19.5375 20.5646C18.5618 21.0418 14.6592 21.9962 14.1714 22.4734L8.31742 25.3365L6.36611 31.0627V36.3118L7.82959 42.9924L9.29308 46.8099L11.7322 49.1958L14.1714 51.1046L18.074 50.6274L19.5375 48.7186L20.5131 43.4696L22.4644 40.1293L31.2453 34.403L40.0262 31.5399L53.6854 30.1084L61.4907 29.154L56.1246 39.6521L50.7585 50.6274L46.8558 58.7395L34.6601 63.0342L25.8792 63.9886L20.5131 62.557L16.6105 60.1711L15.6348 60.6483V63.9886L17.0983 67.8061L21.001 72.5779L25.8792 79.2586L31.2453 89.7567L33.6845 97.8688L34.6601 107.413L35.148 110.753L38.0749 114.093L42.9532 117.911L50.2706 120.297H58.0759L62.4663 119.342L64.4177 117.911V115.525L59.0515 112.184L55.1489 105.504L54.6611 100.732L55.1489 88.3251L56.1246 80.2129L60.515 63.9886L70.7594 62.557L77.589 63.5114L83.9308 64.943L88.3212 68.2833L90.7604 71.1464L91.2482 73.0551V74.9639L91.736 75.9183C91.736 76.3954 92.0287 77.0635 93.1995 75.9183M30.2697 19.1331C34.1723 19.1331 42.0751 19.1331 42.4654 19.1331M30.2697 19.1331H42.4654M42.4654 19.1331C42.8557 19.1331 51.0837 19.1331 55.1489 19.1331M42.4654 19.1331H55.1489M55.1489 19.1331C59.2142 19.2921 67.5398 19.324 68.3203 18.1787M68.3203 18.1787C69.1008 17.0335 72.5481 11.9753 74.1742 9.58935M68.3203 18.1787L74.1742 9.58935M74.1742 9.58935L77.1012 7.20342C78.0768 6.8853 80.1257 6.24905 80.516 6.24905M80.516 6.24905C80.9062 6.24905 83.2803 6.24905 84.4186 6.24905M80.516 6.24905H84.4186M84.4186 6.24905L89.7847 8.63498L92.7117 11.4981L94.663 14.8384V16.7471L93.6873 19.1331L92.7117 21.519L89.7847 23.4278L81.9795 26.2909L77.589 27.2452L64.4177 52.5361L73.6864 51.1046C76.1255 50.7864 81.1014 50.1502 81.4916 50.1502M81.4916 50.1502C81.9795 50.1502 86.3699 50.1502 86.8577 50.1502M81.4916 50.1502H86.8577M86.8577 50.1502C87.248 50.1502 89.9473 50.7864 91.2482 51.1046L95.1508 54.9221L96.6143 58.2624L97.1021 62.0798L97.59 64.943L97.1021 68.2833L95.6387 73.5323M95.6387 73.5323C95.3134 73.8504 94.3703 74.773 93.1995 75.9183M95.6387 73.5323L93.1995 75.9183M33.1967 57.308C33.5869 57.308 36.6115 56.3536 38.0749 55.8764L42.4654 53.9677L50.2706 36.789C46.8558 37.2662 39.9287 38.2205 39.5384 38.2205C39.0506 38.2205 31.7332 41.0837 31.2453 41.5608C30.7575 42.038 27.3427 43.4696 26.8549 43.9468C26.4646 44.3285 26.0418 45.6965 25.8792 46.3327L24.9036 50.6274L22.9523 54.4449C22.1392 54.6039 20.4156 55.0175 20.0253 55.3992L23.9279 57.308H26.8549M33.1967 57.308C32.8064 57.308 28.8062 57.308 26.8549 57.308M33.1967 57.308H26.8549M228.816 42.5152L230.279 42.9924L233.694 45.3783L237.109 48.7186L238.084 50.1502V52.5361L236.133 55.8764L232.231 59.6939L229.791 61.6027L227.352 62.0798L229.304 57.308L230.767 53.4905V51.5818L229.304 51.1046L226.864 52.0589L222.962 54.9221L221.498 57.308V62.0798L226.377 71.1464L229.791 77.3498L231.255 80.6901L231.743 84.0304L230.767 89.7567L228.816 92.6198L224.913 95.4829L217.596 97.8688L213.205 98.346L208.815 97.8688L205.888 95.9601L202.961 93.097L200.034 87.8479L196.619 91.6654L191.253 94.5285L188.326 95.4829H183.448L179.545 94.5285L176.618 92.6198L173.203 88.3251L172.715 85.462V81.1673L173.203 76.8726L175.642 70.6692L179.545 63.5114L181.984 59.2167V58.2624L181.009 57.7852L176.618 62.0798L168.325 72.1008L163.935 79.7357L161.008 85.9392L160.52 87.8479V90.2338V93.097L159.056 94.0513H156.617L154.178 93.097L150.763 90.2338L149.3 87.8479L145.397 91.6654L141.494 94.0513L137.104 95.4829H135.153H131.25L125.884 93.5741L124.908 92.1426L123.445 90.2338L121.981 84.0304L116.127 91.1882L113.2 93.097L110.273 94.0513H107.347L104.907 93.5741L101.493 91.6654L98.0778 88.8023L96.1265 83.5532V79.2586L98.0778 71.1464L100.517 64.943L103.444 58.7395L105.883 53.9677L107.347 51.1046V48.2414V46.8099H107.834H109.298H111.249L114.664 48.2414L116.615 49.1958L118.079 51.5818V53.0133V55.3992L115.152 61.6027L113.2 67.3289L112.713 68.7605V71.1464L113.2 74.0095L113.688 74.9639L114.176 75.4411L115.152 75.9183H117.103L118.567 75.4411L120.03 74.4867L122.469 71.6236L125.396 66.3745L127.835 60.6483L133.201 51.5818L136.616 46.8099H139.055H142.47L144.421 47.7643L145.885 49.1958V50.6274L143.446 55.8764L141.494 61.1255L140.031 66.3745L139.055 70.6692L139.543 74.0095L140.031 74.9639L141.007 75.9183H143.446H145.397L148.812 74.0095L152.715 70.192L154.666 67.3289L156.129 64.4658L157.105 62.0798L159.056 58.2624L160.032 54.9221L160.52 48.2414L161.008 47.2871L164.422 46.8099L167.837 47.7643L169.301 49.1958L171.252 51.1046L171.74 52.5361V53.4905V54.9221V55.8764L171.252 56.8308L170.764 58.2624L172.228 55.8764L177.594 50.1502L181.984 47.7643L186.863 46.3327L190.277 46.8099L193.692 49.1958L195.156 51.1046L195.643 52.0589V54.9221L192.716 62.0798L190.765 65.4202L190.277 68.7605M228.816 42.5152C228.165 42.5152 226.767 42.5152 226.377 42.5152M228.816 42.5152H226.377M226.377 42.5152C225.986 42.5152 222.637 43.4696 221.01 43.9468L215.644 48.2414L213.205 52.0589L209.303 58.7395L207.839 62.557L205.4 67.3289L202.473 70.192L199.058 74.0095L195.156 75.9183H192.716L190.765 74.4867C190.603 74.1686 190.277 73.4369 190.277 73.0551M190.277 73.0551C190.277 72.6734 190.277 70.033 190.277 68.7605M190.277 73.0551V68.7605M243.938 93.097L242.963 94.0513H240.524L235.645 90.711L233.206 87.3707L232.718 83.5532L233.206 78.7814L244.914 51.5818L249.305 40.6065L250.28 37.2662L251.256 30.1084V27.2452L250.768 24.3821L249.305 23.4278V21.519L249.792 20.5646H251.256L256.134 20.0875L258.573 20.5646L262.476 23.4278L263.939 25.8137L264.427 29.154V30.5856L263.939 32.4943L262.964 37.2662L258.573 47.2871L252.231 62.0798L257.598 54.9221L260.037 52.0589L262.476 50.1502L264.915 48.2414L269.305 46.8099L271.745 46.3327H273.696L276.623 47.7643L279.062 50.1502L279.55 52.0589V54.9221L275.159 64.943L274.184 69.2376V71.6236L275.159 74.0095L276.135 75.9183L279.55 76.3954L284.428 73.0551L287.355 70.6692L289.306 67.8061L293.209 60.6483L298.087 53.9677L302.966 50.1502L308.82 47.2871L313.21 46.8099L317.113 47.2871L319.552 48.7186L322.967 51.1046L324.43 54.4449L325.406 56.8308V59.2167L324.918 62.557L325.894 63.9886L326.381 66.3745L325.894 72.1008L330.284 69.7148L336.138 63.0342L337.601 59.2167L341.992 51.1046L346.87 42.5152H336.138H332.235H331.26L330.772 41.5608L331.26 39.6521L337.114 34.403L351.261 35.8346L353.7 32.0171L356.139 29.154L359.554 27.2452L365.895 25.3365L368.335 24.8593L370.286 25.3365L361.993 36.789H373.701V38.2205L372.237 40.6065L370.286 42.5152H359.066L354.675 50.6274L351.261 58.7395L349.309 63.9886L348.821 67.8061V71.6236L349.309 74.0095L350.285 75.4411L352.236 76.3954L355.651 75.4411L359.066 73.0551L361.017 71.6236L364.92 66.3745L366.383 63.5114L368.822 59.2167L370.286 55.3992L373.701 50.6274L375.164 48.7186L378.091 45.8555L381.506 43.4696L384.433 42.9924H387.848L390.775 43.4696L393.702 45.8555L396.141 48.2414L397.116 49.673L397.604 52.0589L397.116 53.4905L395.165 56.3536L393.214 58.2624L391.262 60.1711L388.823 61.6027L386.872 62.0798L389.311 55.3992L389.799 53.4905V52.0589L389.311 51.5818L386.384 52.0589L382.482 54.9221L380.53 57.7852V60.6483L381.994 64.4658L385.896 72.1008L388.823 77.3498L390.775 81.6445L391.262 84.5076L390.287 88.3251L387.848 92.1426L382.969 96.4373C381.994 96.7554 379.945 97.3916 379.555 97.3916C379.164 97.3916 374.839 98.0279 372.725 98.346L368.335 97.8688L363.456 95.0057L360.041 90.711L359.066 87.8479L354.188 92.1426L351.261 94.0513L345.894 95.4829H341.504L337.601 94.5285L335.65 93.097L333.699 90.711L331.747 86.8935L331.26 83.076V77.3498L326.869 81.1673C326.056 81.6445 324.235 82.5989 323.454 82.5989M243.938 93.097C243.938 92.9379 243.938 92.5243 243.938 92.1426M243.938 93.097V92.1426M243.938 92.1426C243.938 91.7608 243.938 90.0748 243.938 89.2795M243.938 92.1426V89.2795M243.938 89.2795L244.914 86.4164L248.817 77.3498L250.768 74.9639L256.622 66.8517L262.964 59.6939L265.891 57.7852V60.1711L264.915 62.0798L261.5 67.3289L258.085 74.4867L257.11 77.827V84.9848L258.085 87.8479L260.037 91.6654L261.988 93.5741L266.378 95.4829H270.769L276.623 94.5285L280.526 92.1426L285.892 86.8935L287.843 84.0304L288.819 87.8479L291.258 91.1882L295.16 94.0513C296.136 94.3695 298.185 95.0057 298.575 95.0057C299.063 95.0057 300.039 95.4829 301.014 95.4829M301.014 95.4829C301.795 95.4829 303.616 95.4829 304.429 95.4829M301.014 95.4829H304.429M304.429 95.4829L306.38 95.0057L310.771 93.097L314.186 90.2338L319.064 84.9848L321.015 82.5989M321.015 82.5989C321.503 82.5989 322.674 82.5989 323.454 82.5989M321.015 82.5989H323.454M28.3184 74.4867H32.221C33.3593 73.8504 35.8309 72.5779 36.6115 72.5779C37.392 72.5779 41.1645 70.9873 42.9532 70.192L37.0993 88.3251L28.3184 74.4867ZM212.717 61.6027L214.669 65.4202L216.132 70.192L217.596 75.9183V79.2586L216.62 81.6445C216.295 81.9626 215.547 82.5989 215.157 82.5989C214.766 82.5989 213.043 82.917 212.23 83.076L209.303 82.5989L207.839 81.6445L205.888 80.2129L208.327 74.4867L210.766 68.7605L211.742 64.943L212.717 61.6027ZM319.064 61.6027C318.674 61.6027 317.275 61.9208 316.625 62.0798L314.673 63.9886L313.21 67.3289L312.722 70.6692V75.9183L310.771 77.3498L307.844 78.7814H304.917L303.941 78.3042L302.966 76.8726L301.99 75.9183L301.014 73.5323V71.1464L302.478 66.8517L304.917 61.1255L306.868 58.7395L310.283 55.8764L312.722 55.3992L314.673 55.8764L316.137 56.3536L317.6 57.7852L318.576 59.2167L319.064 61.6027ZM372.237 61.6027L372.725 63.5114L375.164 69.2376L376.628 74.0095L377.115 77.3498V79.2586L375.652 81.1673L374.676 82.5989L370.286 83.076L366.871 81.6445L364.432 80.2129L367.359 73.0551L372.237 61.6027ZM361.993 48.7186C363.456 48.2414 367.847 48.2414 367.359 48.7186C366.969 49.1004 363.619 55.5583 361.993 58.7395C361.668 59.6939 361.017 61.6981 361.017 62.0798C361.017 62.4616 356.139 67.3289 353.7 69.7148L355.651 63.9886L361.993 48.7186Z" stroke="black"/>
<path d="M29.2939 74.9639L41.9775 71.1464L37.0992 87.3707L29.2939 75.441V74.9639Z" fill="black" stroke="black"/>
<path d="M212.717 63.0342L214.669 66.3745C214.669 67.0108 214.864 68.8559 215.644 71.1464C216.425 73.4369 216.945 76.5545 217.108 77.827L216.62 80.2129L216.132 81.6445L213.693 82.1217L211.254 82.5988L209.303 82.1217L206.864 80.2129V79.2585L208.327 75.9182L211.742 68.7604L212.717 63.0342Z" fill="black"/>
<path d="M318.576 61.1255L317.601 58.7395L316.137 56.8308L312.722 55.8764L309.307 57.308L305.405 61.6026L302.478 68.7604L301.502 73.0551C301.665 74.0095 302.088 76.0137 302.478 76.3954C302.868 76.7772 304.592 77.827 305.405 78.3042L309.307 77.827C310.283 77.1907 312.234 75.8228 312.234 75.441V69.7148C312.234 69.2376 313.21 66.8517 313.21 66.3745C313.21 65.8973 313.698 63.9886 314.674 63.0342C315.454 62.2707 317.601 61.4436 318.576 61.1255Z" fill="black"/>
<path d="M312.234 75.441C312.234 75.8228 310.283 77.1907 309.307 77.827L305.405 78.3042C304.592 77.827 302.868 76.7772 302.478 76.3954C302.088 76.0137 301.665 74.0095 301.502 73.0551L302.478 68.7604L305.405 61.6026L309.307 57.308L312.722 55.8764L316.137 56.8308L317.6 58.7395L318.576 61.1255C317.6 61.4436 315.454 62.2707 314.674 63.0342C313.698 63.9886 313.21 65.8973 313.21 66.3745C313.21 66.8517 312.234 69.2376 312.234 69.7148M312.234 75.441C312.234 74.9639 312.234 70.192 312.234 69.7148M312.234 75.441V69.7148M212.717 63.0342L214.669 66.3745C214.669 67.0108 214.864 68.8559 215.644 71.1464C216.425 73.4369 216.945 76.5545 217.108 77.827L216.62 80.2129L216.132 81.6445L213.693 82.1216L211.254 82.5988L209.303 82.1216L206.864 80.2129V79.2585L208.327 75.9182L211.742 68.7604L212.717 63.0342Z" stroke="black"/>
</svg>
